<svg width="28" height="28" viewBox="0 0 28 28" fill="none" xmlns="http://www.w3.org/2000/svg">
<path fill-rule="evenodd" clip-rule="evenodd" d="M13.5 4.92495C16.0945 4.92495 18.1699 6.98729 18.1699 9.49718C18.1699 12.0071 16.0945 14.0694 13.5 14.0694C10.9055 14.0694 8.8302 12.0071 8.8302 9.49718C8.8302 6.98729 10.9055 4.92495 13.5 4.92495ZM20.0199 9.49718C20.0199 5.935 17.0854 3.07495 13.5 3.07495C9.91465 3.07495 6.9802 5.935 6.9802 9.49718C6.9802 13.0594 9.91465 15.9194 13.5 15.9194C17.0854 15.9194 20.0199 13.0594 20.0199 9.49718ZM13.5 19.8169C18.1722 19.8169 22.184 22.1387 24.209 25.4794C24.4738 25.9163 25.0426 26.0558 25.4795 25.791C25.9164 25.5262 26.0559 24.9573 25.7911 24.5205C23.4075 20.5881 18.7729 17.9669 13.5 17.9669C8.22717 17.9669 3.59257 20.5881 1.209 24.5205C0.944195 24.9573 1.08368 25.5262 1.52055 25.791C1.95743 26.0558 2.52625 25.9163 2.79106 25.4794C4.81604 22.1387 8.82783 19.8169 13.5 19.8169Z" fill="#2E2F31"/>
</svg>
