<svg width="60" height="60" viewBox="0 0 60 60" fill="none" xmlns="http://www.w3.org/2000/svg">
<g clip-path="url(#clip0_72_33)">
<path d="M46.1835 21.1228L39.9722 17.0804C40.7324 15.5139 41.1592 13.7568 41.1592 11.9018C41.1592 5.33918 35.8202 0 29.2574 0C22.6948 0 17.3556 5.33918 17.3556 11.9018C17.3556 13.9004 17.8489 15.8358 18.7897 17.5685L13.6645 21.133C12.0636 22.2463 11.1079 24.075 11.1079 26.025V54.0414C11.1079 57.3271 13.7811 60.0001 17.0667 60.0001H42.9333C46.219 60.0001 48.8922 57.327 48.8922 54.0414V26.117C48.892 24.0935 47.8796 22.2266 46.1835 21.1228ZM19.9338 11.9018C19.9338 6.76066 24.1163 2.57812 29.2574 2.57812C34.3986 2.57812 38.5811 6.76066 38.5811 11.9018C38.5811 13.2382 38.2963 14.5086 37.7878 15.6588L32.7529 12.3821C30.7115 11.0534 28.0999 11.0936 26.1003 12.4843L20.9233 16.0848C20.274 14.7942 19.9338 13.3702 19.9338 11.9018ZM46.3139 54.0413C46.3139 55.9054 44.7973 57.4219 42.9331 57.4219H17.0665C15.2026 57.4219 13.6859 55.9054 13.6859 54.0413V26.0249C13.6859 24.9186 14.2281 23.8811 15.1363 23.2494L27.5723 14.6006C28.1545 14.1957 28.8278 13.9927 29.5021 13.9927C30.142 13.9927 30.7828 14.1756 31.3467 14.5426L36.4301 17.8511C34.9784 19.5982 32.9016 20.8068 30.5464 21.1342V20.9488C30.5464 20.2369 29.9692 19.6597 29.2573 19.6597C28.5454 19.6597 27.9683 20.2369 27.9683 20.9488V23.9033C27.9683 24.6152 28.5454 25.1924 29.2573 25.1924C29.9692 25.1924 30.5464 24.6152 30.5464 23.9033V23.7334C33.8038 23.3809 36.6715 21.7092 38.602 19.2645L44.7773 23.2834C45.7394 23.9096 46.3139 24.9689 46.3139 26.1169V54.0413Z" fill="#232325"/>
<path d="M31.5486 41.1501C30.9996 40.9561 30.3452 40.709 29.9172 40.4488C29.7759 40.3629 29.7081 40.188 29.7724 40.0357C29.773 40.0344 29.7734 40.0332 29.774 40.0319C29.8241 39.9159 29.8987 39.8421 29.9962 39.8128C30.4705 39.6697 30.8035 39.813 30.9708 39.9226L31.0399 39.976C31.6016 40.4096 32.4226 40.3422 32.8666 39.7886C33.319 39.2245 33.2191 38.4016 32.6492 37.9615C32.6492 37.9615 32.48 37.8314 32.4618 37.8188C32.2806 37.6931 31.9681 37.5076 31.5522 37.3675C31.5253 36.6007 30.8304 36.0037 30.0304 36.1449C29.4138 36.2538 28.9765 36.8107 28.9765 37.4369V37.4449C28.0645 37.825 27.3962 38.6544 27.2041 39.6736C27.0071 40.7185 27.3582 41.739 28.1202 42.3367C28.8059 42.8744 29.7602 43.2525 30.6894 43.5808C30.9089 43.6584 31.1921 43.8123 31.1184 44.2509C31.0731 44.5208 30.8406 44.9786 30.2568 44.9825C29.5646 44.9872 29.4216 44.9673 28.9479 44.6601C28.3556 44.2762 27.5471 44.407 27.148 44.9891C26.7379 45.5872 26.9015 46.4022 27.505 46.7972C28.0586 47.1594 28.507 47.3558 28.9789 47.4583C29.0066 48.16 29.5936 48.7181 30.3072 48.6955C31.0097 48.6732 31.5545 48.0686 31.5545 47.3659V47.3063C32.6384 46.8665 33.4567 45.8924 33.6608 44.6781C33.9249 43.1079 33.0761 41.69 31.5486 41.1501Z" fill="#FEBD18"/>
<path d="M30.0052 29.7156C23.0096 29.7156 17.3181 35.4069 17.3181 42.4025C17.3181 49.3982 23.0094 55.0895 30.0052 55.0895C37.0007 55.0895 42.6921 49.3982 42.6921 42.4025C42.6921 35.4069 37.0008 29.7156 30.0052 29.7156ZM30.0052 52.5115C24.4312 52.5115 19.8962 47.9767 19.8962 42.4026C19.8962 36.8286 24.431 32.2938 30.0052 32.2938C35.5791 32.2938 40.114 36.8286 40.114 42.4026C40.114 47.9767 35.5792 52.5115 30.0052 52.5115Z" fill="#FEBD18"/>
</g>
<defs>
<clipPath id="clip0_72_33">
<rect width="60" height="60" fill="white"/>
</clipPath>
</defs>
</svg>
