<svg width="60" height="60" viewBox="0 0 60 60" fill="none" xmlns="http://www.w3.org/2000/svg">
<path d="M13.5551 51.8493C10.8736 51.8493 8.69202 49.6677 8.69202 46.9863C8.9592 40.5347 18.152 40.5366 18.4181 46.9863C18.4181 49.6677 16.2367 51.8493 13.5551 51.8493ZM13.5551 44.7013C12.2952 44.7013 11.2701 45.7264 11.2701 46.9863C11.3956 50.0175 15.7149 50.0166 15.84 46.9863C15.84 45.7264 14.8151 44.7013 13.5551 44.7013Z" fill="#232325"/>
<path d="M59.8842 34.896L54.549 23.1702C53.664 21.225 52.1359 19.5805 50.1297 18.4142C48.1596 17.2688 45.8608 16.6635 43.4823 16.6635H38.0873V19.2416H43.4823C46.9958 19.2416 50.2167 20.909 51.7898 23.4662H48.7265C45.8233 23.4662 43.4614 25.5554 43.4614 28.1235V35.449C43.4614 36.1609 44.0386 36.738 44.7505 36.738H57.4219V44.1708H52.7321C50.8453 41.4556 46.6951 41.4568 44.8094 44.1708H38.0876V45.4598C38.0876 45.962 37.7999 46.3959 37.3808 46.6087V46.7489H43.9138C43.771 49.5091 46.0063 51.8573 48.7708 51.8492C51.5352 51.8573 53.7708 49.509 53.6279 46.7489H58.7109C59.4228 46.7489 60 46.1717 60 45.4598V35.4299C60 35.2458 59.9605 35.0636 59.8842 34.896ZM48.7707 49.2711C47.5108 49.2711 46.4858 48.2461 46.4858 46.9862C46.6113 43.9549 50.9306 43.9558 51.0556 46.9862C51.0556 48.2461 50.0307 49.2711 48.7707 49.2711ZM46.0397 28.1235C46.0397 26.977 47.2451 26.0443 48.7267 26.0443H53.0244L56.717 34.1599H46.0397V28.1235Z" fill="#232325"/>
<path d="M36.7984 8.15076H1.28906C0.577148 8.15076 0 8.72791 0 9.43982L0 45.4599C0 46.1718 0.577148 46.7489 1.28906 46.7489H8.69812C8.74441 45.791 9.06996 44.9057 9.59379 44.1708H2.57812V10.7289H35.5093V44.1708H17.5165C18.0403 44.9057 18.3659 45.791 18.4121 46.7489H36.7984C37.5103 46.7489 38.0875 46.1718 38.0875 45.4599V9.43982C38.0875 8.72779 37.5103 8.15076 36.7984 8.15076Z" fill="#FEBD18"/>
</svg>
