<svg width="27" height="36" viewBox="0 0 27 36" fill="none" xmlns="http://www.w3.org/2000/svg">
<path d="M0 12.9845L3.5262 7.70973L3.49108 4.31885L4.13392 4.66732C4.4726 4.85082 4.99301 4.9439 5.68106 4.9439C6.24297 4.9439 6.81259 4.8852 7.31506 4.83347C7.47884 4.81658 7.63211 4.80087 7.77084 4.78856L8.94773 4.6851L7.22494 6.41056L8.97203 8.61314L7.70503 8.2663C7.54228 8.22168 7.41303 8.16151 7.2989 8.10844C7.18996 8.05775 7.10399 8.01773 7.01713 8.00513C6.60626 7.94599 6.16352 7.91842 5.62414 7.91842C5.26767 7.91842 4.91164 7.92998 4.55546 7.94155L4.55042 7.94184L8.26709 12.9845H0Z" fill="#F1DE3A"/>
<path d="M0.805176 12.5542H7.41557L3.97242 7.88279L3.99947 7.69985C4.11103 7.67643 4.11861 7.52484 4.22914 7.52154C5.17773 7.49315 6.12268 7.44163 7.07849 7.57936C7.34768 7.61809 7.53092 7.77257 7.81858 7.85131L6.6497 6.3778L7.8085 5.21717C6.78038 5.30767 4.94674 5.59726 3.92894 5.04565L3.95803 7.86328L3.94912 7.85118L0.805176 12.5542Z" fill="#F1DE3A"/>
<path d="M18.0476 12.9745L21.5525 7.73133L21.5185 4.43042L22.1611 4.77859C22.4999 4.96194 23.0205 5.05503 23.7085 5.05503C24.2709 5.05503 24.8408 4.99633 25.3437 4.94445C25.507 4.92771 25.6599 4.91199 25.7981 4.89984L26.9753 4.79608L25.2524 6.52169L26.9999 8.72486L25.7323 8.37728C25.5697 8.33281 25.4406 8.27278 25.3268 8.21972C25.2177 8.16903 25.1317 8.12901 25.0446 8.11641C24.6334 8.05712 24.1908 8.02955 23.6516 8.02955C23.3291 8.02955 23.0068 8.03904 22.6846 8.04956L26.3148 12.9745H18.0476Z" fill="#F1DE3A"/>
<path d="M25.4632 12.5441L22.018 7.87022L22.0268 7.81091C22.1385 7.7875 22.1461 7.6359 22.2566 7.63262C23.2052 7.60424 24.15 7.55269 25.1058 7.69043C25.3752 7.72915 25.5584 7.88353 25.846 7.96238L24.6772 6.48887L25.836 5.32821C24.8077 5.41874 22.9742 5.70822 21.9563 5.15674L21.9842 7.85968L18.8528 12.5441H25.4632Z" fill="#F1DE3A"/>
<path d="M7.35059 12.9945L12.5247 3.37961L12.4899 0L13.1326 0.348174C13.4711 0.531525 13.9915 0.624608 14.6794 0.624608C15.2413 0.624608 15.8111 0.565912 16.3137 0.514183C16.4775 0.497285 16.6308 0.481574 16.7695 0.469271L17.9464 0.365812L16.2236 2.09127L17.9711 4.29444L16.7036 3.94686C16.541 3.90239 16.4119 3.84236 16.298 3.7893C16.1889 3.73861 16.103 3.69859 16.0158 3.68599C15.6046 3.6267 15.1619 3.59913 14.6227 3.59913C14.2657 3.59913 13.9091 3.61084 13.5522 3.62255L13.5169 3.62359L18.9767 12.9945H7.35059Z" fill="#F1DE3A"/>
<path d="M8.07056 12.5641H18.228L12.9736 3.54569L12.998 3.3805C13.1096 3.35708 13.1172 3.20548 13.2277 3.2022C14.1763 3.17382 15.1211 3.12227 16.0769 3.26001C16.3462 3.29875 16.5295 3.45311 16.8171 3.53196L15.6483 2.05845L16.8071 0.897793C15.7788 0.98832 13.9453 1.2778 12.9275 0.726318L12.9563 3.51603L12.9477 3.50122L8.07056 12.5641Z" fill="#F1DE3A"/>
<path d="M12.6989 35.1482L12.685 35.1242C11.2303 32.4436 8.55374 31.8098 5.96548 31.1967C3.75682 30.6738 1.67089 30.1798 0.399887 28.4905L0.314066 28.3766L0.230469 12.409L13.0628 12.3984L25.8968 12.4085L25.8132 28.3763L25.7274 28.4902C24.4563 30.1793 22.3704 30.6733 20.1619 31.1963C17.6042 31.8019 14.9602 32.4281 13.4946 35.0294L13.0988 35.6445L12.6989 35.1482Z" fill="#F1DE3A"/>
<path d="M13.0632 12.8286L0.663086 12.8387L0.743682 28.2318C3.38763 31.7457 10.2749 29.7805 13.0632 34.9189V34.9205L13.0636 34.9197L13.0644 34.9209V34.9184C15.8524 29.7801 22.7398 31.7452 25.3837 28.2314L25.4643 12.8383L13.0632 12.8281V12.8286Z" fill="#F1DE3A"/>
<path fill-rule="evenodd" clip-rule="evenodd" d="M0.805176 12.5543H7.41556L3.94911 7.85132L0.805176 12.5543Z" fill="#DF000F"/>
<path fill-rule="evenodd" clip-rule="evenodd" d="M18.8528 12.5443H25.4631L21.9966 7.84131L18.8528 12.5443Z" fill="#DF000F"/>
<path fill-rule="evenodd" clip-rule="evenodd" d="M8.0708 12.5643H18.2282L12.9479 3.50146L8.0708 12.5643Z" fill="#DF000F"/>
<path fill-rule="evenodd" clip-rule="evenodd" d="M3.95917 7.97267L3.99948 7.70008C4.11103 7.67667 4.11862 7.52506 4.22916 7.52178C5.17775 7.4934 6.12269 7.44186 7.0785 7.57959C7.3477 7.61832 7.53094 7.77281 7.81859 7.85156L6.64972 6.37804L7.80851 5.2174C6.7804 5.3079 4.94675 5.5975 3.92896 5.0459L3.95917 7.97267Z" fill="#DF000F"/>
<path fill-rule="evenodd" clip-rule="evenodd" d="M12.9579 3.6532L12.9983 3.38074C13.1098 3.35732 13.1174 3.20572 13.2279 3.20244C14.1765 3.17406 15.1213 3.12252 16.0771 3.26026C16.3465 3.29899 16.5297 3.45334 16.8174 3.53221L15.6485 2.05869L16.8073 0.898037C15.779 0.988569 13.9455 1.27804 12.9277 0.726562L12.9579 3.6532Z" fill="#DF000F"/>
<path fill-rule="evenodd" clip-rule="evenodd" d="M21.9865 8.08375L22.0268 7.81116C22.1385 7.78775 22.1461 7.63614 22.2566 7.63286C23.2052 7.60448 24.15 7.55294 25.1058 7.69068C25.3752 7.7294 25.5584 7.88376 25.8461 7.96263L24.6772 6.48911L25.836 5.32846C24.8077 5.41899 22.9742 5.70846 21.9563 5.15698L21.9865 8.08375Z" fill="#DF000F"/>
<path fill-rule="evenodd" clip-rule="evenodd" d="M13.0632 12.8284L25.4643 12.8386L25.3837 28.2316C22.7398 31.7454 15.8523 29.7803 13.0644 34.9186V34.9211L13.0636 34.9199L13.0632 34.9207V34.9192C10.2749 29.7807 3.38763 31.7459 0.743668 28.232L0.663086 12.8389L13.0632 12.8289V12.8284Z" fill="#DF000F"/>
<path fill-rule="evenodd" clip-rule="evenodd" d="M7.25772 19.367V19.4578V19.4679C7.25772 19.5369 7.30663 19.5946 7.37138 19.6085C7.3897 19.6168 7.40984 19.6214 7.43155 19.6214C7.4534 19.6214 7.4734 19.6217 7.49133 19.6205C7.53188 19.6238 7.57375 19.6214 7.62306 19.6214C7.70128 19.6214 7.76457 19.5592 7.76655 19.4816L7.77099 19.4739L7.77752 19.4663C7.80213 19.4405 7.81691 19.4055 7.81691 19.367V19.3304V19.3266C7.81691 19.2998 7.80998 19.2752 7.79716 19.2537C7.78932 19.2336 7.7765 19.2157 7.76093 19.2011L7.75478 19.1947L7.7498 19.1899L7.74733 19.1875L7.7468 19.1869L7.74116 19.1815L7.73462 19.1746L7.72966 19.1698L7.72716 19.1674L7.72664 19.1667L7.72089 19.1613C7.70637 19.145 7.68834 19.1322 7.66767 19.1236C7.64609 19.1104 7.62004 19.1024 7.59271 19.1024C7.52234 19.1024 7.46686 19.106 7.42174 19.1325C7.36733 19.1457 7.32601 19.176 7.2929 19.2426C7.28741 19.2536 7.28413 19.2659 7.28166 19.2783C7.26675 19.301 7.25772 19.3276 7.25772 19.3568V19.367ZM6.38353 19.1954C5.98563 19.1954 6.04907 19.8608 6.19205 20.1037C6.34483 20.363 7.11239 20.3961 7.43155 20.5074C7.64438 20.5817 8.65078 21.9849 8.65078 20.9211C8.65078 20.5643 8.55845 20.4973 8.95309 20.4973C9.50431 20.4973 9.90168 20.6088 9.44689 19.9524C8.86204 19.1085 8.84739 18.9185 7.81442 18.4586C6.84881 18.0289 6.41375 17.9219 6.38353 19.1954Z" fill="#F1DE3A"/>
<path fill-rule="evenodd" clip-rule="evenodd" d="M2.62118 20.2011C3.33016 21.5416 5.37568 19.9143 5.47105 19.2611C5.51852 18.9358 5.11341 20.1696 5.88074 20.1696C6.79677 20.1696 5.56496 20.4257 5.28584 20.8729C4.44947 22.2128 5.35673 23.8316 5.29813 23.7625C5.12911 23.5631 4.0692 21.8457 3.76456 22.0936C3.68306 22.1601 3.52598 22.4765 3.42759 22.4765C3.40249 22.4765 2.80602 21.6153 2.48449 21.4979C2.29692 21.4297 2.28161 22.0779 2.20915 21.3709C2.15344 20.826 2.41948 20.402 2.64473 20.0994C3.54506 20.0994 4.02682 19.9597 4.76732 19.4616C5.24997 19.137 5.67339 18.9196 6.07117 18.5201C6.45235 18.1371 5.90531 18.2165 5.63651 18.2165C4.84435 18.2165 4.32717 18.3483 3.66384 18.7271C3.2662 18.9543 3.04841 19.1816 2.74859 19.5938C2.6722 19.6987 2.59634 20.2839 2.62118 20.2011Z" fill="#F1DE3A"/>
<path d="M2.62118 20.2011C3.33016 21.5416 5.37568 19.9143 5.47105 19.2611C5.51852 18.9358 5.11341 20.1696 5.88074 20.1696C6.79678 20.1696 5.56496 20.4257 5.28584 20.8729C4.44947 22.2128 5.35673 23.8316 5.29813 23.7625C5.12911 23.5631 4.0692 21.8457 3.76456 22.0936C3.68306 22.1601 3.52598 22.4765 3.42759 22.4765C3.40249 22.4765 2.80602 21.6153 2.48449 21.4979C2.29692 21.4297 2.28161 22.0779 2.20915 21.3709C2.15344 20.826 2.41948 20.402 2.64473 20.0994C3.54506 20.0994 4.02682 19.9597 4.76732 19.4616C5.24997 19.137 5.67339 18.9196 6.07117 18.5201C6.45235 18.1371 5.90531 18.2165 5.63651 18.2165C4.84435 18.2165 4.32717 18.3483 3.66384 18.7271C3.2662 18.9543 3.04841 19.1816 2.74859 19.5938C2.6722 19.6987 2.59634 20.2839 2.62118 20.2011Z" stroke="#F1DE3A" stroke-width="0.0339044" stroke-miterlimit="22.9256"/>
<path fill-rule="evenodd" clip-rule="evenodd" d="M2.24181 21.9404C2.63972 22.6425 3.23527 23.8175 4.27726 24.1405C4.71037 24.2747 5.06761 24.1858 5.22456 23.7772C5.30814 23.5597 5.67099 24.2635 6.01058 24.302C6.792 24.3907 7.82746 23.8153 7.63293 23.6257C7.15393 23.1593 7.00142 21.8359 7.21973 21.7588C7.63674 21.6116 8.02588 22.8982 8.02588 23.1917C8.02588 23.6822 8.39921 23.0221 8.89248 22.7075C9.22432 22.4956 9.62028 22.3616 9.72819 22.4405C9.89379 22.5616 9.33942 23.716 8.43909 23.7975C8.39921 23.801 8.32662 23.78 8.31942 23.8208C8.14282 24.8184 6.40326 25.7002 4.13627 24.9176C3.06248 24.547 2.22152 23.2421 2.24181 21.9404Z" fill="#F1DE3A"/>
<path d="M2.24181 21.9404C2.63972 22.6425 3.23527 23.8175 4.27726 24.1405C4.71037 24.2747 5.06761 24.1858 5.22456 23.7772C5.30813 23.5597 5.67099 24.2635 6.01058 24.302C6.792 24.3907 7.82746 23.8153 7.63293 23.6257C7.15393 23.1593 7.00142 21.8359 7.21973 21.7588C7.63674 21.6116 8.02588 22.8982 8.02588 23.1917C8.02588 23.6822 8.39921 23.0221 8.89247 22.7075C9.22432 22.4956 9.62028 22.3616 9.72819 22.4405C9.89379 22.5616 9.33942 23.716 8.43909 23.7975C8.39921 23.801 8.32662 23.78 8.31942 23.8208C8.14282 24.8184 6.40326 25.7002 4.13627 24.9176C3.06248 24.547 2.22152 23.2421 2.24181 21.9404Z" stroke="#F1DE3A" stroke-width="0.0339044" stroke-miterlimit="22.9256"/>
<path fill-rule="evenodd" clip-rule="evenodd" d="M4.5393 17.7622L5.5974 17.7219C5.59399 17.1365 5.59073 16.5512 5.58732 15.9658C5.58404 15.599 5.19766 16.6051 5.00287 16.9245L4.18666 16.2786C4.00195 16.124 4.45192 17.2811 4.5393 17.7622Z" fill="#F1DE3A"/>
<path d="M4.5393 17.7622L5.5974 17.7219C5.59399 17.1365 5.59073 16.5512 5.58732 15.9658C5.58404 15.599 5.19766 16.6051 5.00287 16.9245L4.18666 16.2786C4.00195 16.124 4.45192 17.2811 4.5393 17.7622Z" stroke="#F1DE3A" stroke-width="0.0339044" stroke-miterlimit="22.9256"/>
<path fill-rule="evenodd" clip-rule="evenodd" d="M6.58152 17.7622L5.52344 17.7219C5.52683 17.1365 5.53024 16.5512 5.5335 15.9658C5.53691 15.599 5.92318 16.6051 6.11808 16.9245L6.93432 16.2786C7.11887 16.124 6.6689 17.2811 6.58152 17.7622Z" fill="#F1DE3A"/>
<path d="M6.58152 17.7622L5.52344 17.7219C5.52683 17.1365 5.53024 16.5512 5.5335 15.9658C5.53691 15.599 5.92318 16.6051 6.11808 16.9245L6.93432 16.2786C7.11887 16.124 6.6689 17.2811 6.58152 17.7622Z" stroke="#F1DE3A" stroke-width="0.0339044" stroke-miterlimit="22.9256"/>
<path d="M17.5798 25.2268H18.3495L18.1124 24.5986C18.0404 24.4079 17.9866 24.2511 17.9517 24.128C17.9227 24.2737 17.882 24.418 17.8292 24.5617L17.5798 25.2268ZM16.9252 26.1587L17.797 23.8897H18.1202L19.0491 26.1587H18.7067L18.442 25.4715H17.4931L17.2443 26.1587H16.9252ZM15.4782 25.9036H16.0785C16.2406 25.9036 16.362 25.8703 16.4429 25.8043C16.5244 25.7383 16.5645 25.6395 16.5645 25.5074C16.5645 25.4133 16.5412 25.3347 16.4947 25.2718C16.4488 25.209 16.3838 25.1671 16.3013 25.1466C16.2189 25.1259 16.0778 25.1155 15.8787 25.1155H15.4782V25.9036ZM15.1777 23.8897H16.6495V24.1576H15.4782V24.857H16.0199C16.22 24.857 16.379 24.8761 16.4974 24.9147C16.6152 24.9526 16.7102 25.0246 16.7811 25.1302C16.8524 25.2358 16.8883 25.3589 16.8883 25.4995C16.8883 25.6141 16.8624 25.7208 16.8116 25.8208C16.7605 25.9199 16.6843 26.0014 16.583 26.0642C16.4821 26.1271 16.3099 26.1587 16.0663 26.1587H15.1777V23.8897ZM14.3556 23.8897H14.6557V26.1587H14.3556V23.8897ZM12.6736 25.9036H13.223C13.4116 25.9036 13.5484 25.8719 13.6334 25.8081C13.719 25.7446 13.7612 25.6431 13.7612 25.5042C13.7612 25.4091 13.7355 25.3299 13.6842 25.266C13.6324 25.2015 13.5659 25.1608 13.4845 25.1433C13.4027 25.1259 13.2669 25.117 13.0755 25.117H12.6736V25.9036ZM12.3729 23.8897H12.6736V24.8587H13.2151C13.5701 24.8587 13.8035 24.9241 13.9156 25.0551C14.0275 25.1862 14.0835 25.3347 14.0835 25.5011C14.0835 25.6765 14.0234 25.8297 13.9039 25.9613C13.7841 26.0927 13.5616 26.1587 13.2367 26.1587H12.3729V23.8897ZM10.5434 24.9686H11.1303C11.3243 24.9686 11.4621 24.9326 11.5436 24.8603C11.6248 24.7879 11.6656 24.6864 11.6656 24.5553C11.6656 24.4602 11.6418 24.379 11.5937 24.3114C11.5455 24.2436 11.4827 24.1994 11.404 24.1776C11.3532 24.1645 11.2604 24.1576 11.1241 24.1576H10.5434V24.9686ZM10.2434 26.1587V23.8897H11.0992C11.2498 23.8897 11.3649 23.8971 11.4441 23.9114C11.5556 23.9298 11.6492 23.9653 11.7247 24.0176C11.7997 24.0693 11.8605 24.1428 11.9064 24.2363C11.9525 24.3304 11.9751 24.4333 11.9751 24.5459C11.9751 24.7387 11.9139 24.9025 11.7913 25.0361C11.6682 25.1692 11.4464 25.2364 11.1255 25.2364H10.5434V26.1587H10.2434ZM21.0238 22.6176V20.3486H21.3244V21.2805H22.5036V20.3486H22.8042V22.6176H22.5036V21.5484H21.3244V22.6176H21.0238ZM18.741 20.3486H19.0132V22.1453L20.2203 20.3486H20.5224V22.6176H20.2498V20.8252L19.0411 22.6176H18.741V20.3486ZM16.8213 20.3486H18.2424V22.6176H17.9418V20.6164H17.1219V21.785C17.1219 22.0223 17.1108 22.196 17.0885 22.3065C17.0664 22.4168 17.0195 22.503 16.9486 22.5643C16.8773 22.6256 16.7869 22.6562 16.6775 22.6562C16.6115 22.6562 16.5323 22.6441 16.4393 22.6193L16.4901 22.353C16.5397 22.3737 16.582 22.3841 16.6174 22.3841C16.6855 22.3841 16.7363 22.3582 16.7705 22.3076C16.8043 22.2562 16.8213 22.1358 16.8213 21.9462V20.3486ZM14.8771 21.6857H15.6468L15.4096 21.0576C15.3377 20.8668 15.2839 20.7101 15.249 20.587C15.22 20.7327 15.1793 20.877 15.1265 21.0206L14.8771 21.6857ZM14.2226 22.6176L15.0943 20.3486H15.4175L16.3463 22.6176H16.004L15.7394 21.9304H14.7904L14.5416 22.6176H14.2226ZM12.1268 22.6176L13.0048 21.4354L12.2308 20.3486H12.588L13.0001 20.9309C13.0856 21.0512 13.1464 21.1442 13.1823 21.2092C13.233 21.1268 13.2927 21.0407 13.3619 20.9509L13.8189 20.3486H14.1454L13.3481 21.418L14.2071 22.6176H13.8358L13.2647 21.8083C13.2325 21.7619 13.1998 21.7111 13.1654 21.6567C13.1147 21.7391 13.0788 21.7956 13.0571 21.8269L12.4876 22.6176H12.1268ZM10.6486 21.6857H11.4182L11.1811 21.0576C11.1092 20.8668 11.0554 20.7101 11.0205 20.587C10.9914 20.7327 10.9508 20.877 10.8979 21.0206L10.6486 21.6857ZM9.9939 22.6176L10.8657 20.3486H11.1889L12.1178 22.6176H11.7755L11.5107 21.9304H10.5619L10.3131 22.6176H9.9939Z" fill="#F1DE3A"/>
<path d="M17.5798 25.2268H18.3495L18.1124 24.5986C18.0404 24.4079 17.9866 24.2511 17.9517 24.128C17.9227 24.2737 17.882 24.418 17.8292 24.5617L17.5798 25.2268ZM16.9252 26.1587L17.797 23.8897H18.1202L19.0491 26.1587H18.7067L18.442 25.4715H17.4931L17.2443 26.1587H16.9252ZM15.4782 25.9036H16.0785C16.2406 25.9036 16.362 25.8703 16.4429 25.8043C16.5244 25.7383 16.5645 25.6395 16.5645 25.5074C16.5645 25.4133 16.5412 25.3347 16.4947 25.2718C16.4488 25.209 16.3838 25.1671 16.3013 25.1466C16.2189 25.1259 16.0778 25.1155 15.8787 25.1155H15.4782V25.9036ZM15.1777 23.8897H16.6495V24.1576H15.4782V24.857H16.0199C16.22 24.857 16.379 24.8761 16.4974 24.9147C16.6152 24.9526 16.7102 25.0246 16.7811 25.1302C16.8524 25.2358 16.8883 25.3589 16.8883 25.4995C16.8883 25.6141 16.8624 25.7208 16.8116 25.8208C16.7605 25.9199 16.6843 26.0014 16.583 26.0642C16.4821 26.1271 16.3099 26.1587 16.0663 26.1587H15.1777V23.8897ZM14.3556 23.8897H14.6557V26.1587H14.3556V23.8897ZM12.6736 25.9036H13.223C13.4116 25.9036 13.5484 25.8719 13.6334 25.8081C13.719 25.7446 13.7612 25.6431 13.7612 25.5042C13.7612 25.4091 13.7355 25.3299 13.6842 25.266C13.6324 25.2015 13.5659 25.1608 13.4845 25.1433C13.4027 25.1259 13.2669 25.117 13.0755 25.117H12.6736V25.9036ZM12.3729 23.8897H12.6736V24.8587H13.2151C13.5701 24.8587 13.8035 24.9241 13.9156 25.0551C14.0275 25.1862 14.0835 25.3347 14.0835 25.5011C14.0835 25.6765 14.0234 25.8297 13.9039 25.9613C13.7841 26.0927 13.5616 26.1587 13.2367 26.1587H12.3729V23.8897ZM10.5434 24.9686H11.1303C11.3243 24.9686 11.4621 24.9326 11.5436 24.8603C11.6248 24.7879 11.6656 24.6864 11.6656 24.5553C11.6656 24.4602 11.6418 24.379 11.5937 24.3114C11.5455 24.2436 11.4827 24.1994 11.404 24.1776C11.3532 24.1645 11.2604 24.1576 11.1241 24.1576H10.5434V24.9686ZM10.2434 26.1587V23.8897H11.0992C11.2498 23.8897 11.3649 23.8971 11.4441 23.9114C11.5556 23.9298 11.6492 23.9653 11.7247 24.0176C11.7997 24.0693 11.8605 24.1428 11.9064 24.2363C11.9525 24.3304 11.9751 24.4333 11.9751 24.5459C11.9751 24.7387 11.9139 24.9025 11.7913 25.0361C11.6682 25.1692 11.4464 25.2364 11.1255 25.2364H10.5434V26.1587H10.2434ZM21.0238 22.6176V20.3486H21.3244V21.2805H22.5036V20.3486H22.8042V22.6176H22.5036V21.5484H21.3244V22.6176H21.0238ZM18.741 20.3486H19.0132V22.1453L20.2203 20.3486H20.5224V22.6176H20.2498V20.8252L19.0411 22.6176H18.741V20.3486ZM16.8213 20.3486H18.2424V22.6176H17.9418V20.6164H17.1219V21.785C17.1219 22.0223 17.1108 22.196 17.0885 22.3065C17.0664 22.4168 17.0195 22.503 16.9486 22.5643C16.8773 22.6256 16.7869 22.6562 16.6775 22.6562C16.6115 22.6562 16.5323 22.6441 16.4393 22.6193L16.4901 22.353C16.5397 22.3737 16.582 22.3841 16.6174 22.3841C16.6855 22.3841 16.7363 22.3582 16.7705 22.3076C16.8043 22.2562 16.8213 22.1358 16.8213 21.9462V20.3486ZM14.8771 21.6857H15.6468L15.4096 21.0576C15.3377 20.8668 15.2839 20.7101 15.249 20.587C15.22 20.7327 15.1793 20.877 15.1265 21.0206L14.8771 21.6857ZM14.2226 22.6176L15.0943 20.3486H15.4175L16.3463 22.6176H16.004L15.7394 21.9304H14.7904L14.5416 22.6176H14.2226ZM12.1268 22.6176L13.0048 21.4354L12.2308 20.3486H12.588L13.0001 20.9309C13.0856 21.0512 13.1464 21.1442 13.1823 21.2092C13.233 21.1268 13.2927 21.0407 13.3619 20.9509L13.8189 20.3486H14.1454L13.3481 21.418L14.2071 22.6176H13.8358L13.2647 21.8083C13.2325 21.7619 13.1998 21.7111 13.1654 21.6567C13.1147 21.7391 13.0788 21.7956 13.0571 21.8269L12.4876 22.6176H12.1268ZM10.6486 21.6857H11.4182L11.1811 21.0576C11.1092 20.8668 11.0554 20.7101 11.0205 20.587C10.9914 20.7327 10.9508 20.877 10.8979 21.0206L10.6486 21.6857ZM9.9939 22.6176L10.8657 20.3486H11.1889L12.1178 22.6176H11.7755L11.5107 21.9304H10.5619L10.3131 22.6176H9.9939Z" stroke="#F1DE3A" stroke-width="0.0339044" stroke-miterlimit="22.9256"/>
</svg>
