<svg width="20" height="20" viewBox="0 0 20 20" fill="none" xmlns="http://www.w3.org/2000/svg">
<g clip-path="url(#clip0_117_5882)">
<path fill-rule="evenodd" clip-rule="evenodd" d="M3.33464 3.33337C2.4138 3.33337 1.66797 4.07921 1.66797 5.00004V15C1.66797 15.9209 2.4138 16.6667 3.33464 16.6667H10.1445L11.3229 15.4883L11.8112 15H3.33464V7.50167L10.0013 11.6667L16.668 7.50167V10.1433L18.3346 8.4766V5.00004C18.3346 4.07921 17.5888 3.33337 16.668 3.33337H3.33464ZM3.33464 5.00004H16.668V5.835L10.0013 10L3.33464 5.835V5.00004Z" fill="#FEBD18"/>
<path d="M18.5072 10.8334C18.4006 10.8334 18.2938 10.8742 18.2126 10.9554L17.3792 11.7888L19.0459 13.4554L19.8792 12.6221C20.0417 12.4596 20.0417 12.1954 19.8792 12.0329L18.8018 10.9554C18.7201 10.8742 18.6137 10.8334 18.5072 10.8334Z" fill="#232325"/>
<path d="M16.79 12.378L12.5013 16.6667V18.3334H14.168L18.4567 14.0446L16.79 12.378Z" fill="#232325"/>
</g>
<defs>
<clipPath id="clip0_117_5882">
<rect width="20" height="20" fill="white"/>
</clipPath>
</defs>
</svg>
