<svg width="500" height="500" viewBox="0 0 500 500" fill="none" xmlns="http://www.w3.org/2000/svg">
<path d="M500 382.4H0V382.6H500V382.4Z" fill="#EBEBEB"/>
<path d="M449.899 398.5H428.199V398.7H449.899V398.5Z" fill="#EBEBEB"/>
<path d="M344.7 393.3H310.6V393.5H344.7V393.3Z" fill="#EBEBEB"/>
<path d="M441.1 389.2H396.6V389.4H441.1V389.2Z" fill="#EBEBEB"/>
<path d="M173 394.2H161.9V394.4H173V394.2Z" fill="#EBEBEB"/>
<path d="M153 394.2H114.6V394.4H153V394.2Z" fill="#EBEBEB"/>
<path d="M94.0008 390H66.3008V390.2H94.0008V390Z" fill="#EBEBEB"/>
<path d="M236.999 337.8H43.8992C40.7992 337.8 38.1992 335.2 38.1992 332.1V60.7C38.1992 57.6 40.7992 55 43.8992 55H236.999C240.099 55 242.699 57.6 242.699 60.7V332.1C242.699 335.2 240.199 337.8 236.999 337.8ZM43.8992 55.2C40.8992 55.2 38.3992 57.6 38.3992 60.7V332.1C38.3992 335.1 40.7992 337.6 43.8992 337.6H236.999C239.999 337.6 242.499 335.2 242.499 332.1V60.7C242.499 57.7 240.099 55.2 236.999 55.2H43.8992Z" fill="#EBEBEB"/>
<path d="M453.3 337.8H260.2C257.1 337.8 254.5 335.2 254.5 332.1V60.7C254.5 57.6 257.1 55 260.2 55H453.3C456.4 55 459 57.6 459 60.7V332.1C459 335.2 456.5 337.8 453.3 337.8ZM260.2 55.2C257.2 55.2 254.7 57.6 254.7 60.7V332.1C254.7 335.1 257.1 337.6 260.2 337.6H453.3C456.3 337.6 458.8 335.2 458.8 332.1V60.7C458.8 57.7 456.4 55.2 453.3 55.2H260.2Z" fill="#EBEBEB"/>
<path d="M216.1 200.9L216.6 187.8L208.5 185.2C208.2 180.7 207.4 176.3 206.3 172L213.1 167L208.5 154.7L200 155.4C198 151.4 195.6 147.6 193 144L197.4 136.7L188.4 127.1L180.8 131C177.4 128.1 173.8 125.5 170 123.2L171.2 114.8L159.2 109.4L153.7 115.8C149.5 114.4 145.2 113.4 140.7 112.8L138.7 104.6L125.5 104.1L122.9 112.2C118.4 112.6 114 113.3 109.7 114.4L104.6 107.6L92.2996 112.2L92.9996 120.7C88.9996 122.7 85.1996 125.1 81.5996 127.8L74.2996 123.4L64.6996 132.4L68.5996 140C65.6996 143.4 63.0996 147 60.7996 150.8L52.3996 149.5L46.8996 161.5L53.3996 167C51.9996 171.2 50.9996 175.6 50.3996 180L42.0996 182.1L41.5996 195.2L49.6996 197.8C49.9996 202.3 50.7996 206.7 51.8996 211L45.0996 216L49.6996 228.3L58.1996 227.6C60.1996 231.6 62.5996 235.4 65.1996 239L60.7996 246.3L69.7996 255.9L77.3996 252C80.7996 254.9 84.3996 257.5 88.1996 259.8L86.8996 268.2L98.8996 273.6L104.4 267.2C108.6 268.6 112.9 269.6 117.4 270.2L119.4 278.4L132.6 278.9L135.2 270.8C139.7 270.4 144.1 269.7 148.4 268.6L153.4 275.4L165.7 270.8L165.1 262.3C169.1 260.3 172.9 257.9 176.5 255.2L183.8 259.6L193.4 250.6L189.5 243C192.4 239.6 195 236 197.3 232.2L205.7 233.5L211.2 221.5L204.7 216C206.1 211.8 207.1 207.5 207.7 203L216.1 200.9ZM127.3 243.4C98.4996 242.4 75.9996 218.3 76.9996 189.5C77.9996 160.7 102.1 138.2 130.9 139.1C159.7 140.1 182.2 164.2 181.2 193C180.2 221.9 156.1 244.4 127.3 243.4Z" fill="#EBEBEB"/>
<path d="M441 157.4L444.3 154.3L443 151.7C444 150.5 444.9 149.3 445.7 148L448.6 148.4L450.5 144.3L448.3 142.4C448.8 140.9 449.1 139.4 449.4 137.9L452.3 137.2L452.4 132.7L449.6 131.8C449.5 130.3 449.2 128.7 448.9 127.2L451.2 125.5L449.6 121.2L446.7 121.4C446 120 445.2 118.7 444.3 117.5L445.8 115L442.7 111.7L440.1 113C438.9 112 437.7 111.1 436.4 110.3L436.8 107.4L432.7 105.5L430.8 107.7C429.3 107.2 427.8 106.9 426.3 106.7L425.6 103.9L421.1 103.7L420.2 106.5C418.7 106.6 417.1 106.9 415.7 107.2L414 104.8L409.7 106.4L409.9 109.3C408.5 110 407.2 110.8 406 111.7L403.5 110.2L400.2 113.3L401.5 115.9C400.5 117.1 399.6 118.3 398.8 119.6L395.9 119.2L394 123.3L396.2 125.2C395.7 126.7 395.4 128.2 395.1 129.7L392.2 130.4L392.1 134.9L394.9 135.8C395 137.3 395.3 138.9 395.6 140.4L393.2 142.1L394.8 146.4L397.7 146.2C398.4 147.6 399.2 148.9 400.1 150.1L398.6 152.6L401.7 155.9L404.3 154.6C405.5 155.6 406.7 156.5 408 157.3L407.6 160.2L411.7 162.1L413.6 159.9C415.1 160.4 416.6 160.7 418.1 160.9L418.8 163.7L423.3 163.9L424.2 161.1C425.7 161 427.3 160.7 428.7 160.4L430.4 162.8L434.7 161.2L434.5 158.3C435.9 157.6 437.2 156.8 438.4 155.9L441 157.4ZM417.3 138.3C414.9 135.7 415 131.6 417.6 129.2C420.2 126.8 424.3 126.9 426.7 129.5C429.1 132.1 429 136.2 426.4 138.6C423.9 141 419.8 140.9 417.3 138.3Z" fill="#EBEBEB"/>
<path d="M320 292.3L309.7 285.2C308.7 281.4 307.3 277.8 305.5 274.4L308.1 264L293.1 247.9L282.5 249.8C279.2 247.8 275.7 246.2 272 244.9L265.6 234.1L243.6 233.3L236.5 243.6C232.7 244.6 229.1 246 225.7 247.8L215.3 245.2L199.2 260.2L201.1 270.7C199.1 274 197.5 277.5 196.2 281.2L185.4 287.6L184.6 309.6L195 316.7C196 320.5 197.4 324.1 199.1 327.5L196.5 337.9L211.5 354L222 352.1C225.3 354.1 228.8 355.7 232.5 357L238.9 367.8L260.9 368.6L268 358.3C271.8 357.3 275.4 355.9 278.9 354.1L289.2 356.7L305.3 341.7L303.4 331.2C305.4 327.9 307 324.4 308.3 320.7L319.1 314.3L320 292.3ZM251.5 325.7C237.8 325.2 227.2 313.8 227.6 300.2C228.1 286.5 239.5 275.9 253.1 276.3C266.8 276.8 277.4 288.2 277 301.8C276.6 315.5 265.2 326.2 251.5 325.7Z" fill="#EBEBEB"/>
<path d="M343.499 230L326.099 229.4C325.399 229.4 324.699 229 324.399 228.4L319.699 220.5C317.199 219.6 314.799 218.5 312.399 217.1L304.899 218.5C304.199 218.6 303.499 218.4 302.999 217.9L291.199 205.2C290.699 204.7 290.499 203.9 290.699 203.2L292.599 195.8C291.499 193.5 290.499 190.9 289.699 188.3L282.199 183.1C281.599 182.7 281.299 182 281.299 181.3L281.899 164C281.899 163.3 282.299 162.6 282.899 162.3L290.799 157.6C291.699 155 292.899 152.6 294.199 150.4L292.799 142.9C292.699 142.2 292.899 141.5 293.399 141L306.099 129.2C306.599 128.7 307.399 128.5 308.099 128.7L315.499 130.6C317.899 129.4 320.399 128.5 322.899 127.7L328.099 120.2C328.499 119.6 329.199 119.2 329.899 119.3L347.199 119.9C347.899 119.9 348.599 120.3 348.899 120.9L353.599 128.8C356.099 129.7 358.499 130.8 360.799 132.2L368.399 130.8C369.099 130.7 369.799 130.9 370.299 131.4L382.099 144.1C382.599 144.6 382.799 145.4 382.599 146.1L380.699 153.5C381.899 155.9 382.799 158.4 383.599 160.9L391.099 166.1C391.699 166.5 391.999 167.2 391.999 167.9L391.399 185.2C391.399 185.9 390.999 186.6 390.399 186.9L382.499 191.6C381.599 194.2 380.399 196.6 379.099 198.8L380.499 206.3C380.599 207 380.399 207.7 379.899 208.2L367.299 220C366.799 220.5 365.999 220.7 365.299 220.5L357.899 218.6C355.499 219.8 352.899 220.7 350.399 221.5L345.199 229C344.899 229.6 344.199 230 343.499 230ZM327.499 225.2L342.499 225.7L347.499 218.5C347.799 218.1 348.199 217.8 348.699 217.7C351.499 217 354.199 215.9 356.899 214.6C357.299 214.4 357.899 214.3 358.399 214.4L365.399 216.2L376.399 206L375.099 198.8C374.999 198.3 375.099 197.8 375.399 197.3C376.799 194.9 378.099 192.3 379.099 189.5C379.299 189 379.599 188.6 379.999 188.3L387.499 183.8L387.999 168.8L380.799 163.8C380.399 163.5 380.099 163.2 379.999 162.7C379.999 162.6 379.999 162.6 379.999 162.5C379.199 159.7 378.199 157 376.899 154.4C376.699 153.9 376.599 153.4 376.699 152.9L378.499 145.8L368.299 134.8L361.099 136.1C360.599 136.2 360.099 136.1 359.599 135.8C357.099 134.3 354.499 133.1 351.799 132.1C351.599 132 351.499 132 351.399 131.9C351.099 131.7 350.899 131.5 350.699 131.2L346.199 123.7L331.199 123.2L326.199 130.4C325.899 130.8 325.499 131.1 324.999 131.3C322.199 132.1 319.499 133.1 316.899 134.4C316.399 134.6 315.899 134.7 315.399 134.6L308.299 132.8L297.299 143.1L298.599 150.3C298.699 150.8 298.599 151.2 298.399 151.6C298.399 151.7 298.299 151.7 298.299 151.8C296.799 154.2 295.599 156.9 294.599 159.7C294.399 160.2 294.099 160.6 293.699 160.8L286.199 165.3L285.699 180.3L292.899 185.3C293.299 185.6 293.599 186 293.699 186.5C294.499 189.4 295.499 192.1 296.799 194.6C296.899 194.7 296.899 194.9 296.999 195.1C297.099 195.4 297.099 195.8 296.999 196.1L295.199 203.2L305.399 214.2L312.499 212.9C312.999 212.8 313.499 212.9 313.999 213.2C316.499 214.7 319.199 215.9 321.899 216.9C322.399 217.1 322.799 217.4 323.099 217.8L327.499 225.2ZM336.699 206.2C336.299 206.2 335.999 206.2 335.599 206.2C318.199 205.6 304.399 190.9 304.999 173.5C305.599 156.1 320.299 142.4 337.699 142.9C355.099 143.5 368.899 158.2 368.299 175.6C367.999 184 364.399 191.9 358.299 197.6C352.399 203.2 344.799 206.2 336.699 206.2ZM336.699 147.1C321.999 147.1 309.799 158.8 309.299 173.6C308.799 188.7 320.699 201.4 335.799 202C343.099 202.2 350.099 199.6 355.499 194.6C360.899 189.6 363.899 182.8 364.199 175.5C364.699 160.4 352.799 147.7 337.699 147.1C337.299 147.1 336.999 147.1 336.699 147.1Z" fill="#EBEBEB"/>
<path d="M383.399 105.3L376.299 103.4L374.299 96.1999L377.099 93.3999L380.099 99.5999L386.199 102.5L383.399 105.3Z" fill="#E0E0E0"/>
<path d="M383.899 100.5C385.199 99.1999 385.199 97.0999 383.899 95.7999C382.599 94.4999 380.499 94.4999 379.199 95.7999L382.799 90.3999L387.599 92.7999L388.599 97.7999L383.899 100.5Z" fill="#E0E0E0"/>
<path d="M376.6 94L381.9 88.7L389.1 90.6L391 97.8L385.7 103.1L378.5 101.2L376.6 94ZM386.1 98.3C387.4 97 387.4 94.9 386.1 93.6C384.8 92.3 382.7 92.3 381.4 93.6C380.1 94.9 380.1 97 381.4 98.3C382.7 99.6 384.8 99.6 386.1 98.3Z" fill="#F0F0F0"/>
<path d="M90.1992 296.7L94.0992 295.7L95.0992 291.8L93.5992 290.3L91.9992 293.6L88.6992 295.2L90.1992 296.7Z" fill="#E0E0E0"/>
<path d="M89.9984 294.1C89.2984 293.4 89.2984 292.3 89.9984 291.6C90.6984 290.9 91.7984 290.9 92.4984 291.6L90.5984 288.7L87.9984 290L87.3984 292.7L89.9984 294.1Z" fill="#E0E0E0"/>
<path d="M93.8988 290.6L91.0988 287.8L87.2988 288.8L86.2988 292.6L89.0988 295.4L92.8988 294.4L93.8988 290.6ZM88.7988 292.9C88.0988 292.2 88.0988 291.1 88.7988 290.4C89.4988 289.7 90.5988 289.7 91.2988 290.4C91.9988 291.1 91.9988 292.2 91.2988 292.9C90.5988 293.6 89.4988 293.6 88.7988 292.9Z" fill="#F0F0F0"/>
<path d="M76.3996 85.7L79.5996 88.9C80.3996 89.7 81.7996 89.7 82.5996 88.9C83.3996 88.1 83.3996 86.7 82.5996 85.9L79.3996 82.7C78.5996 81.9 77.1996 81.9 76.3996 82.7C75.4996 83.5 75.4996 84.8 76.3996 85.7Z" fill="#F0F0F0"/>
<path d="M74.1004 77.7C76.6004 76.8 79.2004 78 80.1004 80.3C80.9004 82.6 79.6004 85.2 77.1004 86.1C74.6004 87 72.0004 85.8 71.1004 83.5C70.3004 81.2 71.6004 78.6 74.1004 77.7Z" fill="#E0E0E0"/>
<path d="M70.5952 82.9709L71.0684 84.2885L80.5735 80.8747L80.1003 79.5571L70.5952 82.9709Z" fill="#F0F0F0"/>
<path d="M250 427.5C357.088 427.5 443.9 422.441 443.9 416.2C443.9 409.959 357.088 404.9 250 404.9C142.912 404.9 56.0996 409.959 56.0996 416.2C56.0996 422.441 142.912 427.5 250 427.5Z" fill="#F5F5F5"/>
<path d="M128.7 171.6C128.6 171.6 128.6 171.6 128.5 171.6C124 169.9 121.3 168.2 119.9 166.1C118.9 166.3 117.7 166.2 116.7 165.7C115.7 165.2 114.6 164.3 113.9 163.1C113.2 163.6 112.4 163.8 111.5 163.5C110.5 163.2 109.4 162.3 108.5 161.1C107.9 161.5 107.4 161.6 106.9 161.5C103.9 161.3 99.8996 155.3 99.5996 149C99.5996 148.7 99.7996 148.5 100.1 148.5C100.4 148.5 100.6 148.7 100.6 149C100.9 155 104.7 160.3 107 160.5C107.4 160.5 107.7 160.4 107.9 160.2C106.5 157.8 105.8 154.4 106.9 150.8C107.8 147.8 108.5 146.6 109.4 146.8C111.1 147.2 110.9 153.8 110 158.1C109.8 159.1 109.5 159.8 109.2 160.3C110 161.5 110.9 162.2 111.7 162.5C112.4 162.7 113 162.5 113.4 162.2C112.6 160.3 112.5 157.6 113.5 154.3C114.9 149.9 115.5 149.8 115.8 149.7C116 149.6 116.3 149.7 116.4 149.9C117.3 150.9 116.2 157.8 115.1 161.2C114.9 161.6 114.8 162 114.5 162.4C115.1 163.6 116 164.4 117 164.9C117.8 165.3 118.6 165.4 119.3 165.3C119.2 165.1 119.1 164.9 119.1 164.7C118.3 162.6 118.7 160.1 120.3 157.1C121.4 155.1 122.2 154.2 123 154.2C123.2 154.2 123.7 154.3 124 154.9C124.9 156.5 124.2 161.8 122.5 164.5C122.1 165.1 121.5 165.6 120.9 165.9C122.2 167.7 124.8 169.2 128.8 170.8C129.1 170.9 129.2 171.2 129.1 171.4C129.1 171.5 128.9 171.6 128.7 171.6ZM123 155.1C123 155.1 122.4 155.1 121.2 157.4C119.8 160.1 119.4 162.3 120.1 164.2C120.2 164.4 120.3 164.7 120.4 164.9C120.9 164.7 121.4 164.3 121.7 163.8C123.1 161.7 123.8 157.3 123.2 155.5C123.1 155.2 123 155.1 123 155.1ZM115.9 150.9C115.6 151.4 115.2 152.4 114.6 154.4C113.7 157.1 113.7 159.3 114.2 160.9C114.2 160.8 114.3 160.7 114.3 160.6C115.4 157.3 116 152.5 115.9 150.9ZM109.3 147.7C109.1 147.9 108.6 148.5 107.9 150.9C107 154.1 107.5 157 108.6 159.1C108.8 158.7 109 158.2 109.1 157.7C110.1 152.9 109.8 148.5 109.3 147.7Z" fill="#232325"/>
<path d="M166.701 224C165.201 224 163.601 223.7 162.101 222.8C161.901 222.7 161.801 222.4 161.901 222.1C162.001 221.9 162.301 221.8 162.601 221.9C166.201 224 170.801 222.5 171.701 221C171.801 220.8 171.901 220.6 171.801 220.3C170.401 220.4 168.701 220.1 166.701 218.8C164.201 217.2 164.001 216.7 164.001 216.4C164.001 216.2 164.101 216 164.301 215.9C165.301 215.4 169.801 217.5 171.701 218.7C171.901 218.9 172.201 219 172.301 219.2C173.101 219 173.801 218.6 174.201 218.1C174.501 217.7 174.701 217.4 174.801 217C174.701 217 174.701 217 174.601 217C173.001 217.2 171.401 216.5 169.701 214.9C168.501 213.8 168.101 213.1 168.201 212.5C168.201 212.3 168.401 212 168.901 211.8C170.301 211.5 173.701 212.9 175.101 214.4C175.401 214.7 175.601 215.1 175.701 215.6C177.001 215 178.401 213.6 180.001 211.3C180.201 211.1 180.501 211 180.701 211.2C180.901 211.4 181.001 211.7 180.801 211.9C178.901 214.5 177.301 216 175.801 216.6C175.701 217.3 175.401 218 174.901 218.6C174.401 219.2 173.701 219.7 172.701 220C172.801 220.5 172.701 220.9 172.401 221.4C171.801 222.9 169.401 224 166.701 224ZM165.801 217.1C166.101 217.3 166.601 217.7 167.301 218.1C168.701 218.9 169.901 219.3 170.901 219.4C169.301 218.4 167.101 217.5 165.801 217.1ZM169.301 212.8C169.401 213 169.601 213.4 170.501 214.2C172.001 215.6 173.301 216.2 174.601 216C174.701 216 174.801 216 174.901 216C174.801 215.7 174.701 215.4 174.501 215.2C173.101 213.6 170.001 212.7 169.301 212.8Z" fill="#232325"/>
<path d="M179.9 222.6L164.3 225.4L150.2 148.2L120.1 153.7L71.0996 240.7L76.3996 269.4L139.2 258L143.5 281.5L173.6 276L169.3 252.5L184.9 249.7L179.9 222.6ZM101.1 236.9L127.1 191.3L134.3 230.8L101.1 236.9Z" fill="#FEBD18"/>
<path d="M305.4 143C304.8 137.7 303.8 132.9 302.2 128.8C300.7 124.7 298.3 120.6 295.2 116.6C292.1 112.6 287.9 109.2 282.5 106.2C277.1 103.3 270.1 101.2 261.3 100.1C243 97.7 228.7 101 218.5 109.8C208.3 118.7 201.5 135.7 198.3 160.8C197 171 196.7 180.5 197.3 189.1C198 197.8 199.6 204.8 202.1 210C205.6 217.4 210.4 223.3 216.7 227.8C223 232.2 231.7 235.2 242.6 236.6C262.2 239.2 276.7 235.4 286.2 225.3C295.6 215.2 301.9 198.2 305 174.2C306.5 163.6 306.6 153.2 305.4 143Z" fill="#FEBD18"/>
<path d="M251.8 226.4C249.4 226.3 246.8 226.1 244.2 225.8C235 224.6 228 222.3 223.1 218.9C218.3 215.6 214.8 211.2 212.1 205.5V205.4C210.2 201.4 208.9 195.6 208.4 188.4C207.8 180.5 208.1 171.7 209.3 162.3C212.9 134.6 220.2 123 225.8 118.2C232.3 112.6 241 110 252.5 110.4C254.9 110.5 257.4 110.7 259.9 111C267.3 112 273.1 113.6 277.3 115.9C281.3 118.1 284.4 120.6 286.6 123.4C289 126.5 290.8 129.6 292 132.7C293.2 136 294.1 139.9 294.6 144.3C295.7 153.6 295.6 163.3 294.3 173C291.5 194.5 286.2 209.7 278.4 218C272.5 224.1 263.8 226.8 251.8 226.4Z" fill="#232325"/>
<path d="M271.3 143.3L271.4 139.5L269.1 138.7C269 137.4 268.8 136.1 268.5 134.9L270.5 133.4L269.2 129.8L266.8 130C266.2 128.8 265.5 127.8 264.8 126.7L266.1 124.6L263.5 121.8L261.3 122.9C260.3 122.1 259.3 121.3 258.2 120.6L258.6 118.2L255.1 116.6L253.5 118.5C252.3 118.1 251 117.8 249.7 117.6L249.1 115.2L245.3 115.1L244.5 117.4C243.2 117.5 241.9 117.7 240.7 118L239.2 116L235.6 117.3L235.8 119.7C234.6 120.3 233.6 121 232.5 121.7L230.4 120.4L227.6 123L228.7 125.2C227.9 126.2 227.1 127.2 226.5 128.3L224.1 127.9L222.5 131.4L224.4 133C224 134.2 223.7 135.5 223.5 136.8L221.1 137.4L221 141.2L223.3 142C223.4 143.3 223.6 144.6 223.9 145.8L221.9 147.3L223.2 150.9L225.6 150.7C226.2 151.9 226.9 152.9 227.6 154L226.3 156.1L228.9 158.9L231.1 157.8C232.1 158.6 233.1 159.4 234.2 160.1L233.8 162.5L237.3 164.1L238.9 162.2C240.1 162.6 241.4 162.9 242.7 163.1L243.3 165.5L247.1 165.6L247.9 163.3C249.2 163.2 250.5 163 251.7 162.7L253.2 164.7L256.8 163.4L256.6 161C257.8 160.4 258.8 159.7 259.9 159L262 160.3L264.8 157.7L263.7 155.5C264.5 154.5 265.3 153.5 265.9 152.4L268.3 152.8L269.9 149.3L268 147.7C268.4 146.5 268.7 145.2 268.9 143.9L271.3 143.3ZM245.7 155.6C237.4 155.3 230.9 148.4 231.2 140.1C231.5 131.8 238.4 125.3 246.7 125.6C255 125.9 261.5 132.8 261.2 141.1C261 149.3 254 155.8 245.7 155.6Z" fill="#FEBD18"/>
<path opacity="0.3" d="M287.1 212.9L287.4 210.3L285.9 209.7C285.9 208.8 285.8 208 285.7 207.1L287.1 206.2L286.4 203.7H284.7C284.4 202.9 284 202.1 283.5 201.4L284.4 200L282.8 198L281.3 198.6C280.7 198 280 197.4 279.3 196.9L279.7 195.3L277.4 194.1L276.2 195.3C275.4 195 274.6 194.7 273.7 194.5L273.4 192.9L270.8 192.6L270.2 194.1C269.3 194.1 268.5 194.2 267.6 194.3L266.7 192.9L264.2 193.6V195.3C263.4 195.6 262.6 196 261.9 196.5L260.5 195.5L258.5 197.1L259.1 198.6C258.5 199.2 257.9 199.9 257.4 200.6L255.8 200.2L254.6 202.5L255.8 203.7C255.5 204.5 255.2 205.3 255 206.2L253.4 206.5L253.1 209.1L254.6 209.7C254.6 210.6 254.7 211.4 254.8 212.3L253.4 213.2L254.1 215.7H255.8C256.1 216.5 256.5 217.3 257 218L256 219.4L257.6 221.4L259.1 220.8C259.7 221.4 260.4 222 261.1 222.5L261 224L263.3 225.2L264.5 224C265.3 224.3 266.1 224.6 267 224.8L267.3 226.4L269.9 226.7L270.5 225.2C271.4 225.2 272.2 225.1 273.1 225L274 226.4L276.5 225.7V224C277.3 223.7 278.1 223.3 278.8 222.8L280.1 223.8L282.1 222.2L281.5 220.7C282.1 220.1 282.7 219.4 283.2 218.7L284.8 219.1L286 216.8L284.8 215.6C285.1 214.8 285.4 214 285.6 213.1L287.1 212.9ZM274.2 211.9C273 214.1 270.3 214.9 268.1 213.7C265.9 212.5 265.2 209.8 266.3 207.6C267.5 205.4 270.2 204.7 272.4 205.8C274.6 207 275.4 209.7 274.2 211.9Z" fill="#FEBD18"/>
<path d="M301.3 169.6L298.3 167.5C298 166.4 297.6 165.4 297.1 164.4L297.9 161.4L293.6 156.8L290.6 157.4C289.7 156.8 288.6 156.4 287.6 156L285.7 152.9L279.4 152.7L277.3 155.7C276.2 156 275.2 156.4 274.2 156.9L271.2 156.1L266.6 160.4L267.2 163.4C266.6 164.4 266.2 165.4 265.8 166.4L262.7 168.2L262.5 174.5L265.5 176.6C265.8 177.7 266.2 178.7 266.7 179.7L265.9 182.7L270.2 187.3L273.2 186.7C274.2 187.3 275.2 187.7 276.2 188.1L278 191.2L284.3 191.4L286.4 188.4C287.5 188.1 288.5 187.7 289.5 187.2L292.5 188L297.1 183.7L296.5 180.7C297.1 179.7 297.5 178.7 297.9 177.7L301 175.8L301.3 169.6ZM281.6 179.3C277.7 179.2 274.6 175.9 274.7 171.9C274.8 168 278.1 164.9 282.1 165C286 165.1 289.1 168.4 289 172.4C288.8 176.3 285.5 179.4 281.6 179.3Z" fill="white"/>
<path d="M323 119.1L323.5 117.8C323.9 117.6 324.2 117.4 324.5 117.1H325.7L327.1 115.1L326.7 114C326.8 113.6 326.9 113.2 327 112.8L328 111.9L327.6 109.6L326.3 109.1C326.1 108.7 325.9 108.4 325.6 108.1V106.9L323.6 105.5L322.5 105.9C322.1 105.8 321.7 105.7 321.3 105.6L320.4 104.6L318.1 105L317.6 106.3C317.2 106.5 316.9 106.7 316.5 107H315.3L313.9 109L314.3 110.1C314.2 110.5 314.1 110.9 314 111.3L313 112.2L313.4 114.5L314.7 115C314.9 115.4 315.1 115.7 315.4 116.1V117.3L317.4 118.7L318.5 118.3C318.9 118.4 319.3 118.5 319.7 118.6L320.6 119.6L323 119.1ZM318 112.6C317.7 111.1 318.7 109.8 320.2 109.5C321.7 109.2 323 110.2 323.3 111.7C323.6 113.2 322.6 114.5 321.1 114.8C319.6 115.1 318.2 114.1 318 112.6Z" fill="#FEBD18"/>
<path d="M295.601 112.5L294.801 111.9C296.101 110.3 298.001 108.3 300.801 106.9L301.301 107.8C298.301 109.3 296.401 111.5 295.601 112.5Z" fill="#FEBD18"/>
<path d="M303.601 106.8L303.201 105.9C307.001 104.3 310.901 103.6 314.901 104L314.801 105C311.001 104.6 307.201 105.2 303.601 106.8Z" fill="#FEBD18"/>
<path d="M301.7 113.7L300.9 113.1C303 110.1 307 107.5 310.8 106.7L311 107.7C307.4 108.4 303.6 110.9 301.7 113.7Z" fill="#FEBD18"/>
<path d="M235.3 210C235.2 210 235 209.9 234.9 209.8L232.8 207.6C231.7 207.5 230.7 207.3 229.7 207L226.4 208.4C226.2 208.5 226.1 208.5 225.9 208.4L220.4 204.8C220.3 204.7 220.2 204.5 220.2 204.4L220.3 200.8C219.6 200 219 199.1 218.5 198.1L215.7 197C215.5 196.9 215.4 196.8 215.4 196.6L214.1 190.2C214.1 190 214.1 189.9 214.2 189.7L216.4 187.6C216.5 186.5 216.7 185.5 217 184.5L215.6 181.2C215.5 181 215.5 180.9 215.6 180.7L219.2 175.2C219.3 175.1 219.4 175 219.6 175L223.2 175.1C224 174.4 224.9 173.8 225.9 173.3L227 170.5C227.1 170.3 227.2 170.2 227.4 170.2L233.8 168.9C234 168.9 234.1 168.9 234.3 169L236.4 171.2C237.5 171.3 238.5 171.5 239.6 171.8L242.9 170.4C243.1 170.3 243.2 170.3 243.4 170.4L248.9 174C249 174.1 249.1 174.3 249.1 174.4L249 178C249.7 178.8 250.3 179.7 250.8 180.7L253.6 181.8C253.8 181.9 253.9 182 253.9 182.2L255.2 188.6C255.2 188.8 255.2 188.9 255.1 189.1L252.9 191.2C252.8 192.3 252.6 193.3 252.3 194.3L253.7 197.6C253.8 197.8 253.8 197.9 253.7 198.1L250.1 203.6C250 203.7 249.9 203.8 249.7 203.8L246.1 203.7C245.3 204.4 244.4 205 243.4 205.5L242.3 208.3C242.2 208.5 242.1 208.6 241.9 208.6L235.3 210C235.4 210 235.4 210 235.3 210ZM229.7 206H229.8C230.9 206.3 232 206.5 233.1 206.6C233.2 206.6 233.3 206.7 233.4 206.8L235.4 208.9L241.3 207.7L242.4 205C242.4 204.9 242.5 204.8 242.6 204.7C243.6 204.2 244.6 203.6 245.4 202.8C245.5 202.7 245.6 202.7 245.7 202.7L249.2 202.8L252.5 197.8L251.1 194.6C251.1 194.5 251 194.4 251.1 194.3C251.4 193.2 251.6 192.1 251.7 191C251.7 190.9 251.8 190.8 251.8 190.7L253.9 188.7L252.7 182.8L250 181.7C249.9 181.7 249.8 181.6 249.7 181.5C249.2 180.5 248.6 179.6 247.8 178.7C247.7 178.6 247.7 178.5 247.7 178.4L247.8 174.9L242.8 171.6L239.6 173C239.5 173 239.4 173.1 239.3 173C238.2 172.7 237.1 172.5 236 172.4C235.9 172.4 235.8 172.3 235.7 172.3L233.7 170.2L227.8 171.4L226.7 174.1C226.7 174.2 226.6 174.3 226.5 174.4C225.5 174.9 224.6 175.5 223.7 176.3C223.6 176.4 223.5 176.4 223.4 176.4L219.9 176.3L216.6 181.3L218 184.5C218.1 184.6 218.1 184.8 218 184.9C217.7 185.9 217.5 187 217.4 188.1C217.4 188.2 217.3 188.3 217.3 188.4L215.2 190.4L216.4 196.3L219.1 197.4C219.2 197.4 219.3 197.5 219.4 197.7C219.9 198.7 220.5 199.6 221.2 200.5C221.3 200.6 221.3 200.7 221.3 200.8L221.2 204.3L226.2 207.6L229.4 206.2C229.6 206 229.6 206 229.7 206ZM234.6 202.8C232.1 202.8 229.5 202.1 227.3 200.6C224.3 198.6 222.3 195.6 221.6 192.1C220.9 188.6 221.6 185.1 223.5 182.1C227.6 176 235.9 174.3 242 178.3C248.1 182.4 249.8 190.6 245.7 196.8C243.2 200.7 238.9 202.8 234.6 202.8ZM224.4 182.7C222.6 185.4 221.9 188.7 222.6 192C223.3 195.2 225.1 198 227.9 199.8C233.6 203.6 241.2 202 245 196.3C248.8 190.6 247.2 183 241.5 179.2C235.8 175.4 228.1 177 224.4 182.7Z" fill="white"/>
<path d="M425.799 231.6L410.099 229.5L420.499 151.7L390.199 147.6L316.699 215.2L312.799 244.1L376.099 252.6L372.899 276.3L403.199 280.4L406.399 256.7L422.099 258.8L425.799 231.6ZM346.399 220.9L385.199 185.6L379.899 225.4L346.399 220.9Z" fill="#FEBD18"/>
<path d="M394.1 279.7C393.7 279.6 393.6 279.4 393.6 279.1L417 151.2C417 150.9 417.3 150.8 417.6 150.8C417.9 150.8 418.1 151.1 418 151.4L394.7 279.3C394.6 279.6 394.4 279.7 394.1 279.7Z" fill="#232325"/>
<path d="M414.799 153.4C414.799 153.9 414.399 154.2 413.999 154.2C413.499 154.2 413.199 153.8 413.199 153.4C413.199 153 413.599 152.6 413.999 152.6C414.499 152.5 414.799 152.9 414.799 153.4Z" fill="#232325"/>
<path d="M411.498 170.7C411.498 171.2 411.098 171.5 410.698 171.5C410.298 171.5 409.898 171.1 409.898 170.7C409.898 170.3 410.298 169.9 410.698 169.9C411.198 169.8 411.498 170.2 411.498 170.7Z" fill="#232325"/>
<path d="M408.198 188C408.198 188.5 407.798 188.8 407.398 188.8C406.998 188.8 406.598 188.4 406.598 188C406.598 187.6 406.998 187.2 407.398 187.2C407.798 187.1 408.198 187.5 408.198 188Z" fill="#232325"/>
<path d="M401.598 206C401.598 206.5 401.198 206.8 400.798 206.8C400.298 206.8 399.998 206.4 399.998 206C399.998 205.6 400.398 205.2 400.798 205.2C401.198 205.2 401.598 205.5 401.598 206Z" fill="#232325"/>
<path d="M401.498 222.6C401.498 223.1 401.098 223.4 400.698 223.4C400.198 223.4 399.898 223 399.898 222.6C399.898 222.2 400.298 221.8 400.698 221.8C401.198 221.7 401.498 222.1 401.498 222.6Z" fill="#232325"/>
<path d="M398.198 239.9C398.198 240.4 397.798 240.7 397.398 240.7C396.998 240.7 396.598 240.3 396.598 239.9C396.598 239.4 396.998 239.1 397.398 239.1C397.798 239.1 398.198 239.4 398.198 239.9Z" fill="#232325"/>
<path d="M394.799 257.2C394.799 257.7 394.399 258 393.999 258C393.499 258 393.199 257.6 393.199 257.2C393.199 256.7 393.599 256.4 393.999 256.4C394.499 256.3 394.899 256.7 394.799 257.2Z" fill="#232325"/>
<path d="M391.498 274.5C391.498 275 391.098 275.3 390.698 275.3C390.298 275.3 389.898 274.9 389.898 274.5C389.898 274.1 390.298 273.7 390.698 273.7C391.098 273.7 391.498 274 391.498 274.5Z" fill="#232325"/>
<path d="M400.799 206.5C400.599 206.5 400.399 206.3 400.299 206.1C400.199 205.8 400.399 205.6 400.699 205.5L403.199 205C403.499 204.9 403.699 205.1 403.799 205.4C403.899 205.7 403.699 205.9 403.399 206L400.899 206.5H400.799Z" fill="#232325"/>
<path d="M409.099 197.2C409.099 197.2 406.899 203 406.099 206.6C405.299 210.1 405.299 218 405.299 218" fill="#232325"/>
<path d="M405.299 218.5C404.999 218.5 404.799 218.3 404.799 218C404.799 217.7 404.899 210 405.599 206.5C406.399 203 408.499 197.3 408.599 197.1C408.699 196.8 408.999 196.7 409.199 196.8C409.499 196.9 409.599 197.2 409.499 197.4C409.499 197.5 407.299 203.2 406.499 206.7C405.799 210.1 405.699 217.9 405.699 218C405.799 218.3 405.599 218.5 405.299 218.5Z" fill="#232325"/>
<path d="M222.5 304.8C223.9 282.4 221.3 241.7 263.4 247.1C308.5 252.9 295.6 305.7 295.6 305.7L222.5 304.8Z" fill="#232325"/>
<path d="M251.5 291.4C261.662 291.4 269.9 283.162 269.9 273C269.9 262.838 261.662 254.6 251.5 254.6C241.338 254.6 233.1 262.838 233.1 273C233.1 283.162 241.338 291.4 251.5 291.4Z" fill="white"/>
<path d="M253.9 254.7C245.2 253.2 235.9 259.6 235 266.1L269.5 269.3C268.3 261.8 260.8 255.8 253.9 254.7Z" fill="#232325"/>
<path d="M265.599 272.5C265.399 277.3 262.699 281.1 259.799 280.9C256.899 280.7 254.599 276.7 254.799 271.9C254.999 267.1 257.699 263.3 260.599 263.5C263.599 263.7 265.799 267.7 265.599 272.5Z" fill="#232325"/>
<path d="M251.5 292.4C240.8 292.4 232.1 283.7 232.1 273C232.1 262.3 240.8 253.6 251.5 253.6C262.2 253.6 270.9 262.3 270.9 273C270.9 283.7 262.2 292.4 251.5 292.4ZM251.5 255.6C241.9 255.6 234.1 263.4 234.1 273C234.1 282.6 241.9 290.4 251.5 290.4C261.1 290.4 268.9 282.6 268.9 273C268.9 263.4 261.1 255.6 251.5 255.6Z" fill="#FEBD18"/>
<path opacity="0.3" d="M290.501 304.3H290.401C290.101 304.2 290.001 304 290.001 303.7C290.001 303.6 293.201 290 289.901 276.3C289.801 276 290.001 275.8 290.301 275.7C290.601 275.6 290.801 275.8 290.901 276.1C294.301 290.1 291.001 303.8 291.001 304C290.901 304.1 290.701 304.3 290.501 304.3Z" fill="white"/>
<path opacity="0.3" d="M287.7 268.8C287.5 268.8 287.3 268.7 287.2 268.5C285.9 265.7 284.3 263.1 282.5 260.8C282.3 260.6 282.4 260.3 282.6 260.1C282.8 259.9 283.1 260 283.3 260.2C285.2 262.5 286.9 265.2 288.2 268.1C288.3 268.4 288.2 268.6 288 268.8C287.8 268.7 287.8 268.8 287.7 268.8Z" fill="white"/>
<path d="M128.7 409.9C128.6 409.9 128.5 409.9 128.3 409.9C125.5 409.8 123.4 407.5 123.4 404.8C123.5 402 125.7 399.9 128.5 399.9H128.6C131.5 399.9 138.4 396.4 153 373.5C153.8 372.3 155.1 371.4 156.5 371.2C157.9 371 159.4 371.4 160.5 372.4C178.4 388 197.5 397.8 197.6 397.9C200.1 399.1 201 402.2 199.8 404.6C198.6 407.1 195.5 408 193.1 406.8C192.3 406.4 175.7 397.9 158.3 383.7C146.3 402 137.2 409.9 128.7 409.9Z" fill="#232325"/>
<path d="M159.701 371.5C159.601 371.5 159.401 371.5 159.301 371.5C157.701 371.3 156.501 369.7 156.801 368.1C157.501 363.1 156.601 344.5 150.301 330C149.701 328.7 150.201 327.1 151.401 326.3C165.101 317 194.301 315.8 195.501 315.8C197.101 315.8 198.501 317 198.601 318.7C198.701 320.4 197.401 321.7 195.701 321.8C195.401 321.8 169.901 322.8 156.801 330C162.401 344.4 163.601 362.4 162.701 368.9C162.401 370.4 161.101 371.5 159.701 371.5Z" fill="#232325"/>
<path d="M164.701 367.6C162.701 362.9 153.701 363.4 148.401 367.5C145.601 369.7 141.801 376.1 141.401 378.5C141.001 380.9 142.601 383 145.401 382.7C148.801 382.4 153.601 377.4 153.601 377.4C150.501 380.5 154.501 382.7 160.601 378.2C163.901 375.7 166.901 372.9 164.701 367.6Z" fill="#FEBD18"/>
<path d="M336.701 306.2H336.601C336.301 306.1 336.201 305.8 336.301 305.6C337.601 301 339.101 298.1 341.001 296.5C340.701 295.5 340.701 294.4 341.201 293.2C341.601 292.1 342.401 291 343.601 290.2C343.001 289.6 342.801 288.8 343.001 287.8C343.201 286.8 344.001 285.6 345.101 284.6C344.601 284.1 344.501 283.5 344.501 283.1C344.501 280.1 350.001 275.6 356.301 274.7C356.601 274.6 356.801 274.9 356.901 275.1C356.901 275.4 356.701 275.6 356.501 275.7C350.601 276.5 345.601 280.8 345.601 283.1C345.601 283.5 345.701 283.8 346.001 284C348.301 282.4 351.601 281.4 355.301 282.1C358.401 282.7 359.601 283.3 359.501 284.3C359.201 286.1 352.701 286.4 348.301 285.9C347.301 285.8 346.601 285.5 346.101 285.3C345.001 286.2 344.301 287.2 344.101 288C343.901 288.7 344.201 289.3 344.601 289.6C346.501 288.6 349.101 288.2 352.501 289C357.001 290 357.201 290.6 357.301 290.9C357.401 291.1 357.301 291.4 357.101 291.6C356.101 292.6 349.201 292.1 345.701 291.3C345.201 291.2 344.801 291 344.501 290.8C343.301 291.5 342.601 292.5 342.201 293.5C341.901 294.3 341.801 295.1 342.001 295.8C342.201 295.7 342.401 295.6 342.601 295.5C344.701 294.5 347.201 294.7 350.301 296C352.301 296.9 353.301 297.7 353.401 298.4C353.401 298.6 353.401 299.1 352.801 299.4C351.301 300.4 345.901 300.3 343.201 298.8C342.501 298.5 342.001 297.9 341.701 297.3C340.101 298.8 338.701 301.5 337.501 305.7C337.101 306 336.901 306.2 336.701 306.2ZM342.101 296.8C342.401 297.3 342.801 297.7 343.301 298C345.601 299.2 350.001 299.5 351.701 298.8C352.001 298.7 352.101 298.5 352.101 298.5C352.101 298.5 352.001 297.9 349.601 296.9C346.801 295.7 344.601 295.5 342.801 296.4C342.601 296.6 342.301 296.7 342.101 296.8ZM345.501 290.3C345.601 290.3 345.701 290.3 345.801 290.4C349.301 291.3 354.101 291.4 355.701 291.1C355.201 290.9 354.201 290.5 352.101 290.1C349.201 289.4 347.101 289.6 345.501 290.3ZM346.701 284.6C347.201 284.8 347.701 284.9 348.101 284.9C353.101 285.5 357.501 284.8 358.101 284.2C357.901 284 357.301 283.6 354.801 283.1C351.601 282.6 348.701 283.4 346.701 284.6Z" fill="#232325"/>
<path d="M206.5 408.2C207.2 408 206.9 407.4 206.2 407.4H192.7C166.9 404.7 148.9 408.3 160.3 409.2C171.7 410.1 159.5 409.9 151.2 413C142.9 416.1 212.9 416.9 219.2 413C225 409.4 197.4 411.2 206.5 408.2Z" fill="#232325"/>
<path d="M303.501 412.2L185.701 408.3L180.801 294.1L319.901 297.2L303.501 412.2Z" fill="#FEBD18"/>
<path d="M222.5 410.1C222.2 410.1 222 409.9 222 409.6L212.6 294.9C212.6 294.6 212.8 294.4 213.1 294.4C213.4 294.4 213.6 294.6 213.6 294.9L223 409.6C223 409.8 222.8 410 222.5 410.1Z" fill="#232325"/>
<path d="M303.5 412.2L335.1 407.4L345.1 301.2L319.9 297.2L303.5 412.2Z" fill="#FEBD18"/>
<path opacity="0.2" d="M303.5 412.2L335.1 407.4L345.1 301.2L319.9 297.2L303.5 412.2Z" fill="black"/>
<path d="M195.7 386.3L192.8 318.4C192.5 311.3 198.2 305.5 205.3 305.6L293.4 307.6C300.8 307.8 306.3 314.3 305.3 321.6L295.5 390C294.6 396.2 289.2 400.7 282.9 400.5L207.5 398C201.2 397.8 196 392.7 195.7 386.3Z" fill="#232325"/>
<path d="M284.001 373.2C283.601 373.2 283.301 373.1 283.001 372.8L274.401 363.4L265.201 371.8C264.701 372.3 263.801 372.3 263.301 371.7L254.701 362.3L245.501 370.7C245.001 371.2 244.101 371.2 243.601 370.6L235.001 361.2L225.801 369.6C225.501 369.8 225.201 370 224.901 369.9C224.601 369.9 224.201 369.7 224.001 369.5L215.401 360.1L206.201 368.5C205.701 369 204.801 369 204.301 368.4C203.801 367.9 203.801 367 204.401 366.5L214.601 357.2C215.101 356.7 216.001 356.7 216.501 357.3L225.101 366.7L234.301 358.3C234.601 358.1 234.901 357.9 235.201 358C235.501 358 235.901 358.2 236.101 358.4L244.701 367.8L253.901 359.4C254.401 358.9 255.301 358.9 255.801 359.5L264.401 368.9L273.601 360.5C274.101 360 275.001 360 275.501 360.6L285.001 371C285.501 371.5 285.501 372.4 284.901 372.9C284.601 373 284.301 373.2 284.001 373.2Z" fill="white"/>
<path d="M125.8 414.7L119.5 411.7L113.9 384.5L116.9 381.2L125.8 414.7Z" fill="#FEBD18"/>
<path d="M125.8 414.7L134.1 409.8L126.9 387.4L116.9 381.2L125.8 414.7Z" fill="#FEBD18"/>
<path opacity="0.2" d="M125.8 414.7L134.1 409.8L126.9 387.4L116.9 381.2L125.8 414.7Z" fill="black"/>
<path d="M261.901 419.6C261.701 419.6 261.401 419.6 261.201 419.6C258.401 419.5 256.301 417.2 256.301 414.5C256.401 411.7 258.701 409.6 261.401 409.6C269.101 409.9 285.401 405.1 294.701 396.1C295.301 395.5 296.001 395.1 296.701 394.9C312.501 390.2 318.401 399.7 318.601 400.1L310.001 405.2C310.001 405.2 310.001 405.3 310.101 405.4C310.001 405.3 307.801 402.4 300.601 404.2C289.201 414.8 271.201 419.6 261.901 419.6Z" fill="#232325"/>
<path d="M261.401 426.3L243.201 425.1L241.701 391.5L266.201 392.4L261.401 426.3Z" fill="#FEBD18"/>
<path d="M261.4 426.3L265.7 422L268.3 401.1L266.2 392.4L261.4 426.3Z" fill="#FEBD18"/>
<path opacity="0.2" d="M261.4 426.3L265.7 422L268.3 401.1L266.2 392.4L261.4 426.3Z" fill="black"/>
<path d="M366.9 413.5C366.3 413.5 365.6 413.3 365.1 412.9C354.7 405 340.7 391 335.3 377.4C335.2 377.2 335.2 377 335.1 376.8C332.5 361.2 330 328.3 329.9 326.9C329.8 325.2 331 323.8 332.7 323.7C334.3 323.6 335.8 324.8 335.9 326.5C335.9 326.8 338.5 360.1 341 375.6C346.4 388.8 361 402.3 368.8 408.2C370.1 409.2 370.4 411.1 369.4 412.4C368.7 413.1 367.8 413.5 366.9 413.5Z" fill="#232325"/>
<path d="M380.801 415.1C378.501 415.1 375.901 414 373.001 412C371.701 411 371.401 409.2 372.301 407.8C373.301 406.5 375.101 406.2 376.501 407.1C379.001 408.9 380.301 409.1 380.801 409.1C382.501 409.1 383.801 410.4 383.801 412.1C383.801 413.7 382.401 415.1 380.801 415.1Z" fill="#232325"/>
<path d="M373.801 411.8C377.001 402.3 390.201 404.1 394.701 405.6C399.201 407 403.301 408.8 405.801 410.4C408.301 412 408.301 414.7 405.001 416.2C401.001 418.1 390.801 416.4 390.801 416.4C396.001 418.7 390.801 422.4 381.601 418.8C378.601 417.6 372.701 415.3 373.801 411.8Z" fill="#FEBD18"/>
<path d="M341.901 331C340.701 339.1 334.001 345.1 328.501 344.3C323.001 343.5 322.801 336.3 324.001 328.2C325.201 320.1 327.301 314.2 332.801 315C338.301 315.8 343.101 322.9 341.901 331Z" fill="#232325"/>
<path d="M209.9 298.7C210.341 298.7 210.7 298.342 210.7 297.9C210.7 297.458 210.341 297.1 209.9 297.1C209.458 297.1 209.1 297.458 209.1 297.9C209.1 298.342 209.458 298.7 209.9 298.7Z" fill="#232325"/>
<path d="M218.2 303.8C218.2 304.3 217.8 304.6 217.4 304.6C217 304.6 216.6 304.2 216.6 303.8C216.6 303.3 217 303 217.4 303C217.8 303 218.2 303.3 218.2 303.8Z" fill="#232325"/>
<path d="M219.1 400.7C219.1 401.2 218.7 401.5 218.3 401.5C217.8 401.5 217.5 401.1 217.5 400.7C217.5 400.2 217.9 399.9 218.3 399.9C218.8 399.9 219.1 400.2 219.1 400.7Z" fill="#232325"/>
<path d="M226.6 406.6C226.6 407.1 226.2 407.4 225.8 407.4C225.3 407.4 225 407 225 406.6C225 406.1 225.4 405.8 225.8 405.8C226.3 405.8 226.6 406.1 226.6 406.6Z" fill="#232325"/>
<path d="M82.5008 416.4C80.1008 416.4 76.9008 415 75.2008 412.5C75.0008 412.3 75.1008 412 75.3008 411.8C75.5008 411.6 75.8008 411.7 76.0008 411.9C77.9008 414.6 82.0008 416 83.8008 415.2C84.0008 415.1 84.1008 415 84.3008 414.9C82.7008 414.1 81.2008 412.7 80.8008 410.4C80.6008 409.1 80.4008 407.4 81.4008 407.2C82.8008 406.9 84.7008 410.3 85.4008 413C85.5008 413.5 85.6008 413.9 85.5008 414.3C86.1008 414.5 86.8008 414.5 87.3008 414.4C87.7008 414.3 88.3008 414.2 88.7008 413.7C87.5008 412.9 86.7008 411.4 86.4008 409.5C86.0008 406.8 86.3008 406.3 86.6008 406.1C86.8008 405.9 87.0008 405.9 87.3008 406C88.4008 406.5 89.7008 410.3 89.9008 412.5C89.9008 412.7 89.9008 413 89.9008 413.2C90.3008 413.4 90.8008 413.5 91.2008 413.5C92.1008 413.5 92.9008 413.3 93.6008 412.9C93.5008 412.8 93.3008 412.7 93.2008 412.6C92.2008 411.7 91.7008 410.3 91.9008 408.3C92.0008 406.7 92.4008 405.9 93.0008 405.6C93.2008 405.5 93.7008 405.4 94.2008 405.8C95.3008 406.7 96.3008 409.4 95.9008 411.4C95.8008 411.8 95.7008 412.2 95.4008 412.6C97.2008 412.9 99.8008 412.4 102.001 411.9C102.301 411.8 102.501 412 102.601 412.3C102.701 412.6 102.501 412.8 102.201 412.9C99.5008 413.6 96.6008 414.1 94.5008 413.5C93.6008 414.2 92.3008 414.7 91.0008 414.7C90.4008 414.7 89.9008 414.6 89.4008 414.4C89.0008 415.1 88.3008 415.5 87.3008 415.7C86.6008 415.8 85.9008 415.7 85.1008 415.5C84.9008 415.9 84.5008 416.2 84.1008 416.4C83.7008 416.3 83.2008 416.4 82.5008 416.4ZM81.6008 408.1C81.5008 408.3 81.4008 408.8 81.7008 410.1C82.0008 411.9 83.2008 413.2 84.5008 413.8C84.5008 413.6 84.5008 413.4 84.4008 413.1C83.7008 410.3 82.2008 408.4 81.6008 408.1ZM87.2008 407.3C87.2008 407.7 87.2008 408.3 87.4008 409.4C87.6008 410.8 88.1008 411.9 88.9008 412.6C88.7008 410.5 87.8008 408.2 87.2008 407.3ZM93.5008 406.4C93.5008 406.4 93.1008 406.6 93.0008 408.3C92.9008 410 93.2008 411.1 93.9008 411.8C94.1008 412 94.3008 412.1 94.5008 412.2C94.8008 411.9 95.0008 411.5 95.0008 411.2C95.3008 409.8 94.6008 407.6 93.8008 406.8C93.7008 406.4 93.5008 406.4 93.5008 406.4Z" fill="#232325"/>
<path d="M228.9 424L231.6 419.3L228.9 414.6H226L227.6 419.3L226 424H228.9Z" fill="#232325"/>
<path d="M226.2 421.7C224.9 421.7 223.8 420.6 223.8 419.2C223.8 417.9 224.9 416.8 226.2 416.8L221.6 415.9L220.4 419.6L222.5 422.7L226.2 421.7Z" fill="#232325"/>
<path d="M226.6 414.6H221.2L218.5 419.3L221.2 424H226.6L229.3 419.3L226.6 414.6ZM223.8 421.7C222.5 421.7 221.4 420.6 221.4 419.2C221.4 417.9 222.5 416.8 223.8 416.8C225.2 416.8 226.2 417.9 226.2 419.2C226.3 420.6 225.2 421.7 223.8 421.7Z" fill="#FEBD18"/>
<path d="M417.9 414.3L415.9 410.8L417.9 407.3H420L418.8 410.8L420 414.3H417.9Z" fill="#FEBD18"/>
<path d="M419.9 412.6C420.9 412.6 421.7 411.8 421.7 410.8C421.7 409.8 420.9 409 419.9 409L423.3 408.3L424.2 411.1L422.7 413.4L419.9 412.6Z" fill="#FEBD18"/>
<path d="M419.6 407.3H423.6L425.6 410.8L423.6 414.3H419.6L417.6 410.8L419.6 407.3ZM421.6 412.6C422.6 412.6 423.4 411.8 423.4 410.8C423.4 409.8 422.6 409 421.6 409C420.6 409 419.8 409.8 419.8 410.8C419.8 411.8 420.6 412.6 421.6 412.6Z" fill="#232325"/>
<path d="M342.901 418.9H347.401C348.601 418.9 349.501 417.9 349.501 416.8C349.501 415.6 348.501 414.7 347.401 414.7H342.901C341.701 414.7 340.801 415.7 340.801 416.8C340.801 417.9 341.801 418.9 342.901 418.9Z" fill="#232325"/>
<path d="M335.7 414.9C336.8 412.5 339.5 411.5 341.7 412.5C343.9 413.5 344.8 416.3 343.7 418.7C342.6 421.1 339.9 422.1 337.7 421.1C335.5 420 334.6 417.2 335.7 414.9Z" fill="#FEBD18"/>
<path d="M336.941 421.004L338.207 421.601L342.515 412.465L341.248 411.868L336.941 421.004Z" fill="#232325"/>
</svg>
