<svg width="40" height="40" viewBox="0 0 40 40" fill="none" xmlns="http://www.w3.org/2000/svg">
<g clip-path="url(#clip0_67_47462)">
<g opacity="0.5">
<path d="M11.9988 25.2444C10.5581 27.078 11.8644 29.7656 14.1963 29.7656H25.8041C28.136 29.7656 29.4422 27.078 28.0015 25.2444L26.3363 23.1251H13.664L11.9988 25.2444Z" fill="#0EDF8B"/>
<path d="M24.4948 20.7813H15.5055L13.664 23.1251H26.3363L24.4948 20.7813Z" fill="#2E2F31"/>
<path fill-rule="evenodd" clip-rule="evenodd" d="M14.1963 32.1094C9.90862 32.1094 7.50691 27.1678 10.1559 23.7964L14.3359 18.4764C15.1584 17.4294 15.6056 16.1365 15.6056 14.8051V7.89062H24.3947V14.8051C24.3947 16.1365 24.8419 17.4294 25.6645 18.4764L29.8444 23.7964C32.4934 27.1678 30.0917 32.1094 25.8041 32.1094H14.1963ZM14.1963 29.7656C11.8644 29.7656 10.5581 27.078 11.9988 25.2444L13.664 23.1251H13.0945V20.7813H15.5055L16.1788 19.9244C17.3258 18.4645 17.9494 16.6617 17.9494 14.8051V10.2344H22.0509V14.8051C22.0509 16.6617 22.6745 18.4645 23.8215 19.9244L24.4948 20.7813H26.9059V23.1251H26.3363L28.0015 25.2444C29.4422 27.078 28.136 29.7656 25.8041 29.7656H14.1963Z" fill="#2E2F31"/>
<path d="M26.9059 23.1251V20.7813H24.4948L26.3363 23.1251H26.9059Z" fill="#2E2F31"/>
<path d="M13.0945 20.7813V23.1251H13.664L15.5055 20.7813H13.0945Z" fill="#2E2F31"/>
</g>
<path fill-rule="evenodd" clip-rule="evenodd" d="M0 20C0 31.0457 8.95428 40 20 40C31.0457 40 40 31.0457 40 20C40 8.95428 31.0457 3.8147e-06 20 3.8147e-06C8.95428 3.8147e-06 0 8.95428 0 20ZM20 37.6563C10.2487 37.6563 2.34375 29.7513 2.34375 20C2.34375 10.2487 10.2487 2.34375 20 2.34375C29.7513 2.34375 37.6562 10.2487 37.6562 20C37.6562 29.7513 29.7513 37.6563 20 37.6563Z" fill="#2E2F31"/>
<path fill-rule="evenodd" clip-rule="evenodd" d="M7.51519 34.1421L11.6973 29.96L10.04 28.3027L5.85791 32.4849L7.51519 34.1421Z" fill="#2E2F31"/>
<path fill-rule="evenodd" clip-rule="evenodd" d="M24.2707 17.3867L34.1421 7.51519L32.4849 5.85791L22.6134 15.7294L24.2707 17.3867Z" fill="#2E2F31"/>
<path d="M10.04 28.3027L11.6973 29.96L24.2707 17.3867L22.6134 15.7294L10.04 28.3027Z" fill="#2E2F31"/>
</g>
<defs>
<clipPath id="clip0_67_47462">
<rect width="40" height="40" fill="white"/>
</clipPath>
</defs>
</svg>
