<svg width="40" height="40" viewBox="0 0 40 40" fill="none" xmlns="http://www.w3.org/2000/svg">
<g clip-path="url(#clip0_67_47443)">
<path d="M11.2726 26.8909L8.27757 23.8962L6.20818 30.1044L0 32.1738L2.99499 35.1687C4.29412 36.4679 6.14897 37.0657 7.96416 36.8042C9.76652 38.4326 11.9732 39.4751 14.385 39.8303C16.9528 40.2087 19.5828 39.779 21.9638 38.4616C23.9486 37.3633 25.8477 36.1212 27.6495 34.7485C28.0795 35.1401 28.4054 35.6366 28.5922 36.1966L29.7997 39.819L31.1392 38.4799C33.3898 36.2289 34.1155 32.8857 33.0636 29.9332L34.4503 28.5464C37.0083 25.9885 36.6598 21.7636 33.7051 19.6359C31.4187 17.9892 28.1039 18.3371 25.9954 20.4459L24.786 21.6553C21.8335 20.6033 18.49 21.3291 16.2393 23.5797L14.8999 24.9191L18.5223 26.1267C19.0268 26.2949 19.4821 26.5787 19.8547 26.9498C18.8043 28.2468 17.8228 29.5996 16.918 30.9994C16.4645 31.7013 15.7177 32.1554 14.8697 32.2455C14.1736 32.3193 13.4887 32.1481 12.9205 31.7691C13.1494 29.9832 12.55 28.1683 11.2726 26.8909ZM30.679 35.0934C30.4 34.4125 29.9951 33.7961 29.4891 33.273C30.0482 32.8006 30.5966 32.3154 31.1337 31.8167C31.2994 32.9306 31.1398 34.0704 30.679 35.0934ZM19.6255 24.0402C20.6372 23.5843 21.7633 23.4229 22.8652 23.5794C22.3571 24.0961 21.86 24.6246 21.376 25.1648C20.8673 24.689 20.2746 24.3063 19.6255 24.0402ZM15.1169 34.5737C16.6717 34.4086 18.045 33.569 18.8842 32.2702C22.3788 26.864 25.7833 24.0936 27.6507 22.1015C28.9569 20.7956 30.9713 20.5524 32.337 21.5357C34.1808 22.8638 34.2822 25.4034 32.7947 26.8909C31.4691 28.0856 27.8237 32.543 20.83 36.4133C17.0517 38.5043 12.2519 37.8036 9.1577 34.7095L8.68162 34.2334C8.45823 34.245 6.35253 35.2151 4.65026 33.5132L4.3341 33.197L8.05907 31.9553L9.30082 28.2303L9.61699 28.5464C11.3284 30.2579 10.3494 32.3462 10.3372 32.5778L10.8133 33.0539C11.9491 34.1897 13.5177 34.7436 15.1169 34.5737Z" fill="#2E2F31"/>
<path d="M15.1169 34.5737C16.6717 34.4086 18.045 33.569 18.8842 32.2702C22.3788 26.864 25.7833 24.0936 27.6507 22.1015C28.9569 20.7956 30.9713 20.5524 32.337 21.5357C34.1808 22.8638 34.2822 25.4034 32.7947 26.8909C31.4691 28.0856 27.8237 32.543 20.83 36.4133C17.0517 38.5043 12.2519 37.8036 9.1577 34.7095L8.68162 34.2334C8.45823 34.245 6.35253 35.2151 4.65026 33.5132L4.3341 33.197L8.05907 31.9553L9.30082 28.2303L9.61699 28.5464C11.3284 30.2579 10.3494 32.3462 10.3372 32.5778L10.8133 33.0539C11.9491 34.1897 13.5177 34.7436 15.1169 34.5737Z" fill="#FF7479"/>
<path d="M32.0356 3.15803C30.2332 1.52962 28.0265 0.487445 25.6147 0.132221C22.9771 -0.256572 20.3562 0.216755 18.036 1.50063C16.0511 2.59926 14.152 3.84102 12.3502 5.21369C11.9203 4.82246 11.5943 4.32594 11.4076 3.76564L10.2 0.143207L8.86057 1.48262C6.6099 3.73329 5.8842 7.07679 6.93613 10.0294L5.54942 11.4158C2.99144 13.9737 3.33995 18.1989 6.29466 20.3266C8.58957 21.9791 11.9032 21.6175 14.0043 19.5163L15.2131 18.3075C16.1057 18.6255 17.0335 18.7818 17.9566 18.7818C20.087 18.7815 22.19 17.9529 23.7604 16.3825L25.0999 15.0431L21.4774 13.8355C20.973 13.6674 20.5177 13.3835 20.145 13.0124C21.1954 11.7155 22.1769 10.3626 23.0817 8.96277C23.5352 8.26087 24.282 7.80677 25.1301 7.71674C25.8262 7.64289 26.511 7.81409 27.0792 8.19312C26.8503 9.97931 27.45 11.7939 28.7272 13.0713L31.7222 16.0663L33.7915 9.85785L39.9997 7.78846L37.005 4.79347C35.7056 3.49464 33.8508 2.8965 32.0356 3.15803ZM9.32108 4.86884C9.60001 5.55 10.005 6.16615 10.5107 6.68922C9.95188 7.16163 9.40317 7.64716 8.86606 8.14582C8.70035 7.03193 8.85996 5.8921 9.32108 4.86884ZM20.3742 15.922C19.3626 16.3779 18.2365 16.5394 17.1345 16.3828C17.6426 15.8661 18.1397 15.3379 18.6237 14.7974C19.1325 15.2732 19.7251 15.6559 20.3742 15.922ZM31.9407 8.00696L30.6989 11.7319L30.3827 11.4158C28.6713 9.70435 29.6503 7.61634 29.6625 7.3844L29.1865 6.90833C28.0506 5.77277 26.482 5.21888 24.8829 5.38856C23.328 5.55366 21.9547 6.3932 21.1155 7.69202C17.6209 13.0982 14.2164 15.8686 12.349 17.8608C11.0429 19.1666 9.02842 19.4098 7.66276 18.4266C5.81889 17.0984 5.71757 14.5588 7.20499 13.0713C8.53067 11.8766 12.176 7.4195 19.1697 3.54927C22.9481 1.45821 27.7482 2.15889 30.842 5.25276L31.3181 5.72883C31.5415 5.71723 33.6472 4.74708 35.3495 6.44904L35.6653 6.76551L31.9407 8.00696Z" fill="#2E2F31"/>
</g>
<defs>
<clipPath id="clip0_67_47443">
<rect width="40" height="40" fill="white"/>
</clipPath>
</defs>
</svg>
