<svg width="40" height="40" viewBox="0 0 40 40" fill="none" xmlns="http://www.w3.org/2000/svg">
<path fill-rule="evenodd" clip-rule="evenodd" d="M9.45312 18.75C9.45312 19.2959 9.54697 19.8222 9.72015 20.3123L11.93 19.5314C11.8441 19.2884 11.7969 19.0259 11.7969 18.75C11.7969 17.4556 12.8462 16.4062 14.1406 16.4062C15.4351 16.4062 16.4844 17.4555 16.4844 18.75C16.4844 19.0261 16.4372 19.2885 16.3513 19.5314L18.5612 20.3123C18.7344 19.8221 18.8281 19.2958 18.8281 18.75C18.8281 16.1611 16.7295 14.0625 14.1406 14.0625C11.5519 14.0625 9.45312 16.1611 9.45312 18.75Z" fill="#2E2F31"/>
<path fill-rule="evenodd" clip-rule="evenodd" d="M30.2798 20.3125C30.4532 19.8221 30.5469 19.2958 30.5469 18.75C30.5469 16.1611 28.4483 14.0625 25.8594 14.0625C24.6963 14.0625 23.632 14.4861 22.8127 15.1875C21.8084 16.0472 21.1719 17.3243 21.1719 18.75H23.5157C23.5157 17.4555 24.565 16.4062 25.8594 16.4062C27.1538 16.4062 28.2032 17.4555 28.2032 18.75C28.2032 19.0261 28.1559 19.2884 28.0701 19.5312L30.2798 20.3125Z" fill="#2E2F31"/>
<path fill-rule="evenodd" clip-rule="evenodd" d="M10.625 9.375C10.625 9.94913 10.677 10.5123 10.7769 11.0599L13.0826 10.6394C13.0121 10.2529 12.9733 9.85486 12.9692 9.4478C12.9689 9.42356 12.9688 9.3993 12.9688 9.375C12.9688 5.49947 16.1245 2.34375 20 2.34375C23.8755 2.34375 27.0313 5.49948 27.0313 9.375C27.0313 9.3993 27.0312 9.42357 27.0309 9.44781C27.0268 9.85487 26.988 10.2529 26.9175 10.6394L29.2232 11.0599C29.3231 10.5123 29.375 9.94913 29.375 9.375C29.375 4.20505 25.1699 0 20 0C14.8301 0 10.625 4.20506 10.625 9.375Z" fill="#2E2F31"/>
<path fill-rule="evenodd" clip-rule="evenodd" d="M15.3126 9.37496C15.3126 9.39932 15.3127 9.42364 15.3131 9.44793C15.3248 10.2124 15.5203 10.9355 15.8585 11.572L17.9282 10.4722C17.8664 10.356 17.8142 10.2339 17.7725 10.1069C17.6972 9.87744 17.6563 9.63172 17.6563 9.37496C17.6563 8.08053 18.7056 7.03121 20.0001 7.03121C21.2944 7.03121 22.3438 8.08054 22.3438 9.37496C22.3438 9.63181 22.3029 9.87766 22.2275 10.1073C22.1858 10.2341 22.1336 10.3561 22.0719 10.4722L24.1415 11.572C24.4797 10.9356 24.6753 10.2125 24.687 9.44799C24.6874 9.42369 24.6876 9.39934 24.6876 9.37496C24.6876 6.78609 22.5888 4.68746 20.0001 4.68746C17.4112 4.68746 15.3126 6.78611 15.3126 9.37496Z" fill="#2E2F31"/>
<path fill-rule="evenodd" clip-rule="evenodd" d="M14.1407 29.375C14.1407 32.611 16.764 35.2343 20 35.2343C23.2361 35.2343 25.8594 32.611 25.8594 29.375C25.8594 26.1642 23.2611 23.4375 20 23.4375C16.739 23.4375 14.1407 26.1642 14.1407 29.375ZM20 32.8906C18.0584 32.8906 16.4844 31.3166 16.4844 29.375C16.4844 27.4081 18.0834 25.7812 20 25.7812C21.9166 25.7812 23.5157 27.4081 23.5157 29.375C23.5157 31.3166 21.9417 32.8906 20 32.8906Z" fill="#2E2F31"/>
<path d="M14.1406 14.0625C16.7295 14.0625 18.8281 16.1611 18.8281 18.75H21.1719C21.1719 14.8744 18.0162 11.7188 14.1406 11.7188C10.2652 11.7188 7.10937 14.8745 7.10937 18.75L9.45312 18.75C9.45312 16.1611 11.5519 14.0625 14.1406 14.0625Z" fill="#FFD600"/>
<path d="M25.8594 14.0625C28.4483 14.0625 30.5469 16.1611 30.5469 18.75L32.8906 18.75C32.8906 14.8745 29.7349 11.7188 25.8594 11.7188C24.2782 11.7188 22.8172 12.2431 21.64 13.1296C22.1129 13.7591 22.5086 14.4498 22.8127 15.1875C23.632 14.4861 24.6963 14.0625 25.8594 14.0625Z" fill="#FFD600"/>
<path d="M20 2.34375C16.1245 2.34375 12.9688 5.49947 12.9688 9.375C12.9688 9.3993 12.9689 9.42356 12.9692 9.4478C13.353 9.39975 13.744 9.375 14.1406 9.375C14.5376 9.375 14.929 9.3998 15.3131 9.44793C15.3127 9.42364 15.3126 9.39932 15.3126 9.37496C15.3126 6.78611 17.4112 4.68746 20.0001 4.68746C22.5888 4.68746 24.6876 6.78609 24.6876 9.37496C24.6876 9.39934 24.6874 9.42369 24.687 9.44799C25.0711 9.39983 25.4624 9.375 25.8594 9.375C26.2561 9.375 26.6471 9.39976 27.0309 9.44781C27.0312 9.42357 27.0313 9.3993 27.0313 9.375C27.0313 5.49948 23.8755 2.34375 20 2.34375Z" fill="#FFD600"/>
<path d="M20.0001 7.03121C18.7056 7.03121 17.6563 8.08053 17.6563 9.37496C17.6563 9.63172 17.6972 9.87744 17.7725 10.1069C18.5784 10.4467 19.3271 10.8961 20.0001 11.4363C20.6726 10.8966 21.4214 10.4472 22.2275 10.1073C22.3029 9.87766 22.3438 9.63181 22.3438 9.37496C22.3438 8.08054 21.2944 7.03121 20.0001 7.03121Z" fill="#FFD600"/>
<path d="M25.8594 16.4062C24.565 16.4062 23.5157 17.4555 23.5157 18.75H28.2032C28.2032 17.4555 27.1538 16.4062 25.8594 16.4062Z" fill="#FFD600"/>
<path d="M14.1406 16.4062C12.8462 16.4062 11.7969 17.4556 11.7969 18.75H16.4844C16.4844 17.4555 15.4351 16.4062 14.1406 16.4062Z" fill="#FFD600"/>
<path fill-rule="evenodd" clip-rule="evenodd" d="M30.2918 40H9.70819L4.76562 20.065V18.75C4.76562 13.9767 8.35025 10.0259 12.9692 9.4478C13.353 9.39975 13.744 9.375 14.1406 9.375C14.5376 9.375 14.929 9.3998 15.3131 9.44793C16.1744 9.55583 16.9997 9.78099 17.7725 10.1069C18.5784 10.4467 19.3271 10.8961 20.0001 11.4363C20.6726 10.8966 21.4214 10.4472 22.2275 10.1073C23.0002 9.78134 23.8256 9.55599 24.687 9.44799C25.0711 9.39983 25.4624 9.375 25.8594 9.375C26.2561 9.375 26.6471 9.39976 27.0309 9.44781C31.6499 10.026 35.2344 13.9767 35.2344 18.75V20.065L30.2918 40ZM25.8594 11.7188C24.2782 11.7188 22.8172 12.2431 21.64 13.1296C22.1129 13.7591 22.5086 14.4498 22.8127 15.1875C23.2657 16.2863 23.5157 17.4895 23.5157 18.75L32.8906 18.75C32.8906 14.8745 29.7349 11.7188 25.8594 11.7188ZM32.5646 21.0937L28.4582 37.6562H11.5418L7.4354 21.0937H32.5646ZM7.10937 18.75C7.10937 14.8745 10.2652 11.7188 14.1406 11.7188C18.0162 11.7188 21.1719 14.8744 21.1719 18.75L7.10937 18.75ZM7.10937 18.75L5.93753 18.75V21.0937H7.4354L7.10937 19.7788V18.75Z" fill="#2E2F31"/>
<path d="M7.10937 19.7788V18.75L5.93753 18.75V21.0937H7.4354L7.10937 19.7788Z" fill="#2E2F31"/>
</svg>
