<svg width="54" height="60" viewBox="0 0 54 60" fill="none" xmlns="http://www.w3.org/2000/svg">
<rect width="52" height="59.5052" fill="#F6F4F3"/>
<path fill-rule="evenodd" clip-rule="evenodd" d="M-0.000170708 0H8.57715L-0.000170708 8.57732V0Z" fill="white"/>
<path fill-rule="evenodd" clip-rule="evenodd" d="M8.57732 8.57715H0L8.57732 -0.000170708V8.57715Z" fill="#E1DDDC"/>
<rect x="30" y="10.2529" width="24" height="12" fill="#FEBD18"/>
<path d="M35.0854 19.332H34V12.938H37.1641C37.6885 12.938 38.1455 13.1079 38.5352 13.4478C38.7607 13.6411 38.938 13.8755 39.0669 14.1509C39.1987 14.4233 39.2646 14.7192 39.2646 15.0386C39.2646 15.4194 39.1694 15.7695 38.979 16.0889C38.7886 16.4053 38.5352 16.6587 38.2188 16.8491C37.9053 17.0366 37.5552 17.1318 37.1685 17.1348H35.0854V19.332ZM37.1641 16.0493C37.4453 16.0493 37.6841 15.9512 37.8804 15.7549C38.0796 15.5557 38.1792 15.3169 38.1792 15.0386C38.1792 14.7573 38.0796 14.5186 37.8804 14.3223C37.6841 14.123 37.4453 14.0234 37.1641 14.0234H35.0854V16.0493H37.1641ZM42.2925 19.332H40.2139V12.9424H42.2881C42.9062 12.9424 43.4673 13.1021 43.9712 13.4214C44.4312 13.7085 44.7974 14.0894 45.0698 14.564C45.3452 15.0386 45.4829 15.563 45.4829 16.1372C45.4829 16.7114 45.3452 17.2358 45.0698 17.7104C44.7974 18.1851 44.4312 18.5659 43.9712 18.853C43.4673 19.1724 42.9077 19.332 42.2925 19.332ZM42.2881 18.2466C42.6777 18.2466 43.0322 18.1514 43.3516 17.9609C43.6709 17.7705 43.9243 17.5171 44.1118 17.2007C44.3022 16.8813 44.3975 16.5269 44.3975 16.1372C44.3975 15.7505 44.3037 15.3989 44.1162 15.0825C43.9287 14.7632 43.6768 14.5098 43.3604 14.3223C43.0469 14.1318 42.6938 14.0337 42.3013 14.0278H41.2993V18.2466H42.2881ZM47.7329 19.332H46.6475V12.9424H50.8223V14.0278H47.7329V15.1353H50.8223V16.2207H47.7329V19.332Z" fill="#111111"/>
</svg>
