<svg width="26" height="26" viewBox="0 0 26 26" fill="none" xmlns="http://www.w3.org/2000/svg">
<path fill-rule="evenodd" clip-rule="evenodd" d="M13.1249 6.32143C14.9781 6.32143 16.4605 7.79453 16.4605 9.58731C16.4605 11.3801 14.9781 12.8532 13.1249 12.8532C11.2717 12.8532 9.78931 11.3801 9.78931 9.58731C9.78931 7.79453 11.2717 6.32143 13.1249 6.32143ZM17.7819 9.58731C17.7819 7.04289 15.6859 5 13.1249 5C10.5639 5 8.46788 7.04289 8.46788 9.58731C8.46788 12.1317 10.5639 14.1746 13.1249 14.1746C15.6859 14.1746 17.7819 12.1317 17.7819 9.58731ZM13.1249 16.9585C16.4622 16.9585 19.3278 18.6169 20.7742 21.0032C20.9633 21.3152 21.3696 21.4149 21.6817 21.2257C21.9937 21.0366 22.0934 20.6303 21.9042 20.3182C20.2017 17.5094 16.8912 15.6371 13.1249 15.6371C9.35857 15.6371 6.04814 17.5094 4.3456 20.3182C4.15645 20.6303 4.25608 21.0366 4.56813 21.2257C4.88018 21.4149 5.28649 21.3152 5.47564 21.0032C6.92205 18.6169 9.78762 16.9585 13.1249 16.9585Z" fill="#232325" stroke="#232325" stroke-width="0.6" stroke-linecap="round"/>
</svg>
