<svg width="111" height="40" viewBox="0 0 111 40" fill="none" xmlns="http://www.w3.org/2000/svg">
<g clip-path="url(#clip0_54_195)">
<path d="M25.945 12.356L22.211 0.826599H20.071L24.8733 15.6306L24.0063 18.268L18.3473 0.826599H16.2141L22.409 19.9601H29.208L34.1537 5.57401H40.2973V19.9601H45.912V5.57401H50.8372L52.3731 0.857426H29.7302L25.945 12.356ZM58.0287 11.8354H66.7015V7.92717H58.0116V4.90951H67.3432V0.826599H53.9602L52.397 5.62197V19.9601H67.6299V15.6032H58.0116L58.0287 11.8354ZM80.6613 14.877C80.1118 15.5176 79.296 15.8327 78.2311 15.8327C77.7403 15.8574 77.2508 15.7637 76.8036 15.5592C76.3564 15.3548 75.9645 15.0457 75.661 14.6578C75.0501 13.8734 74.7497 12.4245 74.7497 10.3077C74.7497 8.59738 75.0046 7.34145 75.5143 6.53994C75.811 6.03622 76.2371 5.62172 76.7481 5.33974C77.259 5.05775 77.836 4.91864 78.4189 4.93691C78.9487 4.9305 79.4718 5.05645 79.9411 5.30342C80.3995 5.55066 80.7936 5.90267 81.0914 6.331C81.3387 6.73263 81.5218 7.17066 81.634 7.62917L86.5899 6.47486C85.9551 4.45852 84.9835 2.96282 83.6751 1.98776C82.3667 1.0127 80.5703 0.520609 78.2857 0.511475C75.3641 0.511475 73.1057 1.3598 71.5106 3.05645C69.9155 4.75309 69.1191 7.1816 69.1214 10.342C69.1214 12.7077 69.5765 14.6487 70.4867 16.1649C71.3969 17.6812 72.4754 18.7419 73.7224 19.347C74.9716 19.9498 76.5826 20.2513 78.5554 20.2513C79.9324 20.3001 81.3035 20.0465 82.5727 19.508C83.6263 19.0108 84.5357 18.2515 85.2144 17.3021C85.9745 16.2072 86.5041 14.9683 86.7708 13.6611L81.832 12.082C81.6775 13.0993 81.2689 14.0609 80.6442 14.877H80.6613ZM100.492 0.833449V7.52641H94.4368V0.826599H88.8222V19.9601H94.4368V12.2122H100.475V19.9601H106.117V0.826599L100.492 0.833449ZM7.65392 0.833449L0.984619 19.9601H8.0123L8.89631 16.7952H15.1492L13.958 12.6438H10.1182L12.8487 3.14208L18.2927 19.9601H20.5147L14.3198 0.826599L7.65392 0.833449Z" fill="#0F68A8"/>
<path d="M4.63328 39.1417C3.95911 39.1532 3.28939 39.0301 2.66302 38.7796C2.03666 38.5292 1.46614 38.1562 0.984619 37.6826L2.13485 36.2885C2.80729 36.9891 3.72587 37.3984 4.69472 37.4291C5.10855 37.4566 5.52022 37.3497 5.86884 37.1243C6.00172 37.0276 6.10868 36.8995 6.18015 36.7513C6.25163 36.603 6.28539 36.4393 6.27842 36.2748C6.28277 36.1186 6.25367 35.9632 6.19309 35.8192C6.11635 35.667 5.99795 35.5399 5.85178 35.4527C5.71429 35.3596 5.5706 35.2761 5.42172 35.2027C5.30567 35.1479 5.08041 35.0554 4.78687 34.9218L3.42161 34.3532C2.07455 33.7846 1.40102 32.8815 1.40102 31.6438C1.39324 31.2433 1.47721 30.8463 1.64646 30.4834C1.8157 30.1206 2.0657 29.8016 2.37719 29.551C3.08021 28.9784 3.96761 28.6836 4.8722 28.7221C5.45782 28.724 6.03746 28.8404 6.57878 29.0646C7.11562 29.2765 7.6018 29.5998 8.00548 30.0134L7.00201 31.2636C6.41528 30.7384 5.65839 30.4451 4.8722 30.4381C4.49569 30.4172 4.12242 30.518 3.8073 30.7259C3.68324 30.8121 3.58266 30.9281 3.51469 31.0633C3.44673 31.1985 3.41356 31.3486 3.4182 31.5C3.4104 31.64 3.43753 31.7797 3.49713 31.9065C3.55673 32.0333 3.64692 32.1431 3.75951 32.2261C4.1036 32.4507 4.47239 32.6346 4.85855 32.7742L4.97801 32.8153L6.28525 33.3736C6.86502 33.5953 7.38099 33.9578 7.78704 34.4286C8.15241 34.909 8.33732 35.5033 8.30925 36.107C8.31505 36.5198 8.22782 36.9286 8.05405 37.3029C7.88029 37.6772 7.6245 38.0072 7.30578 38.2683C6.55168 38.8782 5.60066 39.189 4.63328 39.1417Z" fill="#07619D"/>
<path d="M10.0807 38.9704V28.9104H16.2244V30.5785H12.091V32.9008H15.6168V34.5861H12.091V37.2817H16.378V38.967L10.0807 38.9704Z" fill="#07619D"/>
<path d="M22.4875 39.1416C21.8743 39.159 21.2644 39.0459 20.6979 38.8098C20.1314 38.5736 19.6211 38.2197 19.2007 37.7715C18.3315 36.8581 17.8969 35.5907 17.8969 33.9694C17.8969 32.3481 18.3519 31.0716 19.2621 30.14C19.6841 29.6807 20.1982 29.3163 20.7706 29.0707C21.343 28.8251 21.9607 28.7039 22.5831 28.7151C23.1353 28.7121 23.682 28.8262 24.1872 29.0499C24.6925 29.2736 25.1449 29.6019 25.515 30.0132L24.4569 31.284C24.2206 31.0296 23.9363 30.8247 23.6205 30.6812C23.3047 30.5378 22.9637 30.4586 22.6172 30.4482C22.2479 30.4418 21.8822 30.5235 21.5505 30.6867C21.2188 30.8498 20.9305 31.0898 20.7093 31.3868C20.1771 32.1177 19.9131 33.0107 19.9618 33.9146C19.9109 34.8244 20.1591 35.7257 20.6683 36.4801C20.8868 36.7806 21.1752 37.0228 21.5083 37.1858C21.8415 37.3488 22.2093 37.4275 22.5797 37.4152C22.9708 37.4072 23.3557 37.3157 23.7088 37.1468C24.0619 36.9779 24.3751 36.7355 24.6276 36.4356L25.6857 37.6824C25.2986 38.154 24.8092 38.5306 24.2549 38.7835C23.7007 39.0364 23.0962 39.1589 22.4875 39.1416Z" fill="#07619D"/>
<path d="M31.133 39.1417C28.5254 39.1417 27.2216 37.5763 27.2216 34.4456V28.9104H29.2319V34.6169C29.2319 35.6239 29.3957 36.3295 29.7166 36.7748C29.8808 36.9925 30.0959 37.1661 30.343 37.2802C30.5901 37.3943 30.8615 37.4454 31.133 37.429C31.409 37.4472 31.6852 37.3977 31.9379 37.2849C32.1906 37.1722 32.4122 36.9994 32.5836 36.7817C32.9158 36.3455 33.0808 35.6285 33.0785 34.6306V28.9104H35.0104V34.4456C35.0104 37.5763 33.7179 39.1417 31.133 39.1417Z" fill="#07619D"/>
<path d="M45.0996 38.9704H42.864L40.8161 35.1615H39.427V38.9704H37.4166V28.9104H40.9083C43.4113 28.9104 44.6628 29.9277 44.6628 31.9623C44.6628 33.3964 44.0279 34.3611 42.7582 34.8567L45.0996 38.9704ZM39.4133 30.5031V33.5859H40.7103C42.0414 33.5859 42.707 33.0504 42.707 31.9794C42.7262 31.7656 42.6905 31.5503 42.6032 31.3543C42.516 31.1582 42.3802 30.9878 42.2087 30.8594C41.7532 30.601 41.2324 30.482 40.7103 30.5168L39.4133 30.5031Z" fill="#07619D"/>
<path d="M46.6321 38.9704V28.9104H48.6424V38.9704H46.6321Z" fill="#07619D"/>
<path d="M53.0864 38.9704V30.5785H50.2705V28.9104H57.9399V30.5785H55.0967V38.9704H53.0864Z" fill="#07619D"/>
<path d="M61.2438 38.9704V35.2814L58.2437 28.9104H60.3735L61.353 31.3663C61.865 32.6748 62.1563 33.4135 62.2268 33.5825H62.2814C62.6944 32.5549 62.9948 31.8356 63.1791 31.3663L64.1723 28.9104H66.2612L63.2439 35.2814V38.9704H61.2438Z" fill="#07619D"/>
<path d="M74.562 39.1414C73.9489 39.1581 73.3392 39.0448 72.7728 38.8086C72.2063 38.5725 71.696 38.219 71.2751 37.7713C70.4082 36.8579 69.9747 35.5905 69.9747 33.9692C69.9747 32.3479 70.4298 31.0715 71.34 30.1398C71.761 29.6802 72.2745 29.3156 72.8464 29.07C73.4183 28.8243 74.0356 28.7033 74.6576 28.7149C75.2096 28.7101 75.7564 28.8224 76.2623 29.0443C76.7681 29.2662 77.2215 29.5929 77.5929 30.0028L76.5348 31.2735C76.2991 31.0192 76.0154 30.8143 75.7002 30.6709C75.385 30.5274 75.0445 30.4482 74.6985 30.4378C74.3287 30.4313 73.9626 30.513 73.6303 30.6762C73.298 30.8393 73.0091 31.0793 72.7872 31.3763C72.255 32.1072 71.991 33.0002 72.0397 33.9041C71.9887 34.8139 72.237 35.7153 72.7462 36.4697C72.9651 36.7697 73.2536 37.0116 73.5866 37.1745C73.9197 37.3375 74.2873 37.4165 74.6576 37.4048C75.0485 37.3959 75.4331 37.304 75.7861 37.1352C76.1391 36.9663 76.4524 36.7243 76.7055 36.4251L77.7636 37.6719C77.3768 38.1455 76.8872 38.5241 76.3324 38.7787C75.7775 39.0334 75.172 39.1575 74.562 39.1414Z" fill="#07619D"/>
<path d="M86.5899 37.7406C86.1748 38.1866 85.6728 38.5422 85.115 38.7853C84.5572 39.0284 83.9556 39.1538 83.3474 39.1538C82.7393 39.1538 82.1377 39.0284 81.5799 38.7853C81.0221 38.5422 80.5201 38.1866 80.1049 37.7406C79.279 36.7998 78.866 35.5199 78.866 33.9009C78.866 32.2819 79.2767 31.0168 80.0981 30.1057C80.5206 29.6688 81.0262 29.3215 81.585 29.0843C82.1437 28.8471 82.7442 28.7249 83.3509 28.7249C83.9575 28.7249 84.558 28.8471 85.1167 29.0843C85.6755 29.3215 86.1811 29.6688 86.6036 30.1057C87.4227 31.0191 87.8323 32.2842 87.8323 33.9009C87.8323 35.5176 87.4182 36.7975 86.5899 37.7406ZM81.5658 36.4664C81.7556 36.7649 82.0191 37.0091 82.3306 37.1753C82.6422 37.3416 82.9913 37.4242 83.344 37.4152C83.6978 37.4227 84.0477 37.3391 84.3602 37.1724C84.6726 37.0057 84.9374 36.7615 85.1291 36.463C85.6039 35.6964 85.8338 34.8024 85.7878 33.9009C85.8382 33.0098 85.6077 32.1254 85.1291 31.373C84.9268 31.0881 84.6595 30.8559 84.3496 30.6956C84.0397 30.5353 83.6961 30.4517 83.3474 30.4517C82.9988 30.4517 82.6552 30.5353 82.3453 30.6956C82.0354 30.8559 81.7681 31.0881 81.5658 31.373C81.0887 32.1284 80.8595 33.0149 80.9104 33.9077C80.8642 34.8077 81.0928 35.7004 81.5658 36.4664Z" fill="#07619D"/>
<path d="M97.4779 38.9704H95.2457L93.1808 35.1615H91.7916V38.9704H89.7847V28.9104H93.2729C95.7895 28.9104 97.0467 29.9277 97.0445 31.9623C97.0445 33.3964 96.4096 34.3611 95.1399 34.8567L97.4779 38.9704ZM91.7916 30.5031V33.5859H93.0954C94.4266 33.5859 95.0921 33.0504 95.0921 31.9794C95.112 31.7658 95.077 31.5507 94.9903 31.3546C94.9037 31.1585 94.7683 30.988 94.5972 30.8594C94.1405 30.6009 93.6186 30.4819 93.0954 30.5168L91.7916 30.5031Z" fill="#07619D"/>
<path d="M99.0138 38.9704V28.9104H102.311C104.928 28.9104 106.236 29.9631 106.236 32.0685C106.236 33.1646 105.878 33.9969 105.161 34.5587C104.35 35.1486 103.363 35.4456 102.362 35.4013H101.028V38.9704H99.0138ZM101.024 33.8085H102.226C103.591 33.8085 104.273 33.2262 104.273 32.0685C104.295 31.8397 104.26 31.6091 104.17 31.3978C104.08 31.1865 103.938 31.0014 103.758 30.8594C103.273 30.5928 102.722 30.4738 102.171 30.5168H101.034L101.024 33.8085Z" fill="#07619D"/>
<path d="M109.898 38.7786C109.785 38.9003 109.647 38.9967 109.495 39.0616C109.342 39.1265 109.177 39.1585 109.011 39.1553C108.846 39.1588 108.682 39.127 108.53 39.062C108.378 38.9971 108.242 38.9004 108.13 38.7786C107.906 38.5238 107.782 38.1955 107.782 37.8555C107.782 37.5154 107.906 37.1871 108.13 36.9324C108.242 36.8098 108.378 36.7127 108.53 36.6477C108.682 36.5826 108.846 36.5512 109.011 36.5556C109.177 36.5516 109.342 36.5831 109.495 36.6481C109.648 36.7131 109.786 36.81 109.898 36.9324C110.128 37.1847 110.255 37.5139 110.255 37.8555C110.255 38.197 110.128 38.5262 109.898 38.7786Z" fill="#07619D"/>
</g>
<defs>
<clipPath id="clip0_54_195">
<rect width="109.269" height="38.6438" fill="white" transform="translate(0.984619 0.511475)"/>
</clipPath>
</defs>
</svg>
