<svg width="36" height="36" viewBox="0 0 36 36" fill="none" xmlns="http://www.w3.org/2000/svg">
<circle opacity="0.1" cx="17.5227" cy="17.8582" r="13.1418" fill="#232325"/>
<path d="M2.13219 13.388C2.36184 12.1697 3.42604 11.2874 4.66578 11.2874L32.8904 11.2874C34.5057 11.2874 35.7231 12.7565 35.4238 14.3439C34.8787 17.2356 34.4384 19.5715 33.868 22.5973C33.6384 23.8156 32.574 24.6991 31.3342 24.6991H3.10962C1.49429 24.6991 0.276803 23.2307 0.576028 21.6433L2.13219 13.388Z" fill="#232325"/>
<path d="M3.90168 14.5435H5.44938C6.13099 14.5435 6.64064 14.6748 6.97832 14.9375C7.36603 15.2376 7.55988 15.6691 7.55988 16.2319C7.55988 16.7885 7.32538 17.1981 6.85638 17.4607C7.1753 17.5107 7.44732 17.6421 7.67244 17.8547C7.9726 18.1423 8.12268 18.5332 8.12268 19.0272C8.12268 19.5524 7.94446 19.9745 7.58802 20.2935C7.20657 20.6311 6.67816 20.8 6.0028 20.8H3.90168L3.90168 14.5435ZM5.12108 15.5378V17.1418H5.46814C5.53067 17.1418 5.58695 17.1418 5.63698 17.1418C5.69326 17.1355 5.77143 17.1168 5.87148 17.0855C5.97779 17.0542 6.06533 17.0136 6.13412 16.9636C6.20916 16.9073 6.27482 16.826 6.3311 16.7197C6.38738 16.6071 6.41552 16.4758 6.41552 16.3257C6.41552 16.0568 6.32797 15.8599 6.15288 15.7348C5.97779 15.6035 5.75267 15.5378 5.47752 15.5378H5.12108ZM5.12108 18.0798V19.8057H5.64636C6.00905 19.8057 6.28733 19.7494 6.48118 19.6369C6.73757 19.4868 6.86576 19.246 6.86576 18.9146C6.86576 18.5769 6.71255 18.3393 6.40614 18.2017C6.23105 18.1204 5.95277 18.0798 5.57132 18.0798H5.12108ZM9.25121 14.5435H11.0616C11.7494 14.5435 12.281 14.6999 12.6562 15.0125C13.0689 15.3627 13.2752 15.8317 13.2752 16.4195C13.2752 17.0699 13.0314 17.5608 12.5436 17.8922C12.356 18.0235 12.1277 18.1142 11.8589 18.1642L13.8099 20.8H12.2903L10.6207 18.2861H10.4706V20.8H9.25121V14.5435ZM10.4706 15.5378V17.4232H10.8177C10.9177 17.4232 11.0147 17.4169 11.1085 17.4044C11.2085 17.3857 11.3367 17.3513 11.493 17.3012C11.6494 17.245 11.7744 17.148 11.8682 17.0105C11.9683 16.8666 12.0183 16.6884 12.0183 16.4758C12.0183 16.2632 11.9714 16.0881 11.8776 15.9505C11.7838 15.8067 11.6587 15.7098 11.5024 15.6597C11.3461 15.6035 11.221 15.5691 11.1272 15.5566C11.0334 15.5441 10.9365 15.5378 10.8364 15.5378H10.4706ZM18.8959 20.8L18.3425 19.4868H15.8193L15.2658 20.8H13.9433L16.6541 14.4122H17.5733L20.2091 20.8H18.8959ZM16.2038 18.4925H17.986L17.1043 16.2413L16.2038 18.4925ZM22.159 20.8H20.9396V14.4028H21.7838L25.5921 18.7551V14.5435H26.8115V20.9219H25.9673L22.159 16.5696V20.8ZM28.2402 14.5435H29.8723C30.3663 14.5435 30.7978 14.5873 31.1668 14.6748C31.5357 14.7561 31.8797 14.9156 32.1986 15.1532C32.58 15.4409 32.8739 15.8036 33.0803 16.2413C33.2929 16.679 33.3992 17.1574 33.3992 17.6764C33.3992 18.7708 32.9802 19.6119 32.1423 20.1997C31.8046 20.4373 31.4607 20.5968 31.1105 20.678C30.7603 20.7593 30.3413 20.8 29.8536 20.8H28.2402V14.5435ZM29.4596 15.5941V19.7494H29.8348C30.4727 19.7494 30.9823 19.6119 31.3638 19.3367C31.6076 19.1616 31.7984 18.9271 31.9359 18.6332C32.0735 18.333 32.1423 18.0141 32.1423 17.6764C32.1423 17.345 32.0735 17.0324 31.9359 16.7384C31.8046 16.4383 31.617 16.1944 31.3731 16.0068C31.0042 15.7317 30.4914 15.5941 29.8348 15.5941H29.4596Z" fill="white"/>
</svg>
