<svg width="26" height="26" viewBox="0 0 26 26" fill="none" xmlns="http://www.w3.org/2000/svg">
<path d="M13.4913 22.7168C12.7817 22.3446 11.9711 22.2113 11.1797 22.3366C11.2081 22.5264 11.2612 22.7117 11.3378 22.8877C11.4115 22.9539 11.4573 23.0455 11.466 23.1441C11.9198 24.0647 13.5106 24.488 14.5937 24.349C14.575 24.0026 14.4626 23.6678 14.2684 23.3803C14.0743 23.0928 13.8056 22.8635 13.4913 22.7168Z" fill="#FF8336"/>
<path d="M13.7485 19.7858C12.2578 19.838 11.2781 20.8849 11.1934 21.7299C11.9796 21.6242 12.8 21.9125 13.4921 21.4179C13.8061 21.2696 14.0743 21.0394 14.2684 20.7513C14.4624 20.4633 14.5751 20.1282 14.5945 19.7815C14.3128 19.7616 14.03 19.763 13.7485 19.7858Z" fill="#FF8336"/>
<path d="M23.6699 7.08665C23.6507 7.03405 23.6213 6.98576 23.5834 6.94457C23.5455 6.90339 23.4998 6.87012 23.4489 6.84668C23.3981 6.82325 23.3431 6.81011 23.2872 6.80803C23.2312 6.80595 23.1754 6.81497 23.123 6.83457L18.5751 8.5011C18.5616 8.43239 18.5401 8.36549 18.5112 8.3017L20.2132 6.97555C20.5486 6.71033 20.8173 6.37023 20.9976 5.9825C21.178 5.59476 21.265 5.17018 21.2517 4.74276C21.2384 4.31535 21.1251 3.89699 20.921 3.52122C20.717 3.14544 20.4277 2.8227 20.0764 2.57884L18.7903 1.69864C18.6963 1.63461 18.5807 1.61057 18.4689 1.63181C18.3571 1.65304 18.2583 1.71781 18.1943 1.81186C18.1303 1.90592 18.1062 2.02156 18.1275 2.13334C18.1487 2.24512 18.2135 2.34389 18.3075 2.40792L19.5936 3.28386C19.8352 3.45074 20.0342 3.67202 20.1747 3.92988C20.3151 4.18773 20.393 4.47496 20.4022 4.76844C20.4113 5.06191 20.3514 5.35344 20.2273 5.61953C20.1032 5.88563 19.9183 6.11887 19.6876 6.30047L17.8238 7.75461C14.2934 6.34296 7.84299 5.57104 4.33059 10.0611C4.61685 10.8045 5.6124 13.0733 7.34716 13.9151C7.44693 13.9657 7.52287 14.0534 7.55865 14.1594C7.59443 14.2654 7.5872 14.3812 7.53851 14.4819C7.48983 14.5827 7.40357 14.6603 7.29828 14.6981C7.19298 14.7359 7.07706 14.7309 6.97541 14.6842C5.27485 13.8553 4.23229 11.9752 3.74091 10.8771C0.885857 15.3752 2.34389 20.5063 7.58652 22.2171L7.93682 21.495C7.9865 21.3937 8.07428 21.3161 8.18098 21.2793C8.28767 21.2424 8.40461 21.2493 8.50624 21.2985C8.60787 21.3476 8.68592 21.4349 8.72334 21.5414C8.76076 21.6479 8.75451 21.7649 8.70595 21.8668L8.42393 22.4521C9.15553 22.6449 9.90667 22.7538 10.6629 22.7769C10.5948 22.5422 10.5603 22.2991 10.5603 22.0548C10.5662 21.7208 10.6328 21.3907 10.7569 21.0806C8.84694 20.3029 8.37694 19.051 8.27867 18.6792C8.25378 18.5757 8.21441 18.471 8.18893 18.3673L4.80487 18.8032C4.69315 18.8152 4.58115 18.7829 4.49301 18.7132C4.40487 18.6435 4.34763 18.542 4.33362 18.4305C4.31962 18.319 4.34997 18.2065 4.41814 18.1171C4.48631 18.0278 4.58684 17.9688 4.69807 17.9529L8.0522 17.5256C8.02121 16.9182 8.18759 16.3172 8.52648 15.8122C9.21014 14.7782 10.5219 14.1586 11.7866 13.7869C10.0861 11.6163 10.2954 8.83042 10.3083 8.70649C10.32 8.59482 10.375 8.49221 10.4616 8.42069C10.5481 8.34916 10.6593 8.31443 10.7712 8.32395C10.883 8.33346 10.9867 8.38646 11.0599 8.47158C11.1332 8.55669 11.1701 8.66712 11.1628 8.77916C11.1585 8.80906 10.9492 11.6205 12.7053 13.5519C13.0008 13.4859 13.2888 13.4361 13.5784 13.3927L14.4912 14.7539L14.2007 16.0998C14.1771 16.2108 14.1985 16.3266 14.2602 16.4218C14.3219 16.517 14.4189 16.5839 14.5298 16.6077C14.6408 16.6314 14.7566 16.6102 14.852 16.5486C14.9473 16.4871 15.0142 16.3902 15.0382 16.2793L15.3629 14.7539C15.3757 14.6985 15.377 14.6412 15.3667 14.5853C15.3564 14.5294 15.3348 14.4763 15.3031 14.4291L14.521 13.2619C14.8077 13.225 15.0911 13.1654 15.3684 13.0836L16.9738 14.5445L17.6104 16.4203C17.6487 16.5261 17.727 16.6126 17.8284 16.6612C17.9299 16.7098 18.0463 16.7166 18.1528 16.6802C18.2592 16.6438 18.3471 16.5671 18.3975 16.4665C18.4479 16.3659 18.4568 16.2496 18.4222 16.1425C18.3721 16.0679 17.7213 13.9299 17.6318 13.9848L16.2645 12.7457C16.8767 12.4114 17.401 11.9367 17.7943 11.3606C18.1875 10.7844 18.4385 10.1232 18.5267 9.43129L23.4178 7.63358C23.5235 7.59409 23.6093 7.51446 23.6565 7.41202C23.7037 7.30958 23.7085 7.19263 23.6699 7.08665ZM16.2944 8.62532C16.2927 8.73752 16.247 8.84456 16.167 8.9233C16.0871 9.00205 15.9794 9.04619 15.8672 9.04619C15.7549 9.04619 15.6472 9.00205 15.5673 8.9233C15.4873 8.84456 15.4416 8.73752 15.4399 8.62532V8.06133C15.4413 7.94898 15.487 7.84172 15.567 7.76279C15.647 7.68386 15.7548 7.6396 15.8672 7.6396C15.9795 7.6396 16.0874 7.68386 16.1673 7.76279C16.2473 7.84172 16.293 7.94898 16.2944 8.06133V8.62532Z" fill="#FF8336"/>
</svg>
