<svg width="20" height="20" viewBox="0 0 20 20" fill="none" xmlns="http://www.w3.org/2000/svg">
<path fill-rule="evenodd" clip-rule="evenodd" d="M1.66797 9.99996C1.66797 5.40746 5.4088 1.66663 10.0013 1.66663C14.5938 1.66663 18.3346 5.40746 18.3346 9.99996C18.3346 14.5925 14.5938 18.3333 10.0013 18.3333C5.4088 18.3333 1.66797 14.5925 1.66797 9.99996ZM16.668 9.99996C16.668 6.30819 13.6931 3.33329 10.0013 3.33329C6.30953 3.33329 3.33464 6.30819 3.33464 9.99996C3.33464 13.6917 6.30953 16.6666 10.0013 16.6666C13.6931 16.6666 16.668 13.6917 16.668 9.99996Z" fill="#FEBD18"/>
<path d="M9.16797 4.99996V10.345L12.7454 13.9225L13.9238 12.7441L10.8346 9.65491V4.99996H9.16797Z" fill="#232325"/>
</svg>
