<svg width="17" height="16" viewBox="0 0 17 16" fill="none" xmlns="http://www.w3.org/2000/svg">
<path opacity="0.15" d="M14.2901 8C14.2901 4.56356 11.5043 1.77778 8.06787 1.77778C4.63143 1.77778 1.84565 4.56356 1.84565 8C1.84565 11.4364 4.63143 14.2222 8.06787 14.2222V16C3.64959 16 0.0678711 12.4183 0.0678711 8C0.0678711 3.58172 3.64959 0 8.06787 0C12.4861 0 16.0679 3.58172 16.0679 8C16.0679 12.4183 12.4861 16 8.06787 16V14.2222C11.5043 14.2222 14.2901 11.4364 14.2901 8Z" fill="#232325"/>
<path d="M7.02063 9.21029C7.02063 8.86896 7.12148 8.54314 7.32318 8.23284C7.53263 7.92254 7.7576 7.67429 7.99809 7.48811C8.23857 7.29417 8.45966 7.0692 8.66136 6.8132C8.87081 6.5572 8.97554 6.3012 8.97554 6.0452C8.97554 5.77369 8.88245 5.56423 8.69627 5.41684C8.51009 5.26944 8.25021 5.19575 7.91663 5.19575C7.265 5.19575 6.80342 5.54096 6.5319 6.23138L5.15881 5.44011C5.39154 4.86605 5.76003 4.42387 6.26427 4.11357C6.77627 3.7955 7.34645 3.63647 7.97481 3.63647C8.68075 3.63647 9.28972 3.84205 9.80172 4.2532C10.3215 4.6566 10.5814 5.21514 10.5814 5.92884C10.5814 6.25466 10.5115 6.5572 10.3719 6.83647C10.24 7.11575 10.0771 7.35623 9.88318 7.55793C9.697 7.75187 9.50693 7.93805 9.313 8.11647C9.12681 8.28714 8.9639 8.46557 8.82427 8.65175C8.69239 8.83793 8.62645 9.02411 8.62645 9.21029H7.02063ZM8.52172 11.8052C8.32778 11.9991 8.09506 12.0961 7.82354 12.0961C7.55203 12.0961 7.3193 11.9991 7.12536 11.8052C6.93142 11.6113 6.83445 11.3785 6.83445 11.107C6.83445 10.8355 6.93142 10.6028 7.12536 10.4088C7.3193 10.2149 7.55203 10.1179 7.82354 10.1179C8.09506 10.1179 8.32778 10.2149 8.52172 10.4088C8.71566 10.6028 8.81263 10.8355 8.81263 11.107C8.81263 11.3785 8.71566 11.6113 8.52172 11.8052Z" fill="#232325"/>
</svg>
