<svg width="36" height="36" viewBox="0 0 36 36" fill="none" xmlns="http://www.w3.org/2000/svg">
<circle cx="18" cy="18" r="17.5" stroke="#E9E9E9"/>
<path d="M20.9636 13.2297C23.3993 12.7024 25.4333 11.5473 26.5884 10.0156C26.7391 9.81467 26.5884 9.53845 26.3373 9.53845H9.66376C9.41265 9.53845 9.26199 9.81467 9.41265 10.0156C10.5677 11.5222 12.5766 12.7024 15.0375 13.2297C15.163 13.2548 15.2635 13.3804 15.2635 13.5311V13.834C15.2635 14.0097 15.1379 14.1353 14.9621 14.1353H12.8277C12.0242 14.1353 11.3462 14.6375 11.2457 15.3406L9.86464 24.2549C9.73909 25.0836 10.4924 25.8118 11.4466 25.8118H12.7775C12.8779 25.8118 12.9784 25.8871 12.9784 25.9876V26.4647C12.9784 26.5651 13.0537 26.6404 13.1793 26.6404H22.8469C22.9473 26.6404 23.0478 26.5651 23.0478 26.4647V25.9876C23.0478 25.8871 23.1231 25.8118 23.2487 25.8118H24.5795C25.5589 25.8118 26.2871 25.0836 26.1615 24.2549L24.7553 15.2904C24.6549 14.6124 23.9769 14.0851 23.1733 14.0851H21.0389C20.8631 14.0851 20.7376 13.9595 20.7376 13.7838V13.4808C20.7376 13.3804 20.838 13.2548 20.9636 13.2297ZM22.2693 19.961C22.2693 22.3214 20.3609 24.2298 18.0005 24.2298C15.6401 24.2298 13.7317 22.3214 13.7317 19.961C13.7317 17.6006 15.6401 15.6922 18.0005 15.6922C20.3609 15.6922 22.2693 17.6006 22.2693 19.961Z" fill="#7936FF"/>
<path d="M18.4268 19.0821L18.1506 16.5962C18.1255 16.4204 17.8995 16.4204 17.8743 16.5962L17.5981 19.0821C17.5981 19.1575 17.5479 19.2328 17.4977 19.283C17.2717 19.4839 17.121 19.7852 17.1964 20.1117C17.2717 20.4381 17.5228 20.6892 17.8241 20.7646C18.3766 20.8901 18.8788 20.4632 18.8788 19.9359C18.8788 19.6597 18.7532 19.4337 18.5523 19.2579C18.477 19.2579 18.4268 19.1826 18.4268 19.0821Z" fill="#7936FF"/>
</svg>
