<svg width="19" height="23" viewBox="0 0 19 23" fill="none" xmlns="http://www.w3.org/2000/svg">
<path fill-rule="evenodd" clip-rule="evenodd" d="M12.9108 9.19862V9.41244V9.4362C12.9108 9.59887 13.026 9.73477 13.1785 9.76741C13.2217 9.78713 13.2691 9.79798 13.3203 9.79798C13.3717 9.79798 13.4189 9.79852 13.4611 9.7958C13.5566 9.80348 13.6553 9.79798 13.7714 9.79798C13.9557 9.79798 14.1048 9.65126 14.1095 9.46854L14.1199 9.45036L14.1353 9.43249C14.1933 9.37175 14.2281 9.28918 14.2281 9.19862V9.11232V9.10336C14.2281 9.04021 14.2118 8.98225 14.1816 8.93172C14.1631 8.88428 14.1329 8.84204 14.0962 8.80784L14.0818 8.79274L14.07 8.78136L14.0642 8.77579L14.0629 8.77424L14.0497 8.76163L14.0342 8.74531L14.0226 8.73392L14.0167 8.72835L14.0154 8.7268L14.0019 8.71388C13.9677 8.67566 13.9252 8.64548 13.8765 8.62512C13.8257 8.59401 13.7643 8.5752 13.6999 8.5752C13.5342 8.5752 13.4035 8.5838 13.2972 8.64609C13.169 8.67721 13.0717 8.74871 12.9936 8.90555C12.9807 8.93141 12.973 8.96037 12.9672 8.98967C12.932 9.043 12.9108 9.10584 12.9108 9.17455V9.19862ZM10.8514 8.79429C9.91401 8.79429 10.0635 10.3619 10.4003 10.9341C10.7602 11.5448 12.5684 11.6228 13.3203 11.8851C13.8217 12.06 16.1925 15.3659 16.1925 12.8597C16.1925 12.0191 15.975 11.8613 16.9047 11.8613C18.2032 11.8613 19.1394 12.1239 18.068 10.5775C16.6902 8.58968 16.6557 8.14193 14.2222 7.05852C11.9475 6.04624 10.9226 5.79419 10.8514 8.79429Z" fill="#ED1E26"/>
<path fill-rule="evenodd" clip-rule="evenodd" d="M1.9883 11.164C3.6585 14.3219 8.4773 10.4882 8.70196 8.94959C8.81379 8.18324 7.85945 11.0897 9.66711 11.0897C11.8251 11.0897 8.92319 11.6931 8.26564 12.7466C6.29534 15.903 8.43265 19.7166 8.2946 19.5539C7.89644 19.084 5.39951 15.0383 4.68184 15.6222C4.48985 15.7788 4.1198 16.5242 3.88803 16.5242C3.82889 16.5242 2.42374 14.4954 1.66629 14.2189C1.22441 14.0581 1.18834 15.5853 1.01764 13.9197C0.886396 12.636 1.51314 11.6373 2.04378 10.9242C4.16475 10.9242 5.29968 10.5951 7.04412 9.42171C8.18115 8.65715 9.17864 8.14501 10.1157 7.20393C11.0137 6.30168 9.725 6.48872 9.09175 6.48872C7.2256 6.48872 6.00723 6.79906 4.44457 7.69146C3.50783 8.22666 2.99475 8.76224 2.28845 9.73319C2.10848 9.98037 1.92978 11.359 1.9883 11.164Z" fill="#ED1E26"/>
<path d="M1.9883 11.164C3.6585 14.3219 8.4773 10.4882 8.70196 8.94959C8.81379 8.18324 7.85945 11.0897 9.66711 11.0897C11.8251 11.0897 8.92319 11.6931 8.26564 12.7466C6.29534 15.903 8.43265 19.7166 8.2946 19.5539C7.89644 19.084 5.39951 15.0383 4.68184 15.6222C4.48985 15.7788 4.1198 16.5242 3.88803 16.5242C3.82889 16.5242 2.42374 14.4954 1.66629 14.2189C1.22441 14.0581 1.18834 15.5853 1.01764 13.9197C0.886396 12.636 1.51314 11.6373 2.04378 10.9242C4.16475 10.9242 5.29968 10.5951 7.04412 9.42171C8.18115 8.65715 9.17864 8.14501 10.1157 7.20393C11.0137 6.30168 9.725 6.48872 9.09175 6.48872C7.2256 6.48872 6.00723 6.79906 4.44457 7.69146C3.50783 8.22666 2.99475 8.76224 2.28845 9.73319C2.10848 9.98037 1.92978 11.359 1.9883 11.164Z" stroke="#ED1E26" stroke-width="0.0339044" stroke-miterlimit="22.9256"/>
<path fill-rule="evenodd" clip-rule="evenodd" d="M1.09509 15.2617C2.03246 16.9156 3.43546 19.6836 5.89014 20.4444C6.91045 20.7606 7.75204 20.5514 8.12178 19.5887C8.31866 19.0763 9.17347 20.7344 9.97346 20.825C11.8143 21.0339 14.2536 19.6784 13.7954 19.2319C12.6669 18.133 12.3077 15.0155 12.822 14.8337C13.8043 14.487 14.7211 17.5179 14.7211 18.2094C14.7211 19.365 15.6006 17.8098 16.7626 17.0687C17.5443 16.5695 18.4771 16.2539 18.7313 16.4397C19.1215 16.7251 17.8155 19.4445 15.6945 19.6365C15.6006 19.6448 15.4295 19.5952 15.4126 19.6913C14.9966 22.0416 10.8985 24.1188 5.55799 22.2751C3.0284 21.4022 1.04728 18.3281 1.09509 15.2617Z" fill="#ED1E26"/>
<path d="M1.09509 15.2617C2.03246 16.9156 3.43546 19.6836 5.89014 20.4444C6.91045 20.7606 7.75204 20.5514 8.12178 19.5887C8.31866 19.0763 9.17347 20.7344 9.97346 20.825C11.8143 21.0339 14.2536 19.6784 13.7954 19.2319C12.6669 18.133 12.3077 15.0155 12.822 14.8337C13.8043 14.487 14.7211 17.5179 14.7211 18.2094C14.7211 19.365 15.6006 17.8098 16.7626 17.0687C17.5443 16.5695 18.4771 16.2539 18.7313 16.4397C19.1215 16.7251 17.8155 19.4445 15.6945 19.6365C15.6006 19.6448 15.4295 19.5952 15.4126 19.6913C14.9966 22.0416 10.8985 24.1188 5.55799 22.2751C3.0284 21.4022 1.04728 18.3281 1.09509 15.2617Z" stroke="#ED1E26" stroke-width="0.0339044" stroke-miterlimit="22.9256"/>
<path fill-rule="evenodd" clip-rule="evenodd" d="M6.50734 5.41868L9 5.3238C8.99197 3.94486 8.98429 2.56586 8.97626 1.18691C8.96851 0.322835 8.0583 2.69283 7.5994 3.44535L5.6766 1.92372C5.24147 1.55945 6.30149 4.28536 6.50734 5.41868Z" fill="#ED1E26"/>
<path d="M6.50734 5.41868L9 5.3238C8.99197 3.94486 8.98429 2.56586 8.97626 1.18691C8.96851 0.322835 8.0583 2.69283 7.5994 3.44535L5.6766 1.92372C5.24147 1.55945 6.30149 4.28536 6.50734 5.41868Z" stroke="#ED1E26" stroke-width="0.0339044" stroke-miterlimit="22.9256"/>
<path fill-rule="evenodd" clip-rule="evenodd" d="M11.3183 5.41868L8.82568 5.3238C8.83367 3.94486 8.84172 2.56586 8.84938 1.18691C8.85743 0.322835 9.7674 2.69283 10.2265 3.44535L12.1494 1.92372C12.5842 1.55945 11.5241 4.28536 11.3183 5.41868Z" fill="#ED1E26"/>
<path d="M11.3183 5.41868L8.82568 5.3238C8.83367 3.94486 8.84172 2.56586 8.84938 1.18691C8.85743 0.322835 9.7674 2.69283 10.2265 3.44535L12.1494 1.92372C12.5842 1.55945 11.5241 4.28536 11.3183 5.41868Z" stroke="#ED1E26" stroke-width="0.0339044" stroke-miterlimit="22.9256"/>
</svg>
