<svg width="28" height="28" viewBox="0 0 28 28" fill="none" xmlns="http://www.w3.org/2000/svg">
<g clip-path="url(#clip0_75_7043)">
<path d="M5.72455 4.10942C5.51661 4.33013 5.40277 4.62312 5.40713 4.92632L5.40713 8.07953C5.38272 8.25828 5.40008 8.44026 5.45787 8.61116C5.51565 8.78206 5.61228 8.93724 5.74016 9.06449C5.86804 9.19175 6.02369 9.28762 6.19487 9.34456C6.36606 9.40151 6.54812 9.41799 6.72674 9.3927L9.87351 9.3927C10.0287 9.39586 10.183 9.36802 10.3273 9.31081C10.4716 9.25361 10.603 9.16819 10.7139 9.05955C10.8247 8.95091 10.9128 8.82125 10.9729 8.67814C11.0331 8.53504 11.064 8.38138 11.064 8.22615C11.064 8.07093 11.0331 7.91727 10.9729 7.77417C10.9128 7.63106 10.8247 7.5014 10.7139 7.39276C10.603 7.28412 10.4716 7.1987 10.3273 7.1415C10.183 7.08429 10.0287 7.05645 9.87351 7.05961L9.70432 7.05961C12.8564 5.09978 17.0303 5.48346 19.773 8.22616C21.5953 10.0484 22.3518 12.5002 22.094 14.8814C22.0607 15.1891 22.1509 15.4974 22.3449 15.7385C22.441 15.8579 22.5596 15.9572 22.694 16.0308C22.8285 16.1043 22.9761 16.1507 23.1284 16.1672C23.2808 16.1837 23.4349 16.17 23.5819 16.127C23.729 16.0839 23.8661 16.0123 23.9855 15.9163C24.2267 15.7223 24.3809 15.4404 24.4142 15.1328C24.7437 12.0891 23.7593 8.91258 21.4229 6.57624C17.6993 2.85266 11.8471 2.53037 7.74022 5.58532L7.74022 4.92632C7.74355 4.69124 7.67578 4.46063 7.5458 4.26472C7.41582 4.06881 7.22969 3.91674 7.0118 3.82843C6.7939 3.74012 6.55441 3.7197 6.32471 3.76984C6.09502 3.81998 5.88582 3.93835 5.72455 4.10942ZM3.90142 12.1713C3.71948 12.3612 3.60706 12.6071 3.5824 12.869C3.25285 15.9126 4.23733 19.0891 6.57367 21.4255C10.2973 25.1491 16.1495 25.4713 20.2564 22.4164L20.2564 23.0754C20.2532 23.2306 20.2811 23.3848 20.3383 23.5291C20.3955 23.6734 20.4809 23.8049 20.5895 23.9157C20.6982 24.0266 20.8278 24.1147 20.9709 24.1748C21.114 24.235 21.2677 24.2659 21.4229 24.2659C21.5781 24.2659 21.7318 24.235 21.8749 24.1748C22.018 24.1147 22.1477 24.0266 22.2563 23.9157C22.3649 23.8049 22.4504 23.6734 22.5076 23.5291C22.5648 23.3848 22.5926 23.2306 22.5895 23.0754V19.9222C22.6139 19.7434 22.5965 19.5615 22.5387 19.3906C22.4809 19.2197 22.3843 19.0645 22.2564 18.9372C22.1285 18.81 21.9729 18.7141 21.8017 18.6572C21.6305 18.6002 21.4485 18.5837 21.2698 18.609H18.1231C17.967 18.6069 17.812 18.6361 17.6674 18.6949C17.5228 18.7537 17.3915 18.8409 17.2812 18.9514C17.1174 19.1157 17.0062 19.325 16.9619 19.5527C16.9177 19.7805 16.9423 20.0162 17.0326 20.2299C17.123 20.4436 17.275 20.6255 17.4692 20.7523C17.6635 20.8792 17.8911 20.9453 18.1231 20.9421H18.2923C15.1402 22.9019 10.9663 22.5183 8.22359 19.7756C6.40132 17.9533 5.64477 15.5016 5.90259 13.1203C5.93252 12.877 5.88506 12.6304 5.76692 12.4156C5.64879 12.2008 5.466 12.0287 5.2445 11.9236C5.02299 11.8186 4.77402 11.786 4.53294 11.8304C4.29185 11.8749 4.07089 11.9941 3.90142 12.1713Z" fill="#FEBD18"/>
</g>
<defs>
<clipPath id="clip0_75_7043">
<rect width="28" height="28" fill="white"/>
</clipPath>
</defs>
</svg>
