<svg width="22" height="22" viewBox="0 0 22 22" fill="none" xmlns="http://www.w3.org/2000/svg">
<path fill-rule="evenodd" clip-rule="evenodd" d="M2.23712 10.4576C7.06908 8.34047 10.2908 6.94532 11.903 6.27086C16.5064 4.34577 17.4627 4.01115 18.0862 4.00008C18.2234 3.99813 18.5297 4.03198 18.7284 4.19408C18.8961 4.3308 18.9421 4.51569 18.9641 4.64524C18.9861 4.77545 19.014 5.07036 18.992 5.30148C18.7427 7.93683 17.6634 14.3319 17.1143 17.2836C16.8819 18.5329 16.4242 18.9515 15.9813 18.9926C15.0192 19.0817 14.2882 18.3526 13.3559 17.738C11.8971 16.7771 11.0729 16.1782 9.65695 15.24C8.02019 14.1554 9.08137 13.5597 10.0137 12.5858C10.2578 12.3306 14.4986 8.45179 14.5808 8.10024C14.5912 8.05597 14.6009 7.89191 14.5038 7.80532C14.4067 7.71874 14.2636 7.74869 14.1607 7.77212C14.0143 7.80532 11.6841 9.35412 7.16943 12.4185C6.50773 12.8755 5.90819 13.0975 5.37145 13.0864C4.77967 13.0734 3.64145 12.7499 2.79523 12.4732C1.75736 12.134 0.932497 11.9543 1.00436 11.3782C1.04127 11.078 1.4524 10.7714 2.23712 10.4576Z" fill="#232325"/>
</svg>
