<svg width="22" height="22" viewBox="0 0 22 22" fill="none" xmlns="http://www.w3.org/2000/svg">
<path d="M20.9747 16.1343C20.1511 14.6521 18.0295 12.871 17.1536 12.0959C16.9139 11.8837 16.8882 11.5166 17.1064 11.2819C18.7779 9.48572 20.1149 7.42185 20.5751 6.17472C20.7781 5.62381 20.3578 5.04172 19.7656 5.04172H18.0455C17.4786 5.04172 17.1467 5.24522 16.9886 5.56926C15.5994 8.41597 14.4077 9.64797 13.5736 10.368C13.1065 10.7713 12.3782 10.4372 12.3782 9.82351C12.3782 8.64101 12.3782 7.11247 12.3782 6.02851C12.3782 5.50281 11.9483 5.07747 11.418 5.07747L8.27568 5.04172C7.88013 5.04172 7.65418 5.48951 7.89159 5.80347L8.41043 6.54826C8.60568 6.80631 8.71109 7.12026 8.71109 7.44247L8.70834 10.7966C8.70834 11.38 8.00113 11.6651 7.5813 11.2563C6.16093 9.87301 4.92847 7.04831 4.4848 5.6976C4.35647 5.30664 3.99026 5.04264 3.57501 5.04172L1.88055 5.0376C1.24484 5.0376 0.780093 5.64031 0.952885 6.24714C2.50113 11.6816 5.67784 16.8516 11.3392 17.4121C11.897 17.4671 12.3782 17.018 12.3782 16.462V14.6993C12.3782 14.1937 12.7747 13.7592 13.2843 13.7464C13.3022 13.7459 13.3201 13.7459 13.338 13.7459C14.8353 13.7459 16.5124 15.9253 17.0991 16.9446C17.2677 17.238 17.583 17.4167 17.9241 17.4167H20.2033C20.8684 17.4167 21.2951 16.7113 20.9747 16.1343Z" fill="#232325"/>
</svg>
