<svg width="22" height="22" viewBox="0 0 22 22" fill="none" xmlns="http://www.w3.org/2000/svg">
<path fill-rule="evenodd" clip-rule="evenodd" d="M16.8464 5.15894C15.2942 3.60669 13.2317 2.75 11.0349 2.75C6.50708 2.75 2.81982 6.43457 2.81982 10.9624C2.81714 12.4099 3.1958 13.8225 3.91553 15.0686L2.75 19.3252L7.10596 18.1812C8.30371 18.8364 9.65723 19.1802 11.0322 19.1829H11.0349C15.5627 19.1829 19.2473 15.4983 19.25 10.9678C19.25 8.77368 18.396 6.71118 16.8464 5.15894ZM11.0349 17.7944H11.0322C9.80762 17.7944 8.60449 17.4641 7.55713 16.8438L7.30737 16.696L4.72119 17.3728L5.41138 14.8538L5.25024 14.5959C4.56543 13.5083 4.20557 12.2515 4.20557 10.9624C4.20557 7.19995 7.26977 4.13843 11.0376 4.13843C12.8611 4.13843 14.5745 4.8501 15.8635 6.13916C17.1526 7.43091 17.8616 9.14429 17.8616 10.9678C17.8616 14.7329 14.7974 17.7944 11.0349 17.7944ZM14.7786 12.6812C14.5745 12.5791 13.5647 12.0823 13.3767 12.0151C13.1887 11.9453 13.0518 11.9131 12.9148 12.1172C12.7778 12.324 12.3857 12.7859 12.2649 12.9229C12.1467 13.0571 12.0259 13.0759 11.8218 12.9739C11.615 12.8718 10.9543 12.6543 10.1702 11.9534C9.56055 11.4109 9.14697 10.7368 9.02881 10.5327C8.90796 10.3259 9.01538 10.2158 9.11743 10.1138C9.21143 10.0225 9.32422 9.87476 9.42627 9.75391C9.52832 9.63574 9.56323 9.5498 9.63306 9.41284C9.7002 9.27588 9.66528 9.15503 9.61426 9.05298C9.56323 8.95093 9.15234 7.93848 8.98047 7.52759C8.81397 7.12744 8.64478 7.18384 8.51855 7.17578C8.40039 7.17041 8.26343 7.17041 8.12647 7.17041C7.9895 7.17041 7.7666 7.22144 7.57861 7.42822C7.39063 7.63232 6.86157 8.12915 6.86157 9.13892C6.86157 10.1487 7.59741 11.1262 7.69946 11.2632C7.80151 11.3975 9.14697 13.4707 11.2068 14.3596C11.6956 14.5718 12.0769 14.698 12.375 14.792C12.8665 14.9478 13.3149 14.9263 13.6694 14.8752C14.0642 14.8162 14.8833 14.3784 15.0552 13.8977C15.2244 13.4197 15.2244 13.0088 15.1733 12.9229C15.1223 12.8369 14.9854 12.7859 14.7786 12.6812Z" fill="#232325"/>
</svg>
