<svg width="60" height="60" viewBox="0 0 60 60" fill="none" xmlns="http://www.w3.org/2000/svg">
<g clip-path="url(#clip0_72_53)">
<path d="M31.4845 38.0825L30.9436 38.6234C30.4351 39.1319 29.8823 39.314 29.1826 39.5444C28.3649 39.8136 27.3473 40.1488 26.405 41.0911C25.4625 42.0335 25.1274 43.0511 24.8581 43.8687C24.6277 44.5685 24.4457 45.1212 23.9371 45.6297L13.9889 55.578C11.456 58.1109 7.24928 58.0259 4.61173 55.3883C1.97407 52.7506 1.889 48.5441 4.42191 46.0112L14.3703 36.0628C14.8788 35.5542 15.4315 35.3722 16.1313 35.1418C16.949 34.8725 17.9666 34.5374 18.9089 33.595C19.8512 32.6527 20.1864 31.635 20.4556 30.8175C20.686 30.1177 20.8681 29.565 21.3767 29.0564L21.9078 28.5252C22.4112 28.0218 22.4112 27.2057 21.9079 26.7023C21.4044 26.1989 20.5884 26.1988 20.085 26.7022L19.5537 27.2334C18.6114 28.1757 18.2763 29.1934 18.007 30.0109C17.7766 30.7107 17.5945 31.2634 17.086 31.772C16.5774 32.2805 16.0247 32.4626 15.3249 32.693C14.5073 32.9623 13.4897 33.2974 12.5473 34.2397L2.59898 44.1881C-0.939078 47.7262 -0.85389 53.5683 2.7888 57.2111C4.64513 59.0673 7.07223 59.9997 9.47483 59.9997C11.787 59.9997 14.0765 59.136 15.8117 57.4008L25.7599 47.4526C26.7023 46.5102 27.0374 45.4925 27.3067 44.6749C27.5371 43.9751 27.7192 43.4225 28.2278 42.9138C28.7363 42.4051 29.2892 42.2232 29.9888 41.9927C30.8065 41.7234 31.8241 41.3883 32.7664 40.4459L33.3073 39.905C33.8106 39.4017 33.8106 38.5855 33.3073 38.0821C32.8039 37.5792 31.9878 37.5792 31.4845 38.0825Z" fill="#232325"/>
<path d="M17.382 38.6754C16.8786 38.172 16.0625 38.172 15.5591 38.6754L7.0342 47.2003C6.53092 47.7037 6.53092 48.5198 7.0342 49.0232C7.28589 49.2749 7.61575 49.4008 7.9456 49.4008C8.27546 49.4008 8.60531 49.2749 8.85701 49.0232L17.3819 40.4983C17.8853 39.9949 17.8853 39.1788 17.382 38.6754Z" fill="#232325"/>
<path d="M11.8882 53.3434C12.2181 53.3434 12.5479 53.2175 12.7996 52.9658L21.3245 44.441C21.8278 43.9376 21.8278 43.1214 21.3245 42.618C20.8211 42.1146 20.005 42.1146 19.5016 42.618L10.9767 51.1429C10.4734 51.6463 10.4734 52.4625 10.9767 52.9658C11.2285 53.2177 11.5584 53.3434 11.8882 53.3434Z" fill="#232325"/>
<path d="M59.6225 1.22645L58.7736 0.377502C58.4067 0.0108535 57.8557 -0.100465 57.3754 0.0954556L52.1706 2.21801C52.0117 2.28281 51.8674 2.37878 51.7459 2.50005L30.4924 23.7535C29.9892 24.2569 29.9892 25.073 30.4924 25.5764C30.9958 26.0797 31.8119 26.0797 32.3154 25.5764L53.3848 4.50683L56.9451 3.05489L55.4932 6.61533L34.427 27.6815C33.9236 28.1849 33.9236 29.001 34.427 29.5044C34.6787 29.7561 35.0086 29.882 35.3384 29.882C35.6683 29.882 35.9981 29.7561 36.2498 29.5044L57.4999 8.25429C57.6212 8.13289 57.7171 7.98853 57.7819 7.82952L59.9045 2.62461C60.1005 2.1443 59.9894 1.59333 59.6225 1.22645Z" fill="#232325"/>
<path d="M54.3306 38.749C51.4308 37.0776 48.6092 36.7266 45.5131 37.6664L22.2763 14.469C23.7195 9.49236 21.6025 4.15107 17.0372 1.51973C13.1279 -0.733358 8.2533 -0.46092 4.61881 2.21401C4.26821 2.47203 4.07159 2.88942 4.09584 3.32403C4.1201 3.75864 4.36207 4.15153 4.73915 4.3689L12.0848 8.60264V11.7542L9.34762 13.3319L2.00024 9.09713C1.62363 8.88011 1.16301 8.86746 0.775035 9.06349C0.38706 9.25953 0.124114 9.63802 0.0756029 10.0699C-0.427791 14.5516 1.77374 18.9038 5.68407 21.1577C8.37059 22.7061 11.5391 23.0849 14.4964 22.2351L37.7416 45.4409C37.1141 47.6794 37.2357 50.1425 38.1017 52.467C39.053 55.0206 40.7846 57.123 42.9775 58.387C44.8347 59.4574 46.7817 59.9895 48.7102 59.9895C51.0286 59.9895 53.3201 59.2204 55.3959 57.6927C55.7465 57.4347 55.9431 57.0173 55.9189 56.5827C55.8946 56.1481 55.6526 55.7552 55.2756 55.5378L47.9299 51.304V48.1524L50.6672 46.5747L58.0146 50.8095C58.3911 51.0265 58.8518 51.0391 59.2398 50.8431C59.6278 50.6471 59.8907 50.2686 59.9392 49.8367C60.4114 45.6309 58.0003 40.8643 54.3306 38.749ZM51.3109 43.9704C50.9124 43.7407 50.4219 43.7407 50.0235 43.9704L45.9973 46.291C45.5981 46.5211 45.352 46.947 45.352 47.4077V52.0489C45.352 52.5097 45.5981 52.9354 45.9973 53.1656L52.0799 56.6714C49.563 57.8088 46.8485 57.6426 44.265 56.1535C40.7276 54.1146 39.0024 49.3512 40.4194 45.5351C40.595 45.0623 40.4786 44.5305 40.1217 44.1742L15.7586 19.8525C15.5127 19.6069 15.1834 19.4756 14.8478 19.4756C14.6985 19.4756 14.5478 19.5017 14.4028 19.5551C11.9451 20.4597 9.23665 20.2297 6.97161 18.9243C4.56572 17.5376 2.99695 15.1233 2.65374 12.4492L8.70396 15.9364C9.10237 16.1661 9.59299 16.1661 9.99127 15.9364L14.0174 13.6157C14.4166 13.3856 14.6627 12.9598 14.6627 12.499V7.85786C14.6627 7.397 14.4166 6.97129 14.0174 6.74116L7.97242 3.25689C10.4644 2.21694 13.3436 2.36634 15.7498 3.75313C19.4671 5.89572 21.0843 10.3614 19.5954 14.3716C19.4198 14.8444 19.5362 15.3762 19.8931 15.7324L44.2563 40.0541C44.6116 40.409 45.1409 40.5252 45.6122 40.3515C48.3228 39.3539 50.5452 39.5426 53.0433 40.9824C55.2302 42.2429 56.8728 44.828 57.3072 47.4263L51.3109 43.9704Z" fill="#FEBD18"/>
</g>
<defs>
<clipPath id="clip0_72_53">
<rect width="60" height="60" fill="white"/>
</clipPath>
</defs>
</svg>
