<svg width="56" height="60" viewBox="0 0 56 60" fill="none" xmlns="http://www.w3.org/2000/svg">
<path d="M28 60C27.8882 60 27.7765 59.9855 27.6677 59.9564C22.1192 58.4757 17.405 56.1225 13.6561 52.962C10.2362 50.0788 7.4943 46.4153 5.50656 42.0732C1.44988 33.2123 0.929687 22.4838 0.929688 14.1272C0.929688 13.4153 1.50684 12.8381 2.21875 12.8381C8.61578 12.8381 13.8203 7.65727 13.8203 1.28906C13.8203 0.577148 14.3975 0 15.1094 0L40.8906 0C41.6025 0 42.1797 0.577148 42.1797 1.28906C42.1797 7.65727 47.3841 12.8381 53.7812 12.8381C54.4932 12.8381 55.0703 13.4153 55.0703 14.1272C55.0703 22.4838 54.5501 33.2122 50.4936 42.0731C48.5057 46.4153 45.7638 50.0788 42.344 52.9618C38.595 56.1223 33.8808 58.4756 28.3325 59.9563C28.2235 59.9854 28.1117 60 28 60ZM3.51215 15.358C3.64539 33.8863 6.95207 51.5828 28 57.3754C49.0479 51.5829 52.3546 33.8863 52.4879 15.3581C45.6995 14.7434 40.277 9.34125 39.66 2.57812H16.3397C15.7229 9.34125 10.3005 14.7434 3.51215 15.358Z" fill="#232325"/>
<path d="M28 54.5166C27.8732 54.5166 27.7465 54.4978 27.6241 54.4605C20.5505 52.3036 15.4496 48.5893 12.03 43.1054C7.30749 35.5318 6.47933 25.5182 6.26722 18.645C6.24929 18.064 6.62242 17.543 7.17812 17.3727C12.5519 15.7267 16.735 11.5451 18.368 6.18668C18.5334 5.6441 19.0339 5.27344 19.601 5.27344H36.3991C36.9662 5.27344 37.4668 5.64422 37.6321 6.18668C39.2651 11.545 43.4482 15.7267 48.8219 17.3727C49.3776 17.543 49.7507 18.064 49.7328 18.645C49.5207 25.5183 48.6925 35.5321 43.97 43.1055C40.5504 48.5895 35.4495 52.3037 28.3761 54.4607C28.2534 54.4979 28.1267 54.5166 28 54.5166ZM8.87781 19.5219C9.27331 29.4659 10.9771 36.5443 14.2176 41.7412C17.2329 46.5771 21.7439 49.8956 27.9999 51.8776C34.2558 49.8956 38.7667 46.5771 41.7822 41.7412C45.0227 36.5443 46.7264 29.4659 47.1219 19.5219C41.685 17.5498 37.4212 13.2805 35.4689 7.85145H20.5308C18.5786 13.2805 14.3147 17.5499 8.87781 19.5219Z" fill="#232325"/>
<path d="M41.8518 26.2466C41.5439 25.7884 41.3743 25.5361 41.3743 24.8921C41.3743 23.1725 39.9754 21.7734 38.2558 21.7734H33.6276L33.5827 18.2407C33.5316 14.21 31.018 13.0668 28.9183 12.8176C28.2827 12.7425 27.687 13.1451 27.5211 13.764L26.1681 18.8135L24.2668 22.1259C24.0359 21.9075 23.7243 21.7735 23.3813 21.7735H16.7947C16.0828 21.7735 15.5057 22.3507 15.5057 23.0626V37.6993C15.5057 38.4112 16.0828 38.9884 16.7947 38.9884H23.3813C24.0932 38.9884 24.6703 38.4112 24.6703 37.6993V37.5482C25.0127 37.6606 25.2762 37.8222 25.5885 38.0138C26.2962 38.448 27.1768 38.9884 28.9252 38.9884H37.5239C39.2435 38.9884 40.6425 37.5894 40.6425 35.8697C40.6425 34.2786 41.1307 33.5144 41.696 32.6294C42.2313 31.7914 42.8381 30.8416 42.8381 29.3645C42.838 27.7142 42.268 26.8659 41.8518 26.2466ZM22.0922 36.4101H18.0838V24.3515H22.0922V36.4101ZM39.5233 31.2414C38.8733 32.259 38.0643 33.5253 38.0643 35.8695C38.0643 36.1625 37.8168 36.4101 37.5238 36.4101H28.9251C27.9046 36.4101 27.5195 36.1739 26.9366 35.8162C26.3932 35.4828 25.7434 35.0841 24.6702 34.9012V25.454L24.9313 25.3841C25.2626 25.2952 25.5448 25.0781 25.7155 24.7807L28.4876 19.9511C28.5431 19.8543 28.5859 19.7509 28.6147 19.6431L29.6877 15.6388C30.6118 16.0317 30.9864 16.8318 31.0047 18.2732L31.0491 21.7754C30.3708 21.8129 29.8323 22.3747 29.8323 23.0623C29.8323 23.7743 30.4095 24.3514 31.1214 24.3514H38.2555C38.5485 24.3514 38.796 24.5989 38.796 24.892C38.796 26.3216 39.3252 27.1092 39.7117 27.6843C40.0417 28.1754 40.2597 28.4998 40.2597 29.3642C40.2599 30.0561 40.0074 30.4837 39.5233 31.2414Z" fill="#FEBD18"/>
</svg>
