<svg width="40" height="40" viewBox="0 0 40 40" fill="none" xmlns="http://www.w3.org/2000/svg">
<mask id="mask0_67_47447" style="mask-type:luminance" maskUnits="userSpaceOnUse" x="0" y="0" width="40" height="40">
<path d="M0 3.8147e-06H40V40H0V3.8147e-06Z" fill="white"/>
</mask>
<g mask="url(#mask0_67_47447)">
<path fill-rule="evenodd" clip-rule="evenodd" d="M40 24.7656V13.0469H37.6562V24.7656H40Z" fill="#2E2F31"/>
<path fill-rule="evenodd" clip-rule="evenodd" d="M35.3125 24.7656V13.0469H32.9687V24.7656H35.3125Z" fill="#2E2F31"/>
<path fill-rule="evenodd" clip-rule="evenodd" d="M30.625 24.7656V17.7344H28.2812V24.7656H30.625Z" fill="#2E2F31"/>
<path fill-rule="evenodd" clip-rule="evenodd" d="M32.9687 7.03125C32.9687 8.97283 34.5428 10.5469 36.4844 10.5469C38.4259 10.5469 40 8.97283 40 7.03125C40 5.08966 38.4259 3.51562 36.4844 3.51562C34.5428 3.51562 32.9687 5.08966 32.9687 7.03125ZM36.4844 8.20312C35.8372 8.20312 35.3125 7.67841 35.3125 7.03125C35.3125 6.38408 35.8372 5.85937 36.4844 5.85937C37.1315 5.85937 37.6562 6.38408 37.6562 7.03125C37.6562 7.67841 37.1315 8.20312 36.4844 8.20312Z" fill="#2E2F31"/>
<path fill-rule="evenodd" clip-rule="evenodd" d="M0 31.7969H1.17187C2.61664 31.7969 3.96233 31.3595 5.08029 30.6107L8.85513 28.0831L7.55112 26.1356L3.77611 28.6633C3.34391 28.9528 2.86137 29.1723 2.34375 29.3056V20.2257C2.86137 20.3589 3.34393 20.5785 3.77617 20.868L7.55112 23.3956L8.85513 21.4481L5.08055 18.9207C3.96251 18.1719 2.61664 17.7344 1.17187 17.7344H0V31.7969Z" fill="#2E2F31"/>
<path d="M25.9375 35.3125H23.5937V32.9687H25.9375V35.3125Z" fill="#2E2F31"/>
<path d="M30.625 30.625H28.2812V28.2812H30.625V30.625Z" fill="#2E2F31"/>
<path fill-rule="evenodd" clip-rule="evenodd" d="M14.2187 22.4219C14.2187 24.3635 15.7928 25.9375 17.7344 25.9375C19.676 25.9375 21.25 24.3635 21.25 22.4219C21.25 20.4803 19.676 18.9062 17.7344 18.9062C15.7928 18.9062 14.2187 20.4803 14.2187 22.4219ZM17.7344 23.5938C17.0872 23.5938 16.5625 23.069 16.5625 22.4219C16.5625 21.7747 17.0872 21.25 17.7344 21.25C18.3815 21.25 18.9062 21.7747 18.9062 22.4219C18.9062 23.069 18.3815 23.5938 17.7344 23.5938Z" fill="#2E2F31"/>
<path fill-rule="evenodd" clip-rule="evenodd" d="M1.17187 25.9375H5.85938V23.5938H1.17187V25.9375Z" fill="#2E2F31"/>
<path fill-rule="evenodd" clip-rule="evenodd" d="M8.35941 40H24.7656V37.6562H10.9032C11.3858 36.2908 12.6881 35.3125 14.2188 35.3125H14.2856V32.9687H14.2188C10.9828 32.9687 8.35941 35.5921 8.35941 38.8281V40Z" fill="#2E2F31"/>
<path fill-rule="evenodd" clip-rule="evenodd" d="M15.0093 33.1908C17.3748 35.9274 20.8676 37.6562 24.7656 37.6562C31.4899 37.6562 37.0116 32.5076 37.6037 25.9375H23.5937V11.9275C20.1713 12.2358 17.1351 13.8812 15.0093 16.3405L8.73913 23.5937H8.20312C7.55596 23.5937 7.03125 24.1185 7.03125 24.7656C7.03125 25.4128 7.55596 25.9375 8.20312 25.9375H8.73913L15.0093 33.1908ZM23.5937 35.3125H25.9375V32.9687H23.5937V35.3125ZM28.2812 30.625H30.625V28.2812H28.2812V30.625ZM14.2187 22.4219C14.2187 24.3635 15.7928 25.9375 17.7344 25.9375C19.676 25.9375 21.25 24.3635 21.25 22.4219C21.25 20.4803 19.676 18.9062 17.7344 18.9062C15.7928 18.9062 14.2187 20.4803 14.2187 22.4219Z" fill="#5BD0FA"/>
<path fill-rule="evenodd" clip-rule="evenodd" d="M15.0093 33.1908C17.3748 35.9274 20.8676 37.6562 24.7656 37.6562C31.4899 37.6562 37.0116 32.5076 37.6037 25.9375H23.5937V11.9275C20.1713 12.2358 17.1351 13.8812 15.0093 16.3405L8.73913 23.5937H8.20312C7.55596 23.5937 7.03125 24.1185 7.03125 24.7656C7.03125 25.4128 7.55596 25.9375 8.20312 25.9375H8.73913L15.0093 33.1908ZM16.6436 11.875H10.9032C11.3408 13.1131 12.4522 14.0329 13.7968 14.1937C14.6469 13.3119 15.6026 12.5322 16.6436 11.875ZM12.0705 16.1562C9.89725 15.2993 8.35937 13.1808 8.35937 10.7031V9.53125H23.5937V9.57568C21.0517 9.76918 18.6838 10.5869 16.6436 11.875H24.7656V9.53125H23.5937V7.03125C23.5937 3.14794 26.7418 0 30.625 0C33.5318 0 36.0235 1.76385 37.0945 4.27456L34.9387 5.19419C34.2229 3.51615 32.5596 2.34375 30.625 2.34375C28.0362 2.34375 25.9375 4.44238 25.9375 7.03125V23.5937H40V24.7656C40 33.1793 33.1793 40 24.7656 40C20.1583 40 16.0279 37.9532 13.2362 34.7235L7.62642 28.2342C5.95919 27.959 4.6875 26.5108 4.6875 24.7656C4.6875 23.0205 5.95919 21.5722 7.62643 21.2971L12.0705 16.1562Z" fill="#2E2F31"/>
<path d="M24.7656 11.875V9.53125H23.5937V9.57568C21.0517 9.76918 18.6838 10.5869 16.6436 11.875H24.7656Z" fill="#2E2F31"/>
</g>
</svg>
