<svg width="40" height="40" viewBox="0 0 40 40" fill="none" xmlns="http://www.w3.org/2000/svg">
<g clip-path="url(#clip0_67_47439)">
<path d="M14.318 11.3373C11.064 16.2182 9.41406 20.792 9.41406 24.9316C9.41406 28.2435 11.2322 31.1303 14.6719 33.2801C17.462 34.9638 19.4362 35.3989 20 35.5536C20.4548 35.4231 22.5197 34.9862 25.3281 33.2801C28.7678 31.1302 30.5859 28.2434 30.5859 24.9316C30.5859 20.792 28.936 16.2183 25.6821 11.3373C22.4233 6.65696 21.4137 5.92508 20 4.44641C18.5863 5.92508 17.5767 6.65688 14.318 11.3373ZM24.1332 31.263C23.071 31.9326 21.9959 32.4114 21.1719 32.7266V25.4172L25.5356 21.0534L23.8784 19.3962L21.1719 22.1027V9.19055C21.9409 10.1271 22.852 11.3141 23.7573 12.6756C25.8033 15.7521 28.2422 20.3757 28.2422 24.9316C28.2422 27.4138 26.8598 29.544 24.1332 31.263ZM11.7578 24.9316C11.7578 20.3756 14.1967 15.752 16.2427 12.6755C17.148 11.3141 18.059 10.1271 18.8281 9.19047V17.3955L17.2765 15.8438L15.6192 17.5011L18.8281 20.71V26.8097L15.437 23.4186L13.7798 25.0759L18.8281 30.1242V32.7266C18.0043 32.4114 16.9291 31.9327 15.8668 31.263C13.1402 29.544 11.7578 27.4138 11.7578 24.9316Z" fill="#2E2F31"/>
<path d="M11.7578 24.9316C11.7578 20.3756 14.1967 15.752 16.2427 12.6755C17.148 11.3141 18.059 10.1271 18.8281 9.19047V17.3955L17.2765 15.8438L15.6192 17.5011L18.8281 20.71V26.8097L15.437 23.4186L13.7798 25.0759L18.8281 30.1242V32.7266C18.0043 32.4114 16.9291 31.9327 15.8668 31.263C13.1402 29.544 11.7578 27.4138 11.7578 24.9316Z" fill="#00B44B"/>
<path d="M36.3493 8.4757C36.6598 7.95078 36.8388 7.3393 36.8388 6.68648C36.8388 4.74258 35.2573 3.16109 33.3134 3.16109C32.6608 3.16109 32.0495 3.34 31.5247 3.65039C28.1762 1.27922 24.1867 0 20 0C14.6578 0 9.63539 2.08039 5.85781 5.85781C2.08039 9.63539 0 14.6578 0 20C0 24.1867 1.27922 28.1762 3.65039 31.5248C3.34 32.0496 3.16109 32.6609 3.16109 33.3135C3.16109 35.2574 4.74258 36.8389 6.68648 36.8389C7.33914 36.8389 7.95055 36.6599 8.47539 36.3495C11.8239 38.7207 15.8133 40 20 40C25.3422 40 30.3646 37.9196 34.1422 34.1422C37.9196 30.3646 40 25.3422 40 20C40 15.8134 38.7205 11.8242 36.3493 8.4757ZM33.3135 5.50484C33.9651 5.50484 34.4952 6.03492 34.4952 6.68648C34.4952 7.33805 33.9651 7.86812 33.3135 7.86812C32.662 7.86812 32.1319 7.33805 32.1319 6.68648C32.1319 6.03492 32.662 5.50484 33.3135 5.50484ZM6.68648 34.4952C6.03492 34.4952 5.50484 33.9651 5.50484 33.3135C5.50484 32.662 6.03492 32.1319 6.68648 32.1319C7.33805 32.1319 7.86812 32.662 7.86812 33.3135C7.86812 33.9651 7.33805 34.4952 6.68648 34.4952ZM32.4848 32.4848C29.15 35.8197 24.7162 37.6562 20 37.6562C16.3714 37.6562 12.9109 36.5674 9.98867 34.547C10.1327 34.1628 10.2119 33.7473 10.2119 33.3134C10.2119 31.3695 8.63039 29.788 6.68648 29.788C6.25266 29.788 5.83711 29.8673 5.45297 30.0113C3.43258 27.089 2.34375 23.6285 2.34375 20C2.34375 15.2838 4.18031 10.85 7.51516 7.51516C10.85 4.18031 15.2838 2.34375 20 2.34375C23.6286 2.34375 27.0893 3.43211 30.0115 5.4525C29.8674 5.8368 29.788 6.2525 29.788 6.68648C29.788 8.63039 31.3695 10.2119 33.3134 10.2119C33.7477 10.2119 34.1637 10.1324 34.5482 9.98812C36.5686 12.9105 37.6562 16.3715 37.6562 20C37.6562 24.7162 35.8197 29.15 32.4848 32.4848Z" fill="#2E2F31"/>
</g>
<defs>
<clipPath id="clip0_67_47439">
<rect width="40" height="40" fill="white"/>
</clipPath>
</defs>
</svg>
