<svg width="28" height="28" viewBox="0 0 28 28" fill="none" xmlns="http://www.w3.org/2000/svg">
<path d="M8.75004 4.08325C5.21646 4.08325 2.33337 6.96634 2.33337 10.4999C2.33337 12.8893 4.1345 15.1391 6.33012 17.4464C8.52574 19.7536 11.2283 22.0904 13.3814 24.2436C13.5455 24.4076 13.768 24.4997 14 24.4997C14.2321 24.4997 14.4546 24.4076 14.6187 24.2436C16.7718 22.0904 19.4743 19.7536 21.67 17.4464C23.8656 15.1391 25.6667 12.8893 25.6667 10.4999C25.6667 6.96634 22.7836 4.08325 19.25 4.08325C17.2221 4.08325 15.4565 5.17204 14 7.02157C12.5436 5.17204 10.778 4.08325 8.75004 4.08325ZM8.75004 5.83325C10.4584 5.83325 11.8804 6.74232 13.2606 8.92537C13.3395 9.05007 13.4487 9.15278 13.578 9.22395C13.7073 9.29513 13.8525 9.33245 14 9.33245C14.1476 9.33245 14.2928 9.29513 14.4221 9.22395C14.5514 9.15278 14.6605 9.05007 14.7395 8.92537C16.1197 6.74232 17.5417 5.83325 19.25 5.83325C21.838 5.83325 23.9167 7.91199 23.9167 10.4999C23.9167 11.9022 22.5095 14.0274 20.403 16.241C18.4821 18.2595 16.0944 20.3684 14 22.4104C11.9057 20.3684 9.51795 18.2595 7.59705 16.241C5.49058 14.0274 4.08337 11.9022 4.08337 10.4999C4.08337 7.91199 6.16212 5.83325 8.75004 5.83325Z" fill="#2E2F31"/>
</svg>
