<svg width="27" height="27" viewBox="0 0 27 27" fill="none" xmlns="http://www.w3.org/2000/svg">
<path d="M1.93117 3.31032C1.8215 3.30877 1.71263 3.32903 1.61086 3.36993C1.50909 3.41082 1.41647 3.47153 1.33837 3.54854C1.26027 3.62554 1.19825 3.7173 1.15592 3.81847C1.11359 3.91965 1.0918 4.02823 1.0918 4.13791C1.0918 4.24759 1.11359 4.35617 1.15592 4.45735C1.19825 4.55853 1.26027 4.65028 1.33837 4.72728C1.41647 4.80429 1.50909 4.865 1.61086 4.90589C1.71263 4.94679 1.8215 4.96705 1.93117 4.9655H3.45164C3.85326 4.9655 4.18805 5.24297 4.26414 5.63791L4.42901 6.49998L6.20811 15.8437C6.52983 17.5295 8.01511 18.7586 9.73182 18.7586H20.0616C21.7783 18.7586 23.2642 17.53 23.5853 15.8437L25.3644 6.49998C25.3872 6.38035 25.3833 6.25715 25.353 6.13918C25.3228 6.02121 25.2668 5.91138 25.1892 5.81751C25.1116 5.72364 25.0143 5.64806 24.9041 5.59616C24.7939 5.54425 24.6737 5.5173 24.5519 5.51722H5.92578L5.89022 5.32864C5.66781 4.16303 4.63846 3.31032 3.45164 3.31032H1.93117ZM6.24152 7.17239H23.5519L21.9592 15.5345C21.7848 16.4501 20.9942 17.1034 20.0616 17.1034H9.73182C8.79948 17.1034 8.00939 16.4501 7.83419 15.5345V15.5334L6.24152 7.17239ZM11.0346 19.862C10.5956 19.862 10.1746 20.0364 9.86423 20.3468C9.55383 20.6572 9.37945 21.0782 9.37945 21.5172C9.37945 21.9562 9.55383 22.3772 9.86423 22.6876C10.1746 22.998 10.5956 23.1724 11.0346 23.1724C11.4736 23.1724 11.8946 22.998 12.205 22.6876C12.5154 22.3772 12.6898 21.9562 12.6898 21.5172C12.6898 21.0782 12.5154 20.6572 12.205 20.3468C11.8946 20.0364 11.4736 19.862 11.0346 19.862ZM18.7588 19.862C18.3198 19.862 17.8988 20.0364 17.5884 20.3468C17.278 20.6572 17.1036 21.0782 17.1036 21.5172C17.1036 21.9562 17.278 22.3772 17.5884 22.6876C17.8988 22.998 18.3198 23.1724 18.7588 23.1724C19.1977 23.1724 19.6187 22.998 19.9291 22.6876C20.2395 22.3772 20.4139 21.9562 20.4139 21.5172C20.4139 21.0782 20.2395 20.6572 19.9291 20.3468C19.6187 20.0364 19.1977 19.862 18.7588 19.862Z" fill="#232325"/>
</svg>
