<svg width="26" height="26" viewBox="0 0 26 26" fill="none" xmlns="http://www.w3.org/2000/svg">
<path d="M13.0051 2.70833C12.8533 2.70738 12.7042 2.749 12.5748 2.82848C12.4454 2.90795 12.3409 3.02209 12.273 3.15795L9.48219 8.73966L2.85524 9.75952C2.70691 9.78244 2.56782 9.846 2.4534 9.94314C2.33898 10.0403 2.25371 10.1672 2.20704 10.3099C2.16036 10.4525 2.15411 10.6053 2.18897 10.7513C2.22384 10.8973 2.29846 11.0308 2.40456 11.137L6.98862 15.721L5.96771 22.3554C5.94487 22.5038 5.96361 22.6557 6.02185 22.7941C6.08009 22.9325 6.17555 23.0521 6.29764 23.1395C6.41972 23.227 6.56365 23.2789 6.71346 23.2895C6.86326 23.3001 7.01307 23.269 7.14626 23.1996L12.9999 20.1453L18.8535 23.1996C18.9866 23.269 19.1364 23.3001 19.2863 23.2895C19.4361 23.2789 19.58 23.227 19.7021 23.1395C19.8242 23.0521 19.9196 22.9325 19.9779 22.7941C20.0361 22.6557 20.0548 22.5038 20.032 22.3554L19.0111 15.721L23.5952 11.137C23.7013 11.0308 23.7759 10.8973 23.8107 10.7513C23.8456 10.6053 23.8393 10.4525 23.7927 10.3099C23.746 10.1672 23.6607 10.0403 23.5463 9.94314C23.4319 9.846 23.2928 9.78244 23.1445 9.75952L16.5175 8.73966L13.7267 3.15795C13.6596 3.0237 13.5567 2.91062 13.4294 2.83126C13.302 2.75189 13.1552 2.70935 13.0051 2.70833ZM12.9999 5.33732L15.2522 9.84204C15.3102 9.95825 15.3953 10.0589 15.5002 10.1354C15.6051 10.212 15.7269 10.2623 15.8552 10.2821L21.3121 11.1221L17.5712 14.863C17.481 14.9533 17.4133 15.0635 17.3735 15.1849C17.3338 15.3062 17.3233 15.4351 17.3427 15.5613L18.1817 21.016L13.3754 18.5087C13.2595 18.4483 13.1306 18.4167 12.9999 18.4167C12.8691 18.4167 12.7402 18.4483 12.6243 18.5087L7.81805 21.016L8.657 15.5613C8.67643 15.4351 8.66586 15.3062 8.62616 15.1849C8.58646 15.0635 8.51874 14.9533 8.42848 14.863L4.6876 11.1221L10.1445 10.2821C10.2728 10.2623 10.3946 10.212 10.4995 10.1354C10.6044 10.0589 10.6895 9.95825 10.7475 9.84204L12.9999 5.33732Z" fill="#232325"/>
</svg>
