<svg width="29" height="39" viewBox="0 0 29 39" fill="none" xmlns="http://www.w3.org/2000/svg">
<path d="M0 13.9464L3.7874 8.28085L3.74967 4.63879L4.44013 5.01308C4.80391 5.21017 5.36286 5.31015 6.10188 5.31015C6.70541 5.31015 7.31722 5.2471 7.85691 5.19154C8.03283 5.17339 8.19745 5.15652 8.34646 5.1433L9.61052 5.03218L7.76012 6.88545L9.63663 9.25118L8.27577 8.87865C8.10097 8.83073 7.96215 8.76609 7.83956 8.7091C7.72255 8.65465 7.63021 8.61167 7.53692 8.59814C7.09561 8.53462 6.62008 8.505 6.04074 8.505C5.65786 8.505 5.27546 8.51742 4.8929 8.52984L4.88749 8.53016L8.87947 13.9464H0Z" fill="#F1DE3A"/>
<path d="M0.864258 13.4841H7.96431L4.26612 8.46673L4.29517 8.27024C4.41499 8.24508 4.42313 8.08226 4.54185 8.07872C5.5607 8.04823 6.57565 7.99289 7.60226 8.14083C7.89139 8.18242 8.08821 8.34834 8.39718 8.43292L7.14171 6.85026L8.38635 5.60365C7.28207 5.70086 5.31261 6.0119 4.21941 5.41943L4.25065 8.44578L4.24108 8.43278L0.864258 13.4841Z" fill="#F1DE3A"/>
<path d="M19.3848 13.9356L23.1492 8.30396L23.1128 4.75854L23.8029 5.13251C24.1669 5.32944 24.726 5.42942 25.465 5.42942C26.069 5.42942 26.6811 5.36638 27.2213 5.31066C27.3967 5.29267 27.5609 5.27579 27.7094 5.26274L28.9738 5.1513L27.1232 7.00472L29.0002 9.37109L27.6387 8.99776C27.4641 8.95 27.3254 8.88553 27.2032 8.82853C27.086 8.77409 26.9936 8.7311 26.9 8.71757C26.4584 8.65389 25.983 8.62428 25.4039 8.62428C25.0574 8.62428 24.7113 8.63447 24.3652 8.64577L28.2644 13.9356H19.3848Z" fill="#F1DE3A"/>
<path d="M27.35 13.4734L23.6497 8.4533L23.6591 8.3896C23.7791 8.36445 23.7872 8.20162 23.906 8.1981C24.9248 8.16761 25.9396 8.11225 26.9662 8.26019C27.2555 8.30178 27.4523 8.46759 27.7613 8.55228L26.5058 6.96962L27.7504 5.72299C26.646 5.82023 24.6767 6.13115 23.5834 5.53882L23.6133 8.44198L20.25 13.4734H27.35Z" fill="#F1DE3A"/>
<path d="M7.89551 13.957L13.4529 3.62995L13.4155 0L14.1058 0.373964C14.4694 0.570897 15.0284 0.670875 15.7672 0.670875C16.3708 0.670875 16.9827 0.607832 17.5226 0.55227C17.6985 0.534121 17.8631 0.517246 18.0121 0.504032L19.2762 0.392909L17.4258 2.24617L19.3028 4.61255L17.9413 4.23922C17.7666 4.19146 17.628 4.12698 17.5057 4.06999C17.3885 4.01554 17.2962 3.97256 17.2026 3.95902C16.761 3.89534 16.2854 3.86573 15.7063 3.86573C15.3229 3.86573 14.9399 3.87831 14.5565 3.89089L14.5186 3.892L20.3828 13.957H7.89551Z" fill="#F1DE3A"/>
<path d="M8.66797 13.4949H19.5778L13.9342 3.80849L13.9604 3.63106C14.0802 3.6059 14.0884 3.44308 14.2071 3.43956C15.226 3.40907 16.2408 3.35371 17.2674 3.50165C17.5567 3.54326 17.7535 3.70904 18.0624 3.79374L16.807 2.21108L18.0516 0.96445C16.9472 1.06168 14.9779 1.3726 13.8847 0.780273L13.9156 3.77663L13.9063 3.76073L8.66797 13.4949Z" fill="#F1DE3A"/>
<path d="M13.6401 37.7517L13.6251 37.7259C12.0627 34.8467 9.18785 34.166 6.40787 33.5075C4.03561 32.9458 1.79517 32.4152 0.430014 30.6008L0.337837 30.4785L0.248047 13.3281L14.0309 13.3168L27.8156 13.3276L27.7258 30.4782L27.6336 30.6005C26.2684 32.4148 24.028 32.9454 21.6559 33.507C18.9087 34.1575 16.0689 34.8302 14.4947 37.6241L14.0696 38.2847L13.6401 37.7517Z" fill="#F1DE3A"/>
<path d="M14.0315 13.7789L0.712891 13.7897L0.799456 30.323C3.63925 34.0972 11.0367 31.9864 14.0315 37.5055V37.5072L14.032 37.5063L14.0328 37.5076V37.5049C17.0273 31.986 24.4249 34.0967 27.2647 30.3225L27.3513 13.7893L14.0315 13.7783V13.7789Z" fill="#F1DE3A"/>
<path fill-rule="evenodd" clip-rule="evenodd" d="M0.865234 13.4842H7.96528L4.24205 8.43286L0.865234 13.4842Z" fill="#DF000F"/>
<path fill-rule="evenodd" clip-rule="evenodd" d="M20.249 13.4734H27.349L23.6257 8.422L20.249 13.4734Z" fill="#DF000F"/>
<path fill-rule="evenodd" clip-rule="evenodd" d="M8.66895 13.4949H19.5788L13.9073 3.76074L8.66895 13.4949Z" fill="#DF000F"/>
<path fill-rule="evenodd" clip-rule="evenodd" d="M4.25218 8.56313L4.29547 8.27034C4.41529 8.24519 4.42344 8.08236 4.54217 8.07883C5.56102 8.04835 6.57596 7.993 7.60257 8.14093C7.89171 8.18253 8.08852 8.34846 8.39749 8.43304L7.14203 6.85037L8.38666 5.60376C7.28239 5.70097 5.31292 6.01202 4.21973 5.41956L4.25218 8.56313Z" fill="#DF000F"/>
<path fill-rule="evenodd" clip-rule="evenodd" d="M13.9172 3.9237L13.9605 3.63106C14.0803 3.6059 14.0885 3.44307 14.2072 3.43955C15.2261 3.40907 16.2409 3.3537 17.2675 3.50165C17.5568 3.54325 17.7536 3.70904 18.0625 3.79374L16.8071 2.21108L18.0517 0.96445C16.9473 1.06169 14.978 1.3726 13.8848 0.780273L13.9172 3.9237Z" fill="#DF000F"/>
<path fill-rule="evenodd" clip-rule="evenodd" d="M23.6145 8.68238L23.6578 8.3896C23.7777 8.36446 23.7859 8.20162 23.9046 8.1981C24.9235 8.16761 25.9383 8.11225 26.9649 8.2602C27.2542 8.30179 27.451 8.46758 27.7599 8.55229L26.5045 6.96962L27.7491 5.723C26.6447 5.82023 24.6754 6.13115 23.582 5.53882L23.6145 8.68238Z" fill="#DF000F"/>
<path fill-rule="evenodd" clip-rule="evenodd" d="M14.0305 13.7784L27.3503 13.7894L27.2637 30.3227C24.4239 34.0968 17.0263 31.9861 14.0318 37.505V37.5077L14.031 37.5064L14.0305 37.5073V37.5056C11.0358 31.9866 3.63828 34.0973 0.798465 30.3231L0.711914 13.7898L14.0305 13.779V13.7784Z" fill="#DF000F"/>
<path fill-rule="evenodd" clip-rule="evenodd" d="M7.795 20.8015V20.899V20.9098C7.795 20.984 7.84754 21.0459 7.91708 21.0608C7.93676 21.0698 7.9584 21.0747 7.98171 21.0747C8.00517 21.0747 8.02666 21.075 8.04592 21.0738C8.08947 21.0773 8.13445 21.0747 8.18741 21.0747C8.27142 21.0747 8.3394 21.0079 8.34152 20.9245L8.34629 20.9163L8.35331 20.9081C8.37974 20.8804 8.39561 20.8428 8.39561 20.8015V20.7621V20.758C8.39561 20.7293 8.38817 20.7028 8.3744 20.6798C8.36598 20.6582 8.35221 20.6389 8.33548 20.6233L8.32889 20.6164L8.32353 20.6112L8.32088 20.6087L8.32031 20.608L8.31425 20.6022L8.30723 20.5948L8.3019 20.5896L8.29922 20.5871L8.29865 20.5864L8.29249 20.5805C8.27689 20.563 8.25752 20.5493 8.23532 20.54C8.21214 20.5258 8.18417 20.5172 8.15481 20.5172C8.07923 20.5172 8.01964 20.5212 7.97117 20.5496C7.91273 20.5638 7.86835 20.5964 7.83279 20.6679C7.8269 20.6797 7.82337 20.6929 7.82072 20.7062C7.8047 20.7305 7.795 20.7592 7.795 20.7905V20.8015ZM6.85606 20.6171C6.42868 20.6171 6.49682 21.3318 6.65039 21.5927C6.8145 21.8712 7.63891 21.9067 7.98171 22.0263C8.2103 22.1061 9.29126 23.6133 9.29126 22.4707C9.29126 22.0874 9.19208 22.0155 9.61596 22.0155C10.208 22.0155 10.6348 22.1352 10.1463 21.4302C9.51816 20.5238 9.50242 20.3197 8.39294 19.8257C7.3558 19.3642 6.88852 19.2493 6.85606 20.6171Z" fill="#F1DE3A"/>
<path fill-rule="evenodd" clip-rule="evenodd" d="M2.81485 21.6974C3.57635 23.1372 5.77339 21.3893 5.87582 20.6878C5.92681 20.3384 5.4917 21.6635 6.31586 21.6635C7.29975 21.6635 5.97669 21.9386 5.67689 22.419C4.77857 23.8581 5.75304 25.5968 5.69009 25.5226C5.50856 25.3084 4.37013 23.4638 4.04293 23.7301C3.95539 23.8014 3.78667 24.1413 3.681 24.1413C3.65404 24.1413 3.01338 23.2163 2.66804 23.0902C2.46657 23.0169 2.45013 23.7132 2.3723 22.9538C2.31246 22.3685 2.59821 21.9132 2.84015 21.5881C3.80717 21.5881 4.32462 21.438 5.11996 20.903C5.63837 20.5545 6.09316 20.3209 6.5204 19.8919C6.92982 19.4805 6.34226 19.5658 6.05354 19.5658C5.2027 19.5658 4.64721 19.7073 3.93475 20.1142C3.50766 20.3582 3.27373 20.6024 2.9517 21.0451C2.86965 21.1578 2.78817 21.7863 2.81485 21.6974Z" fill="#F1DE3A"/>
<path d="M2.81485 21.6974C3.57635 23.1372 5.77339 21.3893 5.87582 20.6878C5.92681 20.3384 5.4917 21.6635 6.31586 21.6635C7.29975 21.6635 5.97669 21.9386 5.67689 22.419C4.77857 23.8581 5.75304 25.5968 5.69009 25.5226C5.50856 25.3084 4.37013 23.4638 4.04293 23.7301C3.95539 23.8014 3.78667 24.1413 3.681 24.1413C3.65404 24.1413 3.01338 23.2163 2.66804 23.0902C2.46657 23.0169 2.45013 23.7132 2.3723 22.9538C2.31246 22.3685 2.59821 21.9132 2.84015 21.5881C3.80717 21.5881 4.32462 21.438 5.11996 20.903C5.63837 20.5545 6.09316 20.3209 6.5204 19.8919C6.92982 19.4805 6.34226 19.5658 6.05354 19.5658C5.2027 19.5658 4.64721 19.7073 3.93475 20.1142C3.50766 20.3582 3.27373 20.6024 2.9517 21.0451C2.86965 21.1578 2.78817 21.7863 2.81485 21.6974Z" stroke="#F1DE3A" stroke-width="0.0214888" stroke-miterlimit="22.9256"/>
<path fill-rule="evenodd" clip-rule="evenodd" d="M2.40761 23.5655C2.83499 24.3195 3.47466 25.5816 4.59383 25.9285C5.05902 26.0726 5.44273 25.9772 5.6113 25.5383C5.70107 25.3047 6.0908 26.0607 6.45554 26.102C7.29485 26.1972 8.40701 25.5792 8.19807 25.3756C7.68359 24.8746 7.51978 23.4532 7.75426 23.3703C8.20216 23.2123 8.62013 24.5942 8.62013 24.9095C8.62013 25.4363 9.02112 24.7272 9.55091 24.3894C9.90734 24.1617 10.3326 24.0179 10.4485 24.1026C10.6264 24.2327 10.031 25.4726 9.06394 25.5601C9.02112 25.5639 8.94314 25.5413 8.93541 25.5851C8.74573 26.6566 6.87731 27.6037 4.44239 26.7631C3.28907 26.3651 2.38581 24.9636 2.40761 23.5655Z" fill="#F1DE3A"/>
<path d="M2.40761 23.5655C2.83499 24.3195 3.47466 25.5816 4.59383 25.9285C5.05902 26.0726 5.44273 25.9772 5.6113 25.5383C5.70107 25.3047 6.0908 26.0607 6.45554 26.102C7.29485 26.1972 8.40701 25.5792 8.19807 25.3756C7.68359 24.8746 7.51978 23.4532 7.75426 23.3703C8.20216 23.2123 8.62013 24.5942 8.62013 24.9095C8.62013 25.4363 9.02112 24.7272 9.55091 24.3894C9.90734 24.1617 10.3326 24.0179 10.4485 24.1026C10.6264 24.2327 10.031 25.4726 9.06394 25.5601C9.02112 25.5639 8.94314 25.5413 8.93541 25.5851C8.74573 26.6566 6.87731 27.6037 4.44239 26.7631C3.28907 26.3651 2.38581 24.9636 2.40761 23.5655Z" stroke="#F1DE3A" stroke-width="0.0214888" stroke-miterlimit="22.9256"/>
<path fill-rule="evenodd" clip-rule="evenodd" d="M4.87533 19.0778L6.01181 19.0346C6.00815 18.4059 6.00464 17.7772 6.00098 17.1485C5.99745 16.7545 5.58246 17.835 5.37323 18.1781L4.49657 17.4844C4.29818 17.3183 4.78147 18.5611 4.87533 19.0778Z" fill="#F1DE3A"/>
<path d="M4.87533 19.0778L6.01181 19.0346C6.00815 18.4059 6.00464 17.7772 6.00098 17.1485C5.99745 16.7545 5.58246 17.835 5.37323 18.1781L4.49657 17.4844C4.29818 17.3183 4.78147 18.5611 4.87533 19.0778Z" stroke="#F1DE3A" stroke-width="0.0214888" stroke-miterlimit="22.9256"/>
<path fill-rule="evenodd" clip-rule="evenodd" d="M7.06907 19.0778L5.93262 19.0346C5.93626 18.4059 5.93993 17.7772 5.94342 17.1485C5.94709 16.7545 6.36197 17.835 6.57131 18.1781L7.448 17.4844C7.64623 17.3183 7.16293 18.5611 7.06907 19.0778Z" fill="#F1DE3A"/>
<path d="M7.06908 19.0778L5.93262 19.0346C5.93626 18.4059 5.93993 17.7772 5.94342 17.1485C5.94709 16.7545 6.36197 17.835 6.57131 18.1781L7.448 17.4844C7.64623 17.3183 7.16293 18.5611 7.06908 19.0778Z" stroke="#F1DE3A" stroke-width="0.0214888" stroke-miterlimit="22.9256"/>
<path d="M18.8822 27.0953H19.7089L19.4542 26.4207C19.3769 26.2158 19.3192 26.0474 19.2817 25.9152C19.2505 26.0717 19.2068 26.2266 19.15 26.381L18.8822 27.0953ZM18.1791 28.0963L19.1155 25.6592H19.4626L20.4603 28.0963H20.0926L19.8082 27.3582H18.7891L18.5219 28.0963H18.1791ZM16.6249 27.8222H17.2696C17.4438 27.8222 17.5742 27.7866 17.661 27.7156C17.7486 27.6448 17.7917 27.5386 17.7917 27.3967C17.7917 27.2957 17.7667 27.2112 17.7167 27.1437C17.6674 27.0762 17.5976 27.0312 17.509 27.0092C17.4205 26.987 17.2689 26.9758 17.0551 26.9758H16.6249V27.8222ZM16.3022 25.6592H17.883V25.9469H16.6249V26.6981H17.2067C17.4216 26.6981 17.5925 26.7186 17.7196 26.7601C17.8461 26.8008 17.9482 26.8781 18.0244 26.9916C18.1009 27.105 18.1394 27.2372 18.1394 27.3882C18.1394 27.5113 18.1116 27.626 18.0571 27.7333C18.0022 27.8398 17.9204 27.9273 17.8115 27.9948C17.7032 28.0623 17.5182 28.0963 17.2566 28.0963H16.3022V25.6592ZM15.4192 25.6592H15.7415V28.0963H15.4192V25.6592ZM13.6126 27.8222H14.2026C14.4052 27.8222 14.5522 27.7882 14.6435 27.7197C14.7354 27.6515 14.7808 27.5425 14.7808 27.3933C14.7808 27.2912 14.7531 27.206 14.698 27.1375C14.6424 27.0682 14.571 27.0245 14.4835 27.0057C14.3957 26.987 14.2499 26.9774 14.0443 26.9774H13.6126V27.8222ZM13.2896 25.6592H13.6126V26.7H14.1942C14.5755 26.7 14.8262 26.7702 14.9465 26.911C15.0668 27.0518 15.1269 27.2112 15.1269 27.3899C15.1269 27.5783 15.0623 27.7429 14.9341 27.8842C14.8053 28.0254 14.5664 28.0963 14.2174 28.0963H13.2896V25.6592ZM11.3246 26.818H11.955C12.1634 26.818 12.3113 26.7793 12.3988 26.7016C12.4861 26.6239 12.5299 26.5149 12.5299 26.3741C12.5299 26.272 12.5043 26.1848 12.4526 26.1121C12.4009 26.0394 12.3335 25.9919 12.2489 25.9684C12.1944 25.9544 12.0947 25.9469 11.9483 25.9469H11.3246V26.818ZM11.0023 28.0963V25.6592H11.9216C12.0833 25.6592 12.2069 25.6672 12.2921 25.6825C12.4117 25.7023 12.5123 25.7404 12.5934 25.7966C12.6739 25.8521 12.7392 25.931 12.7886 26.0315C12.838 26.1325 12.8623 26.2431 12.8623 26.364C12.8623 26.5711 12.7966 26.747 12.6649 26.8905C12.5327 27.0335 12.2944 27.1057 11.9498 27.1057H11.3246V28.0963H11.0023ZM22.5813 24.2929V21.8558H22.9042V22.8567H24.1707V21.8558H24.4936V24.2929H24.1707V23.1445H22.9042V24.2929H22.5813ZM20.1294 21.8558H20.4218V23.7855L21.7183 21.8558H22.0428V24.2929H21.75V22.3677L20.4517 24.2929H20.1294V21.8558ZM18.0675 21.8558H19.5938V24.2929H19.271V22.1435H18.3904V23.3986C18.3904 23.6535 18.3784 23.8401 18.3545 23.9588C18.3308 24.0772 18.2804 24.1698 18.2042 24.2357C18.1276 24.3014 18.0305 24.3343 17.9131 24.3343C17.8421 24.3343 17.7571 24.3214 17.6573 24.2947L17.7118 24.0086C17.765 24.0309 17.8105 24.0421 17.8485 24.0421C17.9217 24.0421 17.9762 24.0143 18.013 23.9599C18.0492 23.9047 18.0675 23.7754 18.0675 23.5717V21.8558ZM15.9793 23.292H16.806L16.5513 22.6173C16.474 22.4123 16.4163 22.244 16.3788 22.1118C16.3476 22.2683 16.3039 22.4233 16.2471 22.5776L15.9793 23.292ZM15.2763 24.2929L16.2125 21.8558H16.5597L17.5574 24.2929H17.1897L16.9055 23.5547H15.8862L15.619 24.2929H15.2763ZM13.0253 24.2929L13.9683 23.0231L13.137 21.8558H13.5207L13.9632 22.4812C14.0551 22.6105 14.1204 22.7103 14.1589 22.7802C14.2134 22.6917 14.2775 22.5992 14.3519 22.5027L14.8427 21.8558H15.1934L14.3371 23.0044L15.2597 24.2929H14.8608L14.2475 23.4236C14.2129 23.3738 14.1778 23.3193 14.1408 23.2608C14.0863 23.3493 14.0478 23.41 14.0245 23.4436L13.4128 24.2929H13.0253ZM11.4376 23.292H12.2642L12.0095 22.6173C11.9322 22.4123 11.8745 22.244 11.837 22.1118C11.8058 22.2683 11.7621 22.4233 11.7053 22.5776L11.4376 23.292ZM10.7344 24.2929L11.6708 21.8558H12.0179L13.0156 24.2929H12.6479L12.3635 23.5547H11.3444L11.0772 24.2929H10.7344Z" fill="#F1DE3A"/>
<path d="M18.8822 27.0953H19.7089L19.4542 26.4207C19.3769 26.2158 19.3192 26.0474 19.2817 25.9152C19.2505 26.0717 19.2068 26.2266 19.15 26.381L18.8822 27.0953ZM18.1791 28.0963L19.1155 25.6592H19.4626L20.4603 28.0963H20.0926L19.8082 27.3582H18.7891L18.5219 28.0963H18.1791ZM16.6249 27.8222H17.2696C17.4438 27.8222 17.5742 27.7866 17.661 27.7156C17.7486 27.6448 17.7917 27.5386 17.7917 27.3967C17.7917 27.2957 17.7667 27.2112 17.7167 27.1437C17.6674 27.0762 17.5976 27.0312 17.509 27.0092C17.4205 26.987 17.2689 26.9758 17.0551 26.9758H16.6249V27.8222ZM16.3022 25.6592H17.883V25.9469H16.6249V26.6981H17.2067C17.4216 26.6981 17.5925 26.7186 17.7196 26.7601C17.8461 26.8008 17.9482 26.8781 18.0244 26.9916C18.1009 27.105 18.1394 27.2372 18.1394 27.3882C18.1394 27.5113 18.1116 27.626 18.0571 27.7333C18.0022 27.8398 17.9204 27.9273 17.8115 27.9948C17.7032 28.0623 17.5182 28.0963 17.2566 28.0963H16.3022V25.6592ZM15.4192 25.6592H15.7415V28.0963H15.4192V25.6592ZM13.6126 27.8222H14.2026C14.4052 27.8222 14.5522 27.7882 14.6435 27.7197C14.7354 27.6515 14.7808 27.5425 14.7808 27.3933C14.7808 27.2912 14.7531 27.206 14.698 27.1375C14.6424 27.0682 14.571 27.0245 14.4835 27.0057C14.3957 26.987 14.2499 26.9774 14.0443 26.9774H13.6126V27.8222ZM13.2896 25.6592H13.6126V26.7H14.1942C14.5755 26.7 14.8262 26.7702 14.9465 26.911C15.0668 27.0518 15.1269 27.2112 15.1269 27.3899C15.1269 27.5783 15.0623 27.7429 14.9341 27.8842C14.8053 28.0254 14.5664 28.0963 14.2174 28.0963H13.2896V25.6592ZM11.3246 26.818H11.955C12.1634 26.818 12.3113 26.7793 12.3988 26.7016C12.4861 26.6239 12.5299 26.5149 12.5299 26.3741C12.5299 26.272 12.5043 26.1848 12.4526 26.1121C12.4009 26.0394 12.3335 25.9919 12.2489 25.9684C12.1944 25.9544 12.0947 25.9469 11.9483 25.9469H11.3246V26.818ZM11.0023 28.0963V25.6592H11.9216C12.0833 25.6592 12.2069 25.6672 12.2921 25.6825C12.4117 25.7023 12.5123 25.7404 12.5934 25.7966C12.6739 25.8521 12.7392 25.931 12.7886 26.0315C12.838 26.1325 12.8623 26.2431 12.8623 26.364C12.8623 26.5711 12.7966 26.747 12.6649 26.8905C12.5327 27.0335 12.2944 27.1057 11.9498 27.1057H11.3246V28.0963H11.0023ZM22.5813 24.2929V21.8558H22.9042V22.8567H24.1707V21.8558H24.4936V24.2929H24.1707V23.1445H22.9042V24.2929H22.5813ZM20.1294 21.8558H20.4218V23.7855L21.7183 21.8558H22.0428V24.2929H21.75V22.3677L20.4517 24.2929H20.1294V21.8558ZM18.0675 21.8558H19.5938V24.2929H19.271V22.1435H18.3904V23.3986C18.3904 23.6535 18.3784 23.8401 18.3545 23.9588C18.3308 24.0772 18.2804 24.1698 18.2042 24.2357C18.1276 24.3014 18.0305 24.3343 17.9131 24.3343C17.8421 24.3343 17.7571 24.3214 17.6573 24.2947L17.7118 24.0086C17.765 24.0309 17.8105 24.0421 17.8485 24.0421C17.9217 24.0421 17.9762 24.0143 18.013 23.9599C18.0492 23.9047 18.0675 23.7754 18.0675 23.5717V21.8558ZM15.9793 23.292H16.806L16.5513 22.6173C16.474 22.4123 16.4163 22.244 16.3788 22.1118C16.3476 22.2683 16.3039 22.4233 16.2471 22.5776L15.9793 23.292ZM15.2763 24.2929L16.2125 21.8558H16.5597L17.5574 24.2929H17.1897L16.9055 23.5547H15.8862L15.619 24.2929H15.2763ZM13.0253 24.2929L13.9683 23.0231L13.137 21.8558H13.5207L13.9632 22.4812C14.0551 22.6105 14.1204 22.7103 14.1589 22.7802C14.2134 22.6917 14.2775 22.5992 14.3519 22.5027L14.8427 21.8558H15.1934L14.3371 23.0044L15.2597 24.2929H14.8608L14.2475 23.4236C14.2129 23.3738 14.1778 23.3193 14.1408 23.2608C14.0863 23.3493 14.0478 23.41 14.0245 23.4436L13.4128 24.2929H13.0253ZM11.4376 23.292H12.2642L12.0095 22.6173C11.9322 22.4123 11.8745 22.244 11.837 22.1118C11.8058 22.2683 11.7621 22.4233 11.7053 22.5776L11.4376 23.292ZM10.7344 24.2929L11.6708 21.8558H12.0179L13.0156 24.2929H12.6479L12.3635 23.5547H11.3444L11.0772 24.2929H10.7344Z" stroke="#F1DE3A" stroke-width="0.0214888" stroke-miterlimit="22.9256"/>
</svg>
