<svg width="22" height="22" viewBox="0 0 22 22" fill="none" xmlns="http://www.w3.org/2000/svg">
<path d="M7.56258 2.29163C4.65968 2.29163 2.29175 4.65955 2.29175 7.56246V14.4375C2.29175 17.34 4.65959 19.7083 7.56258 19.7083H14.4376C17.3402 19.7083 19.7084 17.3401 19.7084 14.4375V7.56246C19.7084 4.65947 17.3401 2.29163 14.4376 2.29163H7.56258ZM7.56258 3.66663H14.4376C16.5969 3.66663 18.3334 5.4027 18.3334 7.56246V14.4375C18.3334 16.5967 16.5968 18.3333 14.4376 18.3333H7.56258C5.40282 18.3333 3.66675 16.5968 3.66675 14.4375V7.56246C3.66675 5.40261 5.40274 3.66663 7.56258 3.66663ZM15.5834 5.49996C15.077 5.49996 14.6667 5.91017 14.6667 6.41663C14.6667 6.92308 15.077 7.33329 15.5834 7.33329C16.0899 7.33329 16.5001 6.92308 16.5001 6.41663C16.5001 5.91017 16.0899 5.49996 15.5834 5.49996ZM11.0001 6.41663C8.47704 6.41663 6.41675 8.47691 6.41675 11C6.41675 13.523 8.47704 15.5833 11.0001 15.5833C13.5231 15.5833 15.5834 13.523 15.5834 11C15.5834 8.47691 13.5231 6.41663 11.0001 6.41663ZM11.0001 7.79163C12.7799 7.79163 14.2084 9.22017 14.2084 11C14.2084 12.7797 12.7799 14.2083 11.0001 14.2083C9.22029 14.2083 7.79175 12.7797 7.79175 11C7.79175 9.22017 9.22029 7.79163 11.0001 7.79163Z" fill="#232325"/>
</svg>
