<svg width="36" height="36" viewBox="0 0 36 36" fill="none" xmlns="http://www.w3.org/2000/svg">
<circle cx="18" cy="18" r="17.5" stroke="#E9E9E9"/>
<g clip-path="url(#clip0_67_47623)">
<path fill-rule="evenodd" clip-rule="evenodd" d="M22.6836 11.5983C24.591 12.0409 25.3206 13.1563 26.2354 14.6914H22.6836V11.5983ZM11.5366 14.8203C11.91 14.8203 12.1811 15.0006 12.1811 15.4219C12.1811 15.7772 11.8936 16.0654 11.5384 16.0664H7.64453C7.28853 16.0664 7 16.3551 7 16.7109C7 17.0669 7.28853 17.3555 7.64453 17.3555H13.4453C13.8047 17.3555 14.0924 17.6438 14.0924 18C14.0924 18.356 13.8038 18.6445 13.4478 18.6445H7.64453C7.28853 18.6445 7 18.9331 7 19.2891C7 19.6451 7.28853 19.9336 7.64453 19.9336H9.0625V21.8672C9.0625 22.2232 9.35103 22.5117 9.70703 22.5117H11.0026C11.2336 23.6494 12.2388 24.4883 13.4238 24.4883C14.6088 24.4883 15.6141 23.6494 15.845 22.5117H22.3894C22.6203 23.6494 23.6255 24.4883 24.8105 24.4883C25.9955 24.4883 27.0008 23.6494 27.2317 22.5117H28.3555C28.7115 22.5117 29 22.2232 29 21.8672V18C29 16.1089 27.0053 15.9833 27.0035 15.9805H22.0391C21.6831 15.9805 21.3945 15.6919 21.3945 15.3359V11.4688H9.70703C9.35103 11.4688 9.0625 11.7573 9.0625 12.1133V13.5312H8.28906C7.93306 13.5312 7.64453 13.8198 7.64453 14.1758C7.64453 14.5318 7.93306 14.8203 8.28906 14.8203H11.5366ZM25.6461 21.182C26.1075 21.6434 26.1075 22.3919 25.6461 22.8533C24.9039 23.5955 23.6289 23.0675 23.6289 22.0176C23.6289 20.9679 24.9039 20.4398 25.6461 21.182ZM14.2594 21.182C14.7208 21.6434 14.7208 22.3919 14.2594 22.8533C13.5172 23.5955 12.2422 23.0675 12.2422 22.0176C12.2422 20.9679 13.5172 20.4398 14.2594 21.182Z" fill="#00B44B"/>
</g>
<defs>
<clipPath id="clip0_67_47623">
<rect width="22" height="22" fill="white" transform="translate(7 7)"/>
</clipPath>
</defs>
</svg>
