<svg width="20" height="20" viewBox="0 0 20 20" fill="none" xmlns="http://www.w3.org/2000/svg">
<path fill-rule="evenodd" clip-rule="evenodd" d="M11.1758 9.51038C10.8494 9.83676 10.457 9.99996 9.9987 9.99996C9.54036 9.99996 9.148 9.83676 8.82161 9.51038C8.49523 9.18399 8.33203 8.79163 8.33203 8.33329C8.33203 7.87496 8.49523 7.4826 8.82161 7.15621C9.148 6.82982 9.54036 6.66663 9.9987 6.66663C10.457 6.66663 10.8494 6.82982 11.1758 7.15621C11.5022 7.4826 11.6654 7.87496 11.6654 8.33329C11.6654 8.79163 11.5022 9.18399 11.1758 9.51038Z" fill="#232325"/>
<path fill-rule="evenodd" clip-rule="evenodd" d="M9.9987 18.3333C7.76259 16.4305 6.09245 14.6632 4.98828 13.0312C3.88411 11.3993 3.33203 9.88885 3.33203 8.49996C3.33203 6.41663 4.00217 4.7569 5.34245 3.52079C6.68273 2.28468 8.23481 1.66663 9.9987 1.66663C11.7626 1.66663 13.3147 2.28468 14.6549 3.52079C15.9952 4.7569 16.6654 6.41663 16.6654 8.49996C16.6654 9.88885 16.1133 11.3993 15.0091 13.0312C13.9049 14.6632 12.2348 16.4305 9.9987 18.3333ZM13.7695 11.8854C12.9501 13.1562 11.6931 14.5694 9.9987 16.125C8.30425 14.5694 7.04731 13.1562 6.22786 11.8854C5.40842 10.6145 4.9987 9.48607 4.9987 8.49996C4.9987 6.98607 5.48134 5.74649 6.44661 4.78121C7.41189 3.81593 8.59592 3.33329 9.9987 3.33329C11.4015 3.33329 12.5855 3.81593 13.5508 4.78121C14.5161 5.74649 14.9987 6.98607 14.9987 8.49996C14.9987 9.48607 14.589 10.6145 13.7695 11.8854Z" fill="#FEBD18"/>
</svg>
