<svg width="281" height="61" viewBox="0 0 281 61" fill="none" xmlns="http://www.w3.org/2000/svg">
<path d="M0 22.0043L5.97565 13.0654L5.91612 7.31909L7.0055 7.90962C7.57946 8.22059 8.46136 8.37833 9.62735 8.37833C10.5796 8.37833 11.5449 8.27886 12.3964 8.1912C12.674 8.16257 12.9337 8.13594 13.1688 8.11509L15.1632 7.93977L12.2437 10.8638L15.2044 14.5964L13.0573 14.0086C12.7815 13.933 12.5624 13.831 12.369 13.7411C12.1844 13.6552 12.0387 13.5874 11.8915 13.566C11.1952 13.4658 10.445 13.4191 9.5309 13.4191C8.9268 13.4191 8.32346 13.4387 7.71987 13.4583L7.71133 13.4588L14.0097 22.0043H0Z" fill="#F1DE3A"/>
<path d="M1.3645 21.2748H12.5667L6.73185 13.3585L6.77769 13.0484C6.96674 13.0088 6.97958 12.7519 7.1669 12.7463C8.77441 12.6982 10.3758 12.6109 11.9955 12.8443C12.4517 12.9099 12.7622 13.1717 13.2497 13.3051L11.2689 10.808L13.2326 8.84119C11.4903 8.99457 8.38297 9.48532 6.65816 8.55054L6.70745 13.3254L6.69235 13.3049L1.3645 21.2748Z" fill="#F1DE3A"/>
<path d="M30.5842 21.987L36.5237 13.1017L36.4662 7.50781L37.5551 8.09784C38.1293 8.40856 39.0114 8.5663 40.1774 8.5663C41.1304 8.5663 42.0962 8.46683 42.9485 8.37892C43.2253 8.35053 43.4842 8.32391 43.7186 8.30331L45.7135 8.12748L42.7937 11.0518L45.7552 14.7853L43.6071 14.1963C43.3315 14.121 43.1127 14.0192 42.9198 13.9293C42.735 13.8434 42.5893 13.7756 42.4416 13.7542C41.7448 13.6538 40.9948 13.607 40.081 13.607C39.5344 13.607 38.9883 13.6231 38.4422 13.641L44.5942 21.987H30.5842Z" fill="#F1DE3A"/>
<path d="M43.1509 21.258L37.3127 13.3374L37.3275 13.2369C37.5168 13.1972 37.5297 12.9403 37.717 12.9347C39.3245 12.8866 40.9256 12.7993 42.5454 13.0327C43.0018 13.0983 43.3123 13.3599 43.7998 13.4936L41.8189 10.9965L43.7827 9.0296C42.0402 9.18301 38.933 9.67357 37.208 8.73901L37.2553 13.3195L31.9487 21.258H43.1509Z" fill="#F1DE3A"/>
<path d="M12.4568 22.021L21.2251 5.72723L21.1661 0L22.2552 0.59003C22.8289 0.900743 23.7108 1.05849 24.8765 1.05849C25.8288 1.05849 26.7943 0.959018 27.6461 0.871355C27.9237 0.84272 28.1834 0.816094 28.4185 0.795246L30.4129 0.61992L27.4934 3.54395L30.4548 7.27753L28.3067 6.68851C28.0312 6.61315 27.8124 6.51142 27.6195 6.4215C27.4346 6.3356 27.2889 6.26778 27.1412 6.24643C26.4444 6.14595 25.6941 6.09923 24.7803 6.09923C24.1755 6.09923 23.5711 6.11908 22.9663 6.13892L22.9065 6.14068L32.1589 22.021H12.4568Z" fill="#F1DE3A"/>
<path d="M13.677 21.2917H30.8902L21.9859 6.00878L22.0273 5.72883C22.2163 5.68915 22.2292 5.43225 22.4165 5.42669C24.024 5.37859 25.6251 5.29124 27.2449 5.52465C27.7013 5.59031 28.0118 5.85188 28.4993 5.98551L26.5185 3.48844L28.4822 1.52154C26.7397 1.67495 23.6326 2.16552 21.9077 1.23096L21.9566 5.95851L21.9419 5.93342L13.677 21.2917Z" fill="#F1DE3A"/>
<path d="M21.5202 59.5634L21.4966 59.5227C19.0314 54.98 14.4956 53.906 10.1094 52.8671C6.36653 51.9809 2.83162 51.1437 0.677727 48.281L0.532292 48.0881L0.390625 21.0286L22.1368 21.0107L43.8858 21.0278L43.7441 48.0875L43.5987 48.2805C41.4448 51.1429 37.9099 51.9801 34.1672 52.8663C29.8328 53.8926 25.3522 54.9539 22.8685 59.3622L22.1978 60.4044L21.5202 59.5634Z" fill="#F1DE3A"/>
<path d="M22.1372 21.7399L1.12354 21.7569L1.26012 47.8426C5.74066 53.7975 17.4122 50.4672 22.1372 59.175V59.1776L22.1379 59.1763L22.1393 59.1783V59.1741C26.8639 50.4665 38.5356 53.7967 43.0161 47.842L43.1527 21.7563L22.1372 21.739V21.7399Z" fill="#F1DE3A"/>
<path fill-rule="evenodd" clip-rule="evenodd" d="M1.3645 21.2748H12.5667L6.69234 13.3049L1.3645 21.2748Z" fill="#DF000F"/>
<path fill-rule="evenodd" clip-rule="evenodd" d="M31.9487 21.2577H43.1509L37.2763 13.2878L31.9487 21.2577Z" fill="#DF000F"/>
<path fill-rule="evenodd" clip-rule="evenodd" d="M13.6768 21.2919H30.89L21.9417 5.93359L13.6768 21.2919Z" fill="#DF000F"/>
<path fill-rule="evenodd" clip-rule="evenodd" d="M6.70941 13.5106L6.77772 13.0487C6.96676 13.009 6.97962 12.7521 7.16694 12.7465C8.77446 12.6984 10.3758 12.6111 11.9955 12.8445C12.4517 12.9101 12.7623 13.1719 13.2497 13.3054L11.2689 10.8083L13.2327 8.84142C11.4904 8.99479 8.38301 9.48555 6.6582 8.55078L6.70941 13.5106Z" fill="#DF000F"/>
<path fill-rule="evenodd" clip-rule="evenodd" d="M21.9587 6.19055L22.027 5.72884C22.216 5.68914 22.2289 5.43224 22.4162 5.42668C24.0237 5.37859 25.6248 5.29124 27.2446 5.52466C27.701 5.59029 28.0115 5.85187 28.499 5.98552L26.5182 3.48844L28.4819 1.52154C26.7394 1.67496 23.6323 2.16551 21.9075 1.23096L21.9587 6.19055Z" fill="#DF000F"/>
<path fill-rule="evenodd" clip-rule="evenodd" d="M37.2592 13.6986L37.3275 13.2366C37.5168 13.197 37.5297 12.9401 37.717 12.9345C39.3245 12.8864 40.9256 12.799 42.5454 13.0325C43.0018 13.0981 43.3123 13.3597 43.7998 13.4933L41.8189 10.9963L43.7827 9.02936C42.0402 9.18278 38.933 9.67332 37.208 8.73877L37.2592 13.6986Z" fill="#DF000F"/>
<path fill-rule="evenodd" clip-rule="evenodd" d="M22.1372 21.739L43.1527 21.7563L43.0161 47.842C38.5356 53.7966 26.8639 50.4665 22.1393 59.1741V59.1783L22.1379 59.1763L22.1372 59.1776V59.175C17.4122 50.4672 5.74066 53.7975 1.26009 47.8426L1.12354 21.7569L22.1372 21.7399V21.739Z" fill="#DF000F"/>
<path fill-rule="evenodd" clip-rule="evenodd" d="M12.299 32.8198V32.9736V32.9907C12.299 33.1077 12.3819 33.2055 12.4916 33.229C12.5227 33.2431 12.5568 33.2509 12.5936 33.2509C12.6306 33.2509 12.6645 33.2513 12.6949 33.2494C12.7636 33.2549 12.8346 33.2509 12.9181 33.2509C13.0507 33.2509 13.1579 33.1454 13.1613 33.014L13.1688 33.0009L13.1799 32.988C13.2216 32.9443 13.2466 32.8849 13.2466 32.8198V32.7577V32.7513C13.2466 32.7058 13.2349 32.6641 13.2132 32.6278C13.1999 32.5937 13.1782 32.5633 13.1518 32.5387L13.1414 32.5278L13.1329 32.5196L13.1287 32.5156L13.1278 32.5145L13.1183 32.5054L13.1072 32.4937L13.0988 32.4855L13.0946 32.4815L13.0937 32.4804L13.0839 32.4711C13.0593 32.4436 13.0288 32.4219 12.9937 32.4072C12.9572 32.3849 12.913 32.3713 12.8667 32.3713C12.7475 32.3713 12.6534 32.3775 12.577 32.4223C12.4848 32.4447 12.4147 32.4961 12.3586 32.609C12.3493 32.6276 12.3438 32.6484 12.3396 32.6695C12.3143 32.7078 12.299 32.7531 12.299 32.8025V32.8198ZM10.8176 32.5289C10.1433 32.5289 10.2508 33.6566 10.4931 34.0682C10.752 34.5075 12.0527 34.5636 12.5936 34.7523C12.9543 34.8782 14.6598 37.2562 14.6598 35.4534C14.6598 34.8487 14.5033 34.7352 15.1721 34.7352C16.1062 34.7352 16.7796 34.9241 16.0089 33.8117C15.0178 32.3818 14.9929 32.0597 13.2424 31.2803C11.6061 30.5521 10.8688 30.3708 10.8176 32.5289Z" fill="#F1DE3A"/>
<path fill-rule="evenodd" clip-rule="evenodd" d="M4.44165 34.2334C5.64312 36.505 9.10954 33.7472 9.27115 32.6404C9.35159 32.0892 8.66509 34.1799 9.96544 34.1799C11.5178 34.1799 9.43029 34.614 8.95728 35.3718C7.53994 37.6424 9.07742 40.3858 8.97811 40.2687C8.6917 39.9307 6.89552 37.0204 6.37926 37.4404C6.24115 37.553 5.97496 38.0893 5.80823 38.0893C5.76569 38.0893 4.75488 36.6298 4.21001 36.431C3.89214 36.3153 3.8662 37.4138 3.7434 36.2157C3.64899 35.2923 4.09984 34.5738 4.48156 34.0609C6.00729 34.0609 6.82371 33.8242 8.07858 32.9801C8.8965 32.4301 9.61405 32.0617 10.2881 31.3847C10.9341 30.7357 10.0071 30.8702 9.55155 30.8702C8.20913 30.8702 7.33268 31.0934 6.20858 31.7354C5.53473 32.1204 5.16565 32.5057 4.65757 33.2041C4.5281 33.3819 4.39955 34.3737 4.44165 34.2334Z" fill="#F1DE3A"/>
<path d="M4.44165 34.2334C5.64312 36.505 9.10954 33.7472 9.27115 32.6404C9.35159 32.0892 8.66509 34.1799 9.96543 34.1799C11.5178 34.1799 9.43029 34.614 8.95728 35.3718C7.53994 37.6424 9.07742 40.3858 8.97811 40.2687C8.6917 39.9307 6.89552 37.0204 6.37926 37.4404C6.24115 37.553 5.97496 38.0893 5.80823 38.0893C5.76569 38.0893 4.75488 36.6298 4.21001 36.431C3.89214 36.3153 3.8662 37.4138 3.7434 36.2157C3.64899 35.2923 4.09984 34.5738 4.48156 34.0609C6.00729 34.0609 6.82371 33.8242 8.07858 32.9801C8.8965 32.4301 9.61405 32.0617 10.2881 31.3847C10.9341 30.7357 10.0071 30.8702 9.55155 30.8702C8.20913 30.8702 7.33268 31.0934 6.20858 31.7354C5.53473 32.1204 5.16565 32.5057 4.65757 33.2041C4.5281 33.3819 4.39955 34.3737 4.44165 34.2334Z" stroke="#F1DE3A" stroke-width="0.0339044" stroke-miterlimit="22.9256"/>
<path fill-rule="evenodd" clip-rule="evenodd" d="M3.79919 37.1807C4.4735 38.3704 5.48275 40.3617 7.24854 40.9089C7.9825 41.1364 8.5879 40.9859 8.85388 40.2934C8.9955 39.9247 9.61041 41.1175 10.1859 41.1827C11.5101 41.333 13.2649 40.3579 12.9352 40.0367C12.1235 39.2462 11.865 37.0036 12.235 36.8728C12.9417 36.6234 13.6011 38.8038 13.6011 39.3012C13.6011 40.1324 14.2338 39.0137 15.0697 38.4806C15.632 38.1215 16.303 37.8945 16.4859 38.0281C16.7665 38.2334 15.8271 40.1897 14.3013 40.3278C14.2338 40.3337 14.1107 40.2981 14.0985 40.3672C13.7993 42.0579 10.8513 43.5521 7.00961 42.2259C5.18993 41.5979 3.7648 39.3865 3.79919 37.1807Z" fill="#F1DE3A"/>
<path d="M3.79919 37.1807C4.4735 38.3704 5.48275 40.3617 7.24854 40.9089C7.9825 41.1364 8.5879 40.9859 8.85388 40.2934C8.9955 39.9247 9.61041 41.1175 10.1859 41.1827C11.5101 41.333 13.2649 40.3579 12.9352 40.0367C12.1235 39.2462 11.865 37.0036 12.235 36.8728C12.9417 36.6234 13.6011 38.8038 13.6011 39.3012C13.6011 40.1324 14.2338 39.0137 15.0697 38.4806C15.632 38.1215 16.303 37.8945 16.4859 38.0281C16.7665 38.2334 15.8271 40.1897 14.3013 40.3278C14.2338 40.3337 14.1107 40.2981 14.0985 40.3672C13.7993 42.0579 10.8513 43.5521 7.00961 42.2259C5.18993 41.5979 3.7648 39.3865 3.79919 37.1807Z" stroke="#F1DE3A" stroke-width="0.0339044" stroke-miterlimit="22.9256"/>
<path fill-rule="evenodd" clip-rule="evenodd" d="M7.69232 30.1002L9.48542 30.032C9.47965 29.04 9.47412 28.048 9.46834 27.0561C9.46277 26.4345 8.80801 28.1394 8.4779 28.6807L7.09473 27.5861C6.78171 27.3241 7.54424 29.285 7.69232 30.1002Z" fill="#F1DE3A"/>
<path d="M7.69232 30.1002L9.48542 30.032C9.47965 29.04 9.47412 28.048 9.46834 27.0561C9.46277 26.4345 8.80801 28.1394 8.4779 28.6807L7.09473 27.5861C6.78171 27.3241 7.54424 29.285 7.69232 30.1002Z" stroke="#F1DE3A" stroke-width="0.0339044" stroke-miterlimit="22.9256"/>
<path fill-rule="evenodd" clip-rule="evenodd" d="M11.1532 30.1002L9.36011 30.032C9.36585 29.04 9.37164 28.048 9.37715 27.0561C9.38295 26.4345 10.0375 28.1394 10.3678 28.6807L11.751 27.5861C12.0638 27.3241 11.3013 29.285 11.1532 30.1002Z" fill="#F1DE3A"/>
<path d="M11.1532 30.1002L9.36011 30.032C9.36585 29.04 9.37164 28.048 9.37715 27.0561C9.38295 26.4345 10.0375 28.1394 10.3678 28.6807L11.751 27.5861C12.0638 27.3241 11.3013 29.285 11.1532 30.1002Z" stroke="#F1DE3A" stroke-width="0.0339044" stroke-miterlimit="22.9256"/>
<path d="M29.7915 42.7501H31.0958L30.6939 41.6856C30.5719 41.3624 30.4809 41.0967 30.4217 40.8881C30.3725 41.135 30.3035 41.3795 30.214 41.6231L29.7915 42.7501ZM28.682 44.3295L30.1594 40.4842H30.7072L32.2813 44.3295H31.7012L31.2525 43.1648H29.6445L29.2229 44.3295H28.682ZM26.2299 43.897H27.2472C27.522 43.897 27.7278 43.8407 27.8647 43.7288C28.0028 43.617 28.0709 43.4494 28.0709 43.2256C28.0709 43.0662 28.0314 42.933 27.9525 42.8264C27.8747 42.7199 27.7646 42.649 27.6249 42.6142C27.4852 42.5792 27.2461 42.5615 26.9087 42.5615H26.2299V43.897ZM25.7208 40.4842H28.215V40.9382H26.2299V42.1234H27.1479C27.487 42.1234 27.7565 42.1558 27.9572 42.2212C28.1567 42.2854 28.3178 42.4074 28.438 42.5865C28.5588 42.7654 28.6195 42.974 28.6195 43.2123C28.6195 43.4064 28.5756 43.5873 28.4896 43.7567C28.403 43.9247 28.2739 44.0628 28.1021 44.1692C27.9312 44.2758 27.6393 44.3295 27.2265 44.3295H25.7208V40.4842ZM24.3276 40.4842H24.8361V44.3295H24.3276V40.4842ZM21.4771 43.897H22.4081C22.7278 43.897 22.9597 43.8434 23.1037 43.7352C23.2487 43.6277 23.3203 43.4556 23.3203 43.2203C23.3203 43.0591 23.2766 42.9248 23.1897 42.8166C23.1019 42.7073 22.9893 42.6384 22.8513 42.6087C22.7127 42.5792 22.4826 42.5641 22.1583 42.5641H21.4771V43.897ZM20.9675 40.4842H21.4771V42.1263H22.3949C22.9965 42.1263 23.3919 42.2371 23.5819 42.4592C23.7716 42.6814 23.8665 42.933 23.8665 43.2149C23.8665 43.5122 23.7646 43.7718 23.5622 43.9948C23.3591 44.2176 22.982 44.3295 22.4314 44.3295H20.9675V40.4842ZM17.8673 42.3125H18.8619C19.1906 42.3125 19.424 42.2515 19.5621 42.129C19.6998 42.0064 19.769 41.8344 19.769 41.6123C19.769 41.4511 19.7286 41.3134 19.647 41.1989C19.5655 41.084 19.4591 41.0091 19.3256 40.9721C19.2396 40.9499 19.0822 40.9382 18.8513 40.9382H17.8673V42.3125ZM17.3588 44.3295V40.4842H18.8091C19.0643 40.4842 19.2594 40.4968 19.3937 40.521C19.5825 40.5522 19.7412 40.6123 19.8692 40.701C19.9962 40.7885 20.0992 40.9131 20.1771 41.0716C20.2551 41.231 20.2934 41.4055 20.2934 41.5963C20.2934 41.923 20.1897 42.2006 19.982 42.4269C19.7734 42.6526 19.3974 42.7665 18.8537 42.7665H17.8673V44.3295H17.3588ZM35.6278 38.3285V34.4834H36.1372V36.0626H38.1355V34.4834H38.6449V38.3285H38.1355V36.5166H36.1372V38.3285H35.6278ZM31.7592 34.4834H32.2205V37.528L34.2661 34.4834H34.7781V38.3285H34.3161V35.291L32.2677 38.3285H31.7592V34.4834ZM28.506 34.4834H30.9142V38.3285H30.4048V34.9372H29.0154V36.9176C29.0154 37.3197 28.9965 37.614 28.9589 37.8014C28.9214 37.9882 28.8418 38.1343 28.7217 38.2382C28.6009 38.342 28.4477 38.3939 28.2624 38.3939C28.1505 38.3939 28.0163 38.3735 27.8587 38.3314L27.9448 37.88C28.0288 37.9151 28.1006 37.9328 28.1604 37.9328C28.2759 37.9328 28.3619 37.8889 28.42 37.8031C28.4772 37.716 28.506 37.5121 28.506 37.1906V34.4834ZM25.2114 36.7493H26.5157L26.1138 35.6849C25.9919 35.3614 25.9008 35.0959 25.8416 34.8873C25.7924 35.1342 25.7234 35.3788 25.6339 35.6221L25.2114 36.7493ZM24.1021 38.3285L25.5793 34.4834H26.1271L27.7012 38.3285H27.121L26.6726 37.1639H25.0644L24.6428 38.3285H24.1021ZM20.5506 38.3285L22.0384 36.325L20.7268 34.4834H21.3322L22.0304 35.4701C22.1754 35.674 22.2785 35.8316 22.3392 35.9418C22.4252 35.8021 22.5263 35.6563 22.6436 35.504L23.4181 34.4834H23.9714L22.6203 36.2956L24.076 38.3285H23.4466L22.4789 36.957C22.4243 36.8783 22.3689 36.7923 22.3106 36.7001C22.2246 36.8398 22.1639 36.9355 22.1271 36.9885L21.1619 38.3285H20.5506ZM18.0455 36.7493H19.3498L18.9479 35.6849C18.826 35.3614 18.7349 35.0959 18.6757 34.8873C18.6265 35.1342 18.5576 35.3788 18.468 35.6221L18.0455 36.7493ZM16.936 38.3285L18.4134 34.4834H18.9612L20.5353 38.3285H19.9552L19.5065 37.1639H17.8985L17.4769 38.3285H16.936Z" fill="#F1DE3A"/>
<path d="M29.7915 42.7501H31.0958L30.6939 41.6856C30.5719 41.3624 30.4809 41.0967 30.4217 40.8881C30.3725 41.135 30.3035 41.3795 30.214 41.6231L29.7915 42.7501ZM28.682 44.3295L30.1594 40.4842H30.7072L32.2813 44.3295H31.7012L31.2525 43.1648H29.6445L29.2229 44.3295H28.682ZM26.2299 43.897H27.2472C27.522 43.897 27.7278 43.8407 27.8647 43.7288C28.0028 43.617 28.0709 43.4494 28.0709 43.2256C28.0709 43.0662 28.0314 42.933 27.9525 42.8264C27.8747 42.7199 27.7646 42.649 27.6249 42.6142C27.4852 42.5792 27.2461 42.5615 26.9087 42.5615H26.2299V43.897ZM25.7208 40.4842H28.215V40.9382H26.2299V42.1234H27.1479C27.487 42.1234 27.7565 42.1558 27.9572 42.2212C28.1567 42.2854 28.3178 42.4074 28.438 42.5865C28.5588 42.7654 28.6195 42.974 28.6195 43.2123C28.6195 43.4064 28.5756 43.5873 28.4896 43.7567C28.403 43.9247 28.2739 44.0628 28.1021 44.1692C27.9312 44.2758 27.6393 44.3295 27.2265 44.3295H25.7208V40.4842ZM24.3276 40.4842H24.8361V44.3295H24.3276V40.4842ZM21.4771 43.897H22.4081C22.7278 43.897 22.9597 43.8434 23.1037 43.7352C23.2487 43.6277 23.3203 43.4556 23.3203 43.2203C23.3203 43.0591 23.2766 42.9248 23.1897 42.8166C23.1019 42.7073 22.9893 42.6384 22.8513 42.6087C22.7127 42.5792 22.4826 42.5641 22.1583 42.5641H21.4771V43.897ZM20.9675 40.4842H21.4771V42.1263H22.3949C22.9965 42.1263 23.3919 42.2371 23.5819 42.4592C23.7716 42.6814 23.8665 42.933 23.8665 43.2149C23.8665 43.5122 23.7646 43.7718 23.5622 43.9948C23.3591 44.2176 22.982 44.3295 22.4314 44.3295H20.9675V40.4842ZM17.8673 42.3125H18.8619C19.1906 42.3125 19.424 42.2515 19.5621 42.129C19.6998 42.0064 19.769 41.8344 19.769 41.6123C19.769 41.4511 19.7286 41.3134 19.647 41.1989C19.5655 41.084 19.4591 41.0091 19.3256 40.9721C19.2396 40.9499 19.0822 40.9382 18.8513 40.9382H17.8673V42.3125ZM17.3588 44.3295V40.4842H18.8091C19.0643 40.4842 19.2594 40.4968 19.3937 40.521C19.5825 40.5522 19.7412 40.6123 19.8692 40.701C19.9962 40.7885 20.0992 40.9131 20.1771 41.0716C20.2551 41.231 20.2934 41.4055 20.2934 41.5963C20.2934 41.923 20.1897 42.2006 19.982 42.4269C19.7734 42.6526 19.3974 42.7665 18.8537 42.7665H17.8673V44.3295H17.3588ZM35.6278 38.3285V34.4834H36.1372V36.0626H38.1355V34.4834H38.6449V38.3285H38.1355V36.5166H36.1372V38.3285H35.6278ZM31.7592 34.4834H32.2205V37.528L34.2661 34.4834H34.7781V38.3285H34.3161V35.291L32.2677 38.3285H31.7592V34.4834ZM28.506 34.4834H30.9142V38.3285H30.4048V34.9372H29.0154V36.9176C29.0154 37.3197 28.9965 37.614 28.9589 37.8014C28.9214 37.9882 28.8418 38.1343 28.7217 38.2382C28.6009 38.342 28.4477 38.3939 28.2624 38.3939C28.1505 38.3939 28.0164 38.3735 27.8587 38.3314L27.9448 37.88C28.0288 37.9151 28.1006 37.9328 28.1604 37.9328C28.2759 37.9328 28.3619 37.8889 28.42 37.8031C28.4772 37.716 28.506 37.5121 28.506 37.1906V34.4834ZM25.2114 36.7493H26.5157L26.1138 35.6849C25.9919 35.3614 25.9008 35.0959 25.8416 34.8873C25.7924 35.1342 25.7234 35.3788 25.6339 35.6221L25.2114 36.7493ZM24.1021 38.3285L25.5793 34.4834H26.1271L27.7012 38.3285H27.121L26.6726 37.1639H25.0644L24.6428 38.3285H24.1021ZM20.5506 38.3285L22.0384 36.325L20.7268 34.4834H21.3322L22.0304 35.4701C22.1754 35.674 22.2785 35.8316 22.3392 35.9418C22.4252 35.8021 22.5263 35.6563 22.6436 35.504L23.4181 34.4834H23.9714L22.6203 36.2956L24.076 38.3285H23.4466L22.4789 36.957C22.4243 36.8783 22.3689 36.7923 22.3106 36.7001C22.2246 36.8398 22.1639 36.9355 22.1271 36.9885L21.1619 38.3285H20.5506ZM18.0455 36.7493H19.3498L18.9479 35.6849C18.826 35.3614 18.7349 35.0959 18.6757 34.8873C18.6265 35.1342 18.5576 35.3788 18.468 35.6221L18.0455 36.7493ZM16.936 38.3285L18.4134 34.4834H18.9612L20.5353 38.3285H19.9552L19.5065 37.1639H17.8985L17.4769 38.3285H16.936Z" stroke="#F1DE3A" stroke-width="0.0339044" stroke-miterlimit="22.9256"/>
<path d="M65.085 23.5728V32.5588H65.5022L71.4717 23.5728H77.4091L69.867 33.1688C72.6593 33.875 73.9109 35.8003 74.8095 38.4001C75.5797 40.7109 76.2859 43.0535 77.3129 45.2039H72.0494C71.3112 43.7274 70.894 42.0588 70.3806 40.4541C69.6424 38.0151 68.6475 36.1536 66.0158 36.1536H65.085V45.2039H60.2388V23.5728H65.085Z" fill="#DF000F"/>
<path d="M79.6543 23.8614C81.1628 23.6046 83.2811 23.4121 86.2658 23.4121C89.2825 23.4121 91.4328 23.9898 92.8772 25.1452C94.257 26.2363 95.1878 28.0335 95.1878 30.1518C95.1878 32.2702 94.4819 34.0674 93.1981 35.2866C91.529 36.8596 89.0579 37.5653 86.1694 37.5653C85.5276 37.5653 84.9499 37.5336 84.5006 37.4693V45.2039H79.6543V23.8614ZM84.5006 33.6819C84.9177 33.7784 85.4313 33.8106 86.1374 33.8106C88.737 33.8106 90.3417 32.4948 90.3417 30.28C90.3417 28.2903 88.9616 27.103 86.5224 27.103C85.5276 27.103 84.8536 27.1992 84.5006 27.2953V33.6819Z" fill="#DF000F"/>
<path d="M101.381 39.6516L99.8409 45.2039H94.77L101.381 23.5728H107.8L114.508 45.2039H109.244L107.576 39.6516H101.381ZM106.869 35.9928L105.522 31.4034C105.136 30.1198 104.751 28.5151 104.43 27.2315H104.366C104.045 28.5151 103.724 30.1519 103.371 31.4034L102.087 35.9928H106.869Z" fill="#DF000F"/>
<path d="M132.48 44.5943C131.581 45.0436 129.559 45.5568 126.927 45.5568C119.449 45.5568 115.598 40.8713 115.598 34.7093C115.598 27.3275 120.862 23.2197 127.409 23.2197C129.944 23.2197 131.87 23.7331 132.736 24.1824L131.741 28.0658C130.747 27.6486 129.367 27.2637 127.633 27.2637C123.75 27.2637 120.733 29.6062 120.733 34.4203C120.733 38.753 123.301 41.4809 127.665 41.4809C129.142 41.4809 130.779 41.1603 131.741 40.7748L132.48 44.5943Z" fill="#DF000F"/>
<path d="M140.598 23.5728V31.8848H148.653V23.5728H153.532V45.2039H148.653V36.1536H140.598V45.2039H135.688V23.5728H140.598Z" fill="#DF000F"/>
<path d="M162.837 39.6516L161.297 45.2039H156.226L162.837 23.5728H169.256L175.964 45.2039H170.7L169.031 39.6516H162.837ZM168.325 35.9928L166.978 31.4034C166.592 30.1198 166.207 28.5151 165.886 27.2315H165.822C165.501 28.5151 165.18 30.1519 164.827 31.4034L163.544 35.9928H168.325Z" fill="#DF000F"/>
<path d="M176.989 45.2039C177.439 44.4977 177.791 43.6635 178.08 42.7649C178.947 40.2937 179.46 37.7582 181.097 36.1857C181.579 35.7042 182.221 35.351 182.894 35.062V34.966C180.488 34.5167 178.337 32.8476 178.337 29.7025C178.337 27.6807 179.236 26.1401 180.584 25.1131C182.253 23.8293 184.884 23.4121 187.644 23.4121C190.019 23.4121 192.298 23.6046 193.871 23.8614V45.2039H189.024V36.6989H187.837C186.874 36.6989 186.104 36.9878 185.526 37.5336C184.146 38.8493 183.601 41.6094 182.959 43.3745C182.734 44.0163 182.573 44.5299 182.188 45.2039H176.989ZM189.024 27.2314C188.672 27.1671 188.03 27.0387 187.035 27.0387C184.916 27.0387 183.216 27.9375 183.216 30.1518C183.216 32.1415 185.045 33.2009 187.259 33.2009C187.901 33.2009 188.575 33.1688 189.024 33.1044V27.2314Z" fill="#DF000F"/>
<path d="M209.081 23.5728V29.9916C209.081 33.4574 209.017 36.8914 208.824 39.7802H208.953C210.076 37.2447 211.52 34.3881 212.804 32.0778L217.457 23.5728H222.464V45.2039H217.971V38.8173C217.971 35.4797 218.035 32.5271 218.324 29.7026H218.228C217.233 32.2702 215.853 35.1264 214.569 37.405L210.172 45.2039H204.588V23.5728H209.081Z" fill="#DF000F"/>
<path d="M231.577 23.5728V32.5588H231.995L237.964 23.5728H243.901L236.36 33.1688C239.152 33.875 240.403 35.8003 241.302 38.4001C242.072 40.7109 242.778 43.0535 243.805 45.2039H238.542C237.804 43.7274 237.386 42.0588 236.873 40.4541C236.135 38.0151 235.14 36.1536 232.508 36.1536H231.577V45.2039H226.731V23.5728H231.577Z" fill="#DF000F"/>
<path d="M246.147 23.8614C247.655 23.6046 249.774 23.4121 252.758 23.4121C255.775 23.4121 257.925 23.9898 259.37 25.1452C260.75 26.2363 261.68 28.0335 261.68 30.1518C261.68 32.2702 260.974 34.0674 259.69 35.2866C258.022 36.8596 255.551 37.5653 252.662 37.5653C252.02 37.5653 251.443 37.5336 250.993 37.4693V45.2039H246.147V23.8614ZM250.993 33.6819C251.41 33.7784 251.924 33.8106 252.63 33.8106C255.229 33.8106 256.834 32.4948 256.834 30.28C256.834 28.2903 255.454 27.103 253.015 27.103C252.02 27.103 251.346 27.1992 250.993 27.2953V33.6819Z" fill="#DF000F"/>
<path d="M267.874 39.6516L266.333 45.2039H261.263L267.874 23.5728H274.293L281 45.2039H275.737L274.068 39.6516H267.874ZM273.362 35.9928L272.014 31.4034C271.629 30.1198 271.244 28.5151 270.923 27.2315H270.859C270.538 28.5151 270.217 30.1519 269.864 31.4034L268.58 35.9928H273.362Z" fill="#DF000F"/>
</svg>
