<svg width="46" height="61" viewBox="0 0 46 61" fill="none" xmlns="http://www.w3.org/2000/svg">
<path d="M0 22.0049L5.97565 13.066L5.91612 7.3197L7.0055 7.91023C7.57946 8.2212 8.46136 8.37894 9.62735 8.37894C10.5796 8.37894 11.5449 8.27947 12.3964 8.19181C12.674 8.16318 12.9337 8.13655 13.1688 8.1157L15.1632 7.94038L12.2437 10.8644L15.2044 14.597L13.0573 14.0092C12.7815 13.9336 12.5624 13.8316 12.369 13.7417C12.1844 13.6558 12.0387 13.588 11.8915 13.5666C11.1952 13.4664 10.445 13.4197 9.5309 13.4197C8.9268 13.4197 8.32346 13.4393 7.71987 13.4589L7.71133 13.4594L14.0097 22.0049H0Z" fill="#F1DE3A"/>
<path d="M1.36475 21.2756H12.567L6.73209 13.3593L6.77793 13.0493C6.96698 13.0096 6.97982 12.7527 7.16714 12.7471C8.77465 12.699 10.376 12.6117 11.9958 12.8451C12.4519 12.9107 12.7625 13.1725 13.25 13.306L11.2691 10.8089L13.2329 8.84204C11.4906 8.99542 8.38322 9.48617 6.6584 8.55139L6.7077 13.3263L6.6926 13.3058L1.36475 21.2756Z" fill="#F1DE3A"/>
<path d="M30.5845 21.9878L36.524 13.1024L36.4664 7.50854L37.5553 8.09857C38.1295 8.40929 39.0117 8.56703 40.1777 8.56703C41.1307 8.56703 42.0965 8.46756 42.9487 8.37965C43.2255 8.35126 43.4845 8.32464 43.7188 8.30404L45.7137 8.12821L42.794 11.0525L45.7554 14.7861L43.6073 14.1971C43.3318 14.1217 43.113 14.02 42.9201 13.93C42.7352 13.8441 42.5895 13.7763 42.4418 13.755C41.745 13.6545 40.995 13.6078 40.0812 13.6078C39.5346 13.6078 38.9886 13.6239 38.4425 13.6417L44.5945 21.9878H30.5845Z" fill="#F1DE3A"/>
<path d="M43.1509 21.2586L37.3127 13.338L37.3275 13.2375C37.5168 13.1978 37.5297 12.9409 37.717 12.9354C39.3245 12.8873 40.9256 12.7999 42.5454 13.0333C43.0018 13.0989 43.3123 13.3605 43.7998 13.4942L41.8189 10.9971L43.7827 9.03021C42.0402 9.18362 38.933 9.67418 37.208 8.73962L37.2553 13.3201L31.9487 21.2586H43.1509Z" fill="#F1DE3A"/>
<path d="M12.4565 22.0217L21.2248 5.72796L21.1658 0.000732422L22.255 0.590762C22.8287 0.901476 23.7106 1.05922 24.8763 1.05922C25.8285 1.05922 26.7941 0.95975 27.6459 0.872087C27.9234 0.843452 28.1831 0.816827 28.4182 0.795979L30.4126 0.620653L27.4931 3.54468L30.4546 7.27827L28.3065 6.68924C28.0309 6.61389 27.8121 6.51216 27.6192 6.42223C27.4344 6.33633 27.2887 6.26851 27.141 6.24716C26.4442 6.14669 25.6939 6.09997 24.7801 6.09997C24.1753 6.09997 23.5709 6.11981 22.9661 6.13965L22.9063 6.14141L32.1586 22.0217H12.4565Z" fill="#F1DE3A"/>
<path d="M13.6768 21.2925H30.89L21.9856 6.00963L22.027 5.72969C22.2161 5.69 22.2289 5.4331 22.4162 5.42755C24.0238 5.37944 25.6249 5.2921 27.2446 5.52551C27.7011 5.59116 28.0116 5.85274 28.4991 5.98637L26.5182 3.48929L28.482 1.5224C26.7395 1.67581 23.6323 2.16637 21.9075 1.23181L21.9563 5.95936L21.9417 5.93428L13.6768 21.2925Z" fill="#F1DE3A"/>
<path d="M21.5202 59.5641L21.4966 59.5234C19.0314 54.9808 14.4956 53.9067 10.1094 52.8678C6.36653 51.9816 2.83162 51.1444 0.677727 48.2817L0.532292 48.0888L0.390625 21.0293L22.1368 21.0115L43.8858 21.0286L43.7441 48.0883L43.5987 48.2812C41.4448 51.1437 37.9099 51.9809 34.1672 52.867C29.8328 53.8934 25.3522 54.9546 22.8685 59.3629L22.1978 60.4051L21.5202 59.5641Z" fill="#F1DE3A"/>
<path d="M22.1372 21.7406L1.12354 21.7577L1.26012 47.8434C5.74066 53.7983 17.4122 50.4679 22.1372 59.1757V59.1784L22.1379 59.177L22.1393 59.1791V59.1748C26.8639 50.4673 38.5356 53.7974 43.0161 47.8427L43.1527 21.757L22.1372 21.7397V21.7406Z" fill="#F1DE3A"/>
<path fill-rule="evenodd" clip-rule="evenodd" d="M1.36426 21.2757H12.5665L6.69209 13.3058L1.36426 21.2757Z" fill="#DF000F"/>
<path fill-rule="evenodd" clip-rule="evenodd" d="M31.9487 21.2586H43.1509L37.2763 13.2887L31.9487 21.2586Z" fill="#DF000F"/>
<path fill-rule="evenodd" clip-rule="evenodd" d="M13.6768 21.2926H30.89L21.9417 5.93433L13.6768 21.2926Z" fill="#DF000F"/>
<path fill-rule="evenodd" clip-rule="evenodd" d="M6.70941 13.5113L6.77772 13.0494C6.96676 13.0097 6.97962 12.7528 7.16694 12.7472C8.77446 12.6991 10.3758 12.6118 11.9955 12.8452C12.4517 12.9108 12.7623 13.1726 13.2497 13.3061L11.2689 10.809L13.2327 8.84215C11.4904 8.99552 8.38301 9.48628 6.6582 8.55151L6.70941 13.5113Z" fill="#DF000F"/>
<path fill-rule="evenodd" clip-rule="evenodd" d="M21.9589 6.19141L22.0272 5.7297C22.2163 5.69 22.2291 5.4331 22.4165 5.42754C24.024 5.37944 25.6251 5.29209 27.2448 5.52551C27.7013 5.59114 28.0118 5.85272 28.4993 5.98637L26.5184 3.48929L28.4822 1.5224C26.7397 1.67582 23.6325 2.16636 21.9077 1.23181L21.9589 6.19141Z" fill="#DF000F"/>
<path fill-rule="evenodd" clip-rule="evenodd" d="M37.2592 13.6996L37.3275 13.2376C37.5168 13.198 37.5297 12.941 37.717 12.9355C39.3245 12.8874 40.9256 12.8 42.5454 13.0334C43.0018 13.0991 43.3123 13.3607 43.7998 13.4943L41.8189 10.9972L43.7827 9.03034C42.0402 9.18375 38.933 9.6743 37.208 8.73975L37.2592 13.6996Z" fill="#DF000F"/>
<path fill-rule="evenodd" clip-rule="evenodd" d="M22.1372 21.74L43.1527 21.7572L43.0161 47.8429C38.5356 53.7976 26.8639 50.4675 22.1393 59.175V59.1793L22.1379 59.1773L22.1372 59.1786V59.1759C17.4122 50.4682 5.74066 53.7985 1.26009 47.8436L1.12354 21.7579L22.1372 21.7409V21.74Z" fill="#DF000F"/>
<path fill-rule="evenodd" clip-rule="evenodd" d="M12.299 32.8206V32.9745V32.9915C12.299 33.1086 12.3819 33.2063 12.4916 33.2298C12.5227 33.244 12.5568 33.2518 12.5936 33.2518C12.6306 33.2518 12.6645 33.2522 12.6949 33.2502C12.7636 33.2558 12.8346 33.2518 12.9181 33.2518C13.0507 33.2518 13.1579 33.1463 13.1613 33.0148L13.1688 33.0017L13.1799 32.9889C13.2216 32.9452 13.2466 32.8858 13.2466 32.8206V32.7586V32.7521C13.2466 32.7067 13.2349 32.665 13.2132 32.6286C13.1999 32.5945 13.1782 32.5641 13.1518 32.5395L13.1414 32.5287L13.1329 32.5205L13.1287 32.5165L13.1278 32.5154L13.1183 32.5063L13.1072 32.4946L13.0988 32.4864L13.0946 32.4824L13.0937 32.4812L13.0839 32.4719C13.0593 32.4445 13.0288 32.4227 12.9937 32.4081C12.9572 32.3857 12.913 32.3722 12.8667 32.3722C12.7475 32.3722 12.6534 32.3784 12.577 32.4232C12.4848 32.4456 12.4147 32.497 12.3586 32.6098C12.3493 32.6284 12.3438 32.6493 12.3396 32.6703C12.3143 32.7087 12.299 32.7539 12.299 32.8033V32.8206ZM10.8176 32.5298C10.1433 32.5298 10.2508 33.6574 10.4931 34.0691C10.752 34.5084 12.0527 34.5645 12.5936 34.7531C12.9543 34.879 14.6598 37.2571 14.6598 35.4543C14.6598 34.8496 14.5033 34.7361 15.1721 34.7361C16.1062 34.7361 16.7796 34.9249 16.0089 33.8126C15.0178 32.3826 14.9929 32.0605 13.2424 31.2812C11.6061 30.553 10.8688 30.3717 10.8176 32.5298Z" fill="#F1DE3A"/>
<path fill-rule="evenodd" clip-rule="evenodd" d="M4.44189 34.2342C5.64336 36.5058 9.10978 33.7481 9.27139 32.6413C9.35184 32.09 8.66533 34.1808 9.96568 34.1808C11.518 34.1808 9.43054 34.6148 8.95753 35.3727C7.54018 37.6432 9.07767 40.3866 8.97836 40.2695C8.69194 39.9315 6.89576 37.0212 6.37951 37.4413C6.2414 37.5539 5.9752 38.0901 5.80847 38.0901C5.76593 38.0901 4.75513 36.6307 4.21026 36.4318C3.89239 36.3161 3.86644 37.4147 3.74365 36.2166C3.64924 35.2931 4.10009 34.5747 4.48181 34.0618C6.00753 34.0618 6.82395 33.825 8.07882 32.9809C8.89675 32.4309 9.6143 32.0625 10.2884 31.3855C10.9344 30.7365 10.0073 30.8711 9.5518 30.8711C8.20937 30.8711 7.33293 31.0943 6.20882 31.7362C5.53498 32.1212 5.16589 32.5065 4.65781 33.205C4.52835 33.3828 4.39979 34.3745 4.44189 34.2342Z" fill="#F1DE3A"/>
<path d="M4.44189 34.2342C5.64336 36.5058 9.10978 33.7481 9.27139 32.6413C9.35184 32.09 8.66533 34.1808 9.96568 34.1808C11.518 34.1808 9.43054 34.6148 8.95753 35.3727C7.54018 37.6432 9.07767 40.3866 8.97836 40.2695C8.69194 39.9315 6.89576 37.0212 6.37951 37.4413C6.2414 37.5539 5.9752 38.0901 5.80847 38.0901C5.76593 38.0901 4.75513 36.6307 4.21026 36.4318C3.89239 36.3161 3.86644 37.4147 3.74365 36.2166C3.64924 35.2931 4.10009 34.5747 4.48181 34.0618C6.00753 34.0618 6.82395 33.825 8.07882 32.9809C8.89675 32.4309 9.6143 32.0625 10.2884 31.3855C10.9344 30.7365 10.0073 30.8711 9.5518 30.8711C8.20937 30.8711 7.33293 31.0943 6.20882 31.7362C5.53498 32.1212 5.16589 32.5065 4.65781 33.205C4.52835 33.3828 4.39979 34.3745 4.44189 34.2342Z" stroke="#F1DE3A" stroke-width="0.0339044" stroke-miterlimit="22.9256"/>
<path fill-rule="evenodd" clip-rule="evenodd" d="M3.79944 37.1817C4.47374 38.3714 5.48299 40.3627 7.24878 40.9099C7.98275 41.1374 8.58815 40.9868 8.85412 40.2944C8.99575 39.9257 9.61066 41.1185 10.1861 41.1837C11.5104 41.334 13.2651 40.3589 12.9354 40.0377C12.1237 39.2472 11.8653 37.0046 12.2352 36.8738C12.9419 36.6244 13.6014 38.8047 13.6014 39.3022C13.6014 40.1334 14.234 39.0147 15.0699 38.4816C15.6323 38.1225 16.3033 37.8955 16.4862 38.0291C16.7668 38.2344 15.8273 40.1906 14.3016 40.3287C14.234 40.3347 14.111 40.299 14.0988 40.3682C13.7995 42.0588 10.8516 43.5531 7.00985 42.2269C5.19017 41.5989 3.76505 39.3875 3.79944 37.1817Z" fill="#F1DE3A"/>
<path d="M3.79944 37.1817C4.47374 38.3714 5.48299 40.3627 7.24878 40.9099C7.98275 41.1374 8.58815 40.9868 8.85412 40.2944C8.99575 39.9257 9.61066 41.1185 10.1861 41.1837C11.5104 41.334 13.2651 40.3589 12.9354 40.0377C12.1237 39.2472 11.8653 37.0046 12.2352 36.8738C12.9419 36.6244 13.6014 38.8047 13.6014 39.3022C13.6014 40.1334 14.234 39.0147 15.0699 38.4816C15.6323 38.1225 16.3033 37.8955 16.4862 38.0291C16.7668 38.2344 15.8273 40.1906 14.3016 40.3287C14.234 40.3347 14.111 40.299 14.0988 40.3682C13.7995 42.0588 10.8516 43.5531 7.00985 42.2269C5.19017 41.5989 3.76505 39.3875 3.79944 37.1817Z" stroke="#F1DE3A" stroke-width="0.0339044" stroke-miterlimit="22.9256"/>
<path fill-rule="evenodd" clip-rule="evenodd" d="M7.69281 30.1012L9.48591 30.033C9.48014 29.041 9.47461 28.049 9.46883 27.0571C9.46326 26.4355 8.8085 28.1404 8.47839 28.6817L7.09521 27.5871C6.7822 27.3251 7.54473 29.2859 7.69281 30.1012Z" fill="#F1DE3A"/>
<path d="M7.69281 30.1012L9.48591 30.033C9.48014 29.041 9.47461 28.049 9.46883 27.0571C9.46326 26.4355 8.8085 28.1404 8.47839 28.6817L7.09521 27.5871C6.7822 27.3251 7.54473 29.2859 7.69281 30.1012Z" stroke="#F1DE3A" stroke-width="0.0339044" stroke-miterlimit="22.9256"/>
<path fill-rule="evenodd" clip-rule="evenodd" d="M11.1534 30.1012L9.36035 30.033C9.36609 29.041 9.37189 28.049 9.3774 27.0571C9.38319 26.4355 10.0378 28.1404 10.3681 28.6817L11.7513 27.5871C12.064 27.3251 11.3015 29.2859 11.1534 30.1012Z" fill="#F1DE3A"/>
<path d="M11.1534 30.1012L9.36035 30.033C9.36609 29.041 9.37189 28.049 9.3774 27.0571C9.38319 26.4355 10.0378 28.1404 10.3681 28.6817L11.7513 27.5871C12.064 27.3251 11.3015 29.2859 11.1534 30.1012Z" stroke="#F1DE3A" stroke-width="0.0339044" stroke-miterlimit="22.9256"/>
<path d="M29.7915 42.7508H31.0958L30.6939 41.6864C30.5719 41.3632 30.4809 41.0974 30.4217 40.8888C30.3725 41.1358 30.3035 41.3802 30.214 41.6239L29.7915 42.7508ZM28.682 44.3302L30.1594 40.4849H30.7072L32.2813 44.3302H31.7012L31.2525 43.1656H29.6445L29.2229 44.3302H28.682ZM26.2299 43.8978H27.2472C27.522 43.8978 27.7278 43.8414 27.8647 43.7295C28.0028 43.6178 28.0709 43.4502 28.0709 43.2263C28.0709 43.0669 28.0314 42.9337 27.9525 42.8271C27.8747 42.7207 27.7646 42.6497 27.6249 42.615C27.4852 42.5799 27.2461 42.5622 26.9087 42.5622H26.2299V43.8978ZM25.7208 40.4849H28.215V40.9389H26.2299V42.1242H27.1479C27.487 42.1242 27.7565 42.1565 27.9572 42.2219C28.1567 42.2862 28.3178 42.4081 28.438 42.5872C28.5588 42.7661 28.6195 42.9747 28.6195 43.213C28.6195 43.4072 28.5756 43.5881 28.4896 43.7574C28.403 43.9254 28.2739 44.0635 28.1021 44.1699C27.9312 44.2766 27.6393 44.3302 27.2265 44.3302H25.7208V40.4849ZM24.3276 40.4849H24.8361V44.3302H24.3276V40.4849ZM21.4771 43.8978H22.4081C22.7278 43.8978 22.9597 43.8441 23.1037 43.7359C23.2487 43.6284 23.3203 43.4564 23.3203 43.221C23.3203 43.0598 23.2766 42.9255 23.1897 42.8173C23.1019 42.708 22.9893 42.6391 22.8513 42.6094C22.7127 42.5799 22.4826 42.5649 22.1583 42.5649H21.4771V43.8978ZM20.9675 40.4849H21.4771V42.127H22.3949C22.9965 42.127 23.3919 42.2379 23.5819 42.46C23.7716 42.6821 23.8665 42.9337 23.8665 43.2157C23.8665 43.5129 23.7646 43.7725 23.5622 43.9955C23.3591 44.2183 22.982 44.3302 22.4314 44.3302H20.9675V40.4849ZM17.8673 42.3132H18.8619C19.1906 42.3132 19.424 42.2523 19.5621 42.1297C19.6998 42.0071 19.769 41.8351 19.769 41.613C19.769 41.4518 19.7286 41.3142 19.647 41.1996C19.5655 41.0848 19.4591 41.0098 19.3256 40.9728C19.2396 40.9507 19.0822 40.9389 18.8513 40.9389H17.8673V42.3132ZM17.3588 44.3302V40.4849H18.8091C19.0643 40.4849 19.2594 40.4976 19.3937 40.5217C19.5825 40.553 19.7412 40.613 19.8692 40.7017C19.9962 40.7893 20.0992 40.9139 20.1771 41.0723C20.2551 41.2317 20.2934 41.4062 20.2934 41.597C20.2934 41.9238 20.1897 42.2013 19.982 42.4276C19.7734 42.6533 19.3974 42.7672 18.8537 42.7672H17.8673V44.3302H17.3588ZM35.6278 38.3292V34.4841H36.1372V36.0633H38.1355V34.4841H38.6449V38.3292H38.1355V36.5173H36.1372V38.3292H35.6278ZM31.7592 34.4841H32.2205V37.5288L34.2661 34.4841H34.7781V38.3292H34.3161V35.2917L32.2677 38.3292H31.7592V34.4841ZM28.506 34.4841H30.9142V38.3292H30.4048V34.9379H29.0154V36.9183C29.0154 37.3204 28.9965 37.6148 28.9589 37.8021C28.9214 37.989 28.8418 38.135 28.7217 38.239C28.6009 38.3427 28.4477 38.3946 28.2624 38.3946C28.1505 38.3946 28.0163 38.3742 27.8587 38.3321L27.9448 37.8807C28.0288 37.9158 28.1006 37.9335 28.1604 37.9335C28.2759 37.9335 28.3619 37.8897 28.42 37.8039C28.4772 37.7167 28.506 37.5128 28.506 37.1914V34.4841ZM25.2114 36.75H26.5157L26.1138 35.6856C25.9919 35.3622 25.9008 35.0966 25.8416 34.888C25.7924 35.135 25.7234 35.3795 25.6339 35.6229L25.2114 36.75ZM24.1021 38.3292L25.5793 34.4841H26.1271L27.7012 38.3292H27.121L26.6726 37.1646H25.0644L24.6428 38.3292H24.1021ZM20.5506 38.3292L22.0384 36.3258L20.7268 34.4841H21.3322L22.0304 35.4708C22.1754 35.6748 22.2785 35.8323 22.3392 35.9425C22.4252 35.8029 22.5263 35.657 22.6436 35.5047L23.4181 34.4841H23.9714L22.6203 36.2963L24.076 38.3292H23.4466L22.4789 36.9577C22.4243 36.8791 22.3689 36.7931 22.3106 36.7008C22.2246 36.8405 22.1639 36.9362 22.1271 36.9892L21.1619 38.3292H20.5506ZM18.0455 36.75H19.3498L18.9479 35.6856C18.826 35.3622 18.7349 35.0966 18.6757 34.888C18.6265 35.135 18.5576 35.3795 18.468 35.6229L18.0455 36.75ZM16.936 38.3292L18.4134 34.4841H18.9612L20.5353 38.3292H19.9552L19.5065 37.1646H17.8985L17.4769 38.3292H16.936Z" fill="#F1DE3A"/>
<path d="M29.7915 42.7508H31.0958L30.6939 41.6864C30.5719 41.3632 30.4809 41.0974 30.4217 40.8888C30.3725 41.1358 30.3035 41.3802 30.214 41.6239L29.7915 42.7508ZM28.682 44.3302L30.1594 40.4849H30.7072L32.2813 44.3302H31.7012L31.2525 43.1656H29.6445L29.2229 44.3302H28.682ZM26.2299 43.8978H27.2472C27.522 43.8978 27.7278 43.8414 27.8647 43.7295C28.0028 43.6178 28.0709 43.4502 28.0709 43.2263C28.0709 43.0669 28.0314 42.9337 27.9525 42.8271C27.8747 42.7207 27.7646 42.6497 27.6249 42.615C27.4852 42.5799 27.2461 42.5622 26.9087 42.5622H26.2299V43.8978ZM25.7208 40.4849H28.215V40.9389H26.2299V42.1242H27.1479C27.487 42.1242 27.7565 42.1565 27.9572 42.2219C28.1567 42.2862 28.3178 42.4081 28.438 42.5872C28.5588 42.7661 28.6195 42.9747 28.6195 43.213C28.6195 43.4072 28.5756 43.5881 28.4896 43.7574C28.403 43.9254 28.2739 44.0635 28.1021 44.1699C27.9312 44.2766 27.6393 44.3302 27.2265 44.3302H25.7208V40.4849ZM24.3276 40.4849H24.8361V44.3302H24.3276V40.4849ZM21.4771 43.8978H22.4081C22.7278 43.8978 22.9597 43.8441 23.1037 43.7359C23.2487 43.6284 23.3203 43.4564 23.3203 43.221C23.3203 43.0598 23.2766 42.9255 23.1897 42.8173C23.1019 42.708 22.9893 42.6391 22.8513 42.6094C22.7127 42.5799 22.4826 42.5649 22.1583 42.5649H21.4771V43.8978ZM20.9675 40.4849H21.4771V42.127H22.3949C22.9965 42.127 23.3919 42.2379 23.5819 42.46C23.7716 42.6821 23.8665 42.9337 23.8665 43.2157C23.8665 43.5129 23.7646 43.7725 23.5622 43.9955C23.3591 44.2183 22.982 44.3302 22.4314 44.3302H20.9675V40.4849ZM17.8673 42.3132H18.8619C19.1906 42.3132 19.424 42.2523 19.5621 42.1297C19.6998 42.0071 19.769 41.8351 19.769 41.613C19.769 41.4518 19.7286 41.3142 19.647 41.1996C19.5655 41.0848 19.4591 41.0098 19.3256 40.9728C19.2396 40.9507 19.0822 40.9389 18.8513 40.9389H17.8673V42.3132ZM17.3588 44.3302V40.4849H18.8091C19.0643 40.4849 19.2594 40.4976 19.3937 40.5217C19.5825 40.553 19.7412 40.613 19.8692 40.7017C19.9962 40.7893 20.0992 40.9139 20.1771 41.0723C20.2551 41.2317 20.2934 41.4062 20.2934 41.597C20.2934 41.9238 20.1897 42.2013 19.982 42.4276C19.7734 42.6533 19.3974 42.7672 18.8537 42.7672H17.8673V44.3302H17.3588ZM35.6278 38.3292V34.4841H36.1372V36.0633H38.1355V34.4841H38.6449V38.3292H38.1355V36.5173H36.1372V38.3292H35.6278ZM31.7592 34.4841H32.2205V37.5288L34.2661 34.4841H34.7781V38.3292H34.3161V35.2917L32.2677 38.3292H31.7592V34.4841ZM28.506 34.4841H30.9142V38.3292H30.4048V34.9379H29.0154V36.9183C29.0154 37.3204 28.9965 37.6148 28.9589 37.8021C28.9214 37.989 28.8418 38.135 28.7217 38.239C28.6009 38.3427 28.4477 38.3946 28.2624 38.3946C28.1505 38.3946 28.0164 38.3742 27.8587 38.3321L27.9448 37.8807C28.0288 37.9158 28.1006 37.9335 28.1604 37.9335C28.2759 37.9335 28.3619 37.8897 28.42 37.8039C28.4772 37.7167 28.506 37.5128 28.506 37.1914V34.4841ZM25.2114 36.75H26.5157L26.1138 35.6856C25.9919 35.3622 25.9008 35.0966 25.8416 34.888C25.7924 35.135 25.7234 35.3795 25.6339 35.6229L25.2114 36.75ZM24.1021 38.3292L25.5793 34.4841H26.1271L27.7012 38.3292H27.121L26.6726 37.1646H25.0644L24.6428 38.3292H24.1021ZM20.5506 38.3292L22.0384 36.3258L20.7268 34.4841H21.3322L22.0304 35.4708C22.1754 35.6748 22.2785 35.8323 22.3392 35.9425C22.4252 35.8029 22.5263 35.657 22.6436 35.5047L23.4181 34.4841H23.9714L22.6203 36.2963L24.076 38.3292H23.4466L22.4789 36.9577C22.4243 36.8791 22.3689 36.7931 22.3106 36.7008C22.2246 36.8405 22.1639 36.9362 22.1271 36.9892L21.1619 38.3292H20.5506ZM18.0455 36.75H19.3498L18.9479 35.6856C18.826 35.3622 18.7349 35.0966 18.6757 34.888C18.6265 35.135 18.5576 35.3795 18.468 35.6229L18.0455 36.75ZM16.936 38.3292L18.4134 34.4841H18.9612L20.5353 38.3292H19.9552L19.5065 37.1646H17.8985L17.4769 38.3292H16.936Z" stroke="#F1DE3A" stroke-width="0.0339044" stroke-miterlimit="22.9256"/>
</svg>
