<svg width="36" height="36" viewBox="0 0 36 36" fill="none" xmlns="http://www.w3.org/2000/svg">
<circle opacity="0.13" cx="17.5227" cy="17.8582" r="13.1418" fill="#6A2AFF"/>
<path d="M2.13219 13.388C2.36184 12.1697 3.42604 11.2874 4.66578 11.2874L32.8904 11.2874C34.5057 11.2874 35.7231 12.7565 35.4238 14.3439C34.8787 17.2356 34.4384 19.5715 33.868 22.5973C33.6384 23.8156 32.574 24.6991 31.3342 24.6991H3.10962C1.49429 24.6991 0.276803 23.2307 0.576028 21.6433L2.13219 13.388Z" fill="#6A2AFF"/>
<path d="M8.45064 21.3164H7.10124L7.10124 14.2372H8.03544L12.2497 19.0536V14.3929H13.5991V21.4513H12.6649L8.45064 16.635V21.3164ZM19.0208 14.3929V15.5555H16.5296V17.1021H18.917V18.2647H16.5296V20.1538H19.0208V21.3164H15.1802V14.3929H19.0208ZM24.5751 16.9257L22.9662 21.4721H22.0112L19.5615 14.3929H20.994L22.5406 19.1055L24.2325 14.3307H24.9799L26.5784 19.1055L28.2392 14.3929H29.6717L27.0663 21.4721H26.1113L24.5751 16.9257Z" fill="white"/>
</svg>
