<svg width="36" height="36" viewBox="0 0 36 36" fill="none" xmlns="http://www.w3.org/2000/svg">
<circle opacity="0.3" cx="17.5227" cy="17.8582" r="13.1418" fill="#FEBD18"/>
<path d="M2.13219 13.388C2.36184 12.1697 3.42604 11.2874 4.66578 11.2874L32.8904 11.2874C34.5057 11.2874 35.7231 12.7565 35.4238 14.3439C34.8787 17.2356 34.4384 19.5715 33.868 22.5973C33.6384 23.8156 32.574 24.6991 31.3342 24.6991H3.10962C1.49429 24.6991 0.276803 23.2307 0.576028 21.6433L2.13219 13.388Z" fill="#FEBD18"/>
<path d="M13.274 14.3929V17.071H16.2011V14.3929H17.5505V21.3164H16.2011V18.2335H13.274V21.3164H11.9246V14.3929H13.274ZM19.1318 14.3929H20.4812V21.3164H19.1318V14.3929ZM25.7981 15.5555H24.2411V21.3164H22.8917V15.5555H21.3347V14.3929H25.7981V15.5555Z" fill="#232325"/>
</svg>
