<svg width="20" height="20" viewBox="0 0 20 20" fill="none" xmlns="http://www.w3.org/2000/svg">
<path d="M13.5416 2.08331C12.5079 2.08331 11.6666 2.92456 11.6666 3.95831V4.16665H2.29162C2.2088 4.16547 2.12657 4.18078 2.04971 4.21166C1.97286 4.24254 1.90291 4.28839 1.84393 4.34655C1.78495 4.4047 1.73811 4.47399 1.70614 4.55041C1.67418 4.62682 1.65771 4.70882 1.65771 4.79165C1.65771 4.87447 1.67418 4.95648 1.70614 5.03289C1.73811 5.1093 1.78495 5.17859 1.84393 5.23675C1.90291 5.2949 1.97286 5.34075 2.04971 5.37163C2.12657 5.40252 2.2088 5.41782 2.29162 5.41665H11.6666V5.62498C11.6666 6.65873 12.5079 7.49998 13.5416 7.49998C14.5754 7.49998 15.4166 6.65873 15.4166 5.62498V5.41665H17.7083C17.7911 5.41782 17.8733 5.40252 17.9502 5.37163C18.027 5.34075 18.097 5.2949 18.156 5.23675C18.215 5.17859 18.2618 5.1093 18.2938 5.03289C18.3257 4.95648 18.3422 4.87447 18.3422 4.79165C18.3422 4.70882 18.3257 4.62682 18.2938 4.55041C18.2618 4.47399 18.215 4.4047 18.156 4.34655C18.097 4.28839 18.027 4.24254 17.9502 4.21166C17.8733 4.18078 17.7911 4.16547 17.7083 4.16665H15.4166V3.95831C15.4166 2.92456 14.5754 2.08331 13.5416 2.08331ZM6.45828 7.29165C5.42453 7.29165 4.58328 8.1329 4.58328 9.16665V9.37498H2.29162C2.2088 9.37381 2.12657 9.38911 2.04971 9.41999C1.97286 9.45088 1.90291 9.49673 1.84393 9.55488C1.78495 9.61303 1.73811 9.68233 1.70614 9.75874C1.67418 9.83515 1.65771 9.91715 1.65771 9.99998C1.65771 10.0828 1.67418 10.1648 1.70614 10.2412C1.73811 10.3176 1.78495 10.3869 1.84393 10.4451C1.90291 10.5032 1.97286 10.5491 2.04971 10.58C2.12657 10.6108 2.2088 10.6262 2.29162 10.625H4.58328V10.8333C4.58328 11.8671 5.42453 12.7083 6.45828 12.7083C7.49203 12.7083 8.33328 11.8671 8.33328 10.8333V10.625H17.7083C17.7911 10.6262 17.8733 10.6108 17.9502 10.58C18.027 10.5491 18.097 10.5032 18.156 10.4451C18.215 10.3869 18.2618 10.3176 18.2938 10.2412C18.3257 10.1648 18.3422 10.0828 18.3422 9.99998C18.3422 9.91715 18.3257 9.83515 18.2938 9.75874C18.2618 9.68233 18.215 9.61303 18.156 9.55488C18.097 9.49673 18.027 9.45088 17.9502 9.41999C17.8733 9.38911 17.7911 9.37381 17.7083 9.37498H8.33328V9.16665C8.33328 8.1329 7.49203 7.29165 6.45828 7.29165ZM12.7083 12.5C11.6745 12.5 10.8333 13.3412 10.8333 14.375V14.5833H2.29162C2.2088 14.5821 2.12657 14.5974 2.04971 14.6283C1.97286 14.6592 1.90291 14.7051 1.84393 14.7632C1.78495 14.8214 1.73811 14.8907 1.70614 14.9671C1.67418 15.0435 1.65771 15.1255 1.65771 15.2083C1.65771 15.2911 1.67418 15.3731 1.70614 15.4496C1.73811 15.526 1.78495 15.5953 1.84393 15.6534C1.90291 15.7116 1.97286 15.7574 2.04971 15.7883C2.12657 15.8192 2.2088 15.8345 2.29162 15.8333H10.8333V16.0416C10.8333 17.0754 11.6745 17.9166 12.7083 17.9166C13.742 17.9166 14.5833 17.0754 14.5833 16.0416V15.8333H17.7083C17.7911 15.8345 17.8733 15.8192 17.9502 15.7883C18.027 15.7574 18.097 15.7116 18.156 15.6534C18.215 15.5953 18.2618 15.526 18.2938 15.4496C18.3257 15.3731 18.3422 15.2911 18.3422 15.2083C18.3422 15.1255 18.3257 15.0435 18.2938 14.9671C18.2618 14.8907 18.215 14.8214 18.156 14.7632C18.097 14.7051 18.027 14.6592 17.9502 14.6283C17.8733 14.5974 17.7911 14.5821 17.7083 14.5833H14.5833V14.375C14.5833 13.3412 13.742 12.5 12.7083 12.5Z" fill="#232325"/>
</svg>
