<svg width="8" height="9" viewBox="0 0 8 9" fill="none" xmlns="http://www.w3.org/2000/svg">
<path opacity="0.3" d="M3.23269 0.324957C3.10374 0.324046 3.00007 0.428946 3.00098 0.55737L3.00147 3.32606L0.233884 3.32606C0.105459 3.32514 -0.000905407 3.43016 5.82492e-06 3.55911L5.85849e-06 4.32709L5.892e-06 5.09372C-0.000905329 5.22267 0.103995 5.32635 0.232419 5.32543H3.00001L3.00098 8.094C3.00007 8.22243 3.10508 8.32733 3.23403 8.32642H4.00067H4.76865C4.8976 8.32733 5.00127 8.22096 5.00036 8.09254L5.00146 5.32543H7.76905C7.89748 5.32635 8.00238 5.22133 8.00146 5.09238V4.32575V3.55777C8.00238 3.42882 7.89601 3.32514 7.76759 3.32606L5.00098 3.32642L5.00036 0.558835C5.00127 0.430411 4.89626 0.324046 4.76731 0.324957H3.99933H3.23269Z" fill="#2E2F31"/>
</svg>
