<svg width="20" height="20" viewBox="0 0 20 20" fill="none" xmlns="http://www.w3.org/2000/svg">
<path d="M13.1259 4.16665C13.043 4.16548 12.9608 4.18078 12.884 4.21166C12.8071 4.24254 12.7372 4.28839 12.6782 4.34655C12.6192 4.4047 12.5724 4.474 12.5404 4.55041C12.5084 4.62682 12.492 4.70882 12.492 4.79165C12.492 4.87448 12.5084 4.95648 12.5404 5.03289C12.5724 5.1093 12.6192 5.1786 12.6782 5.23675C12.7372 5.2949 12.8071 5.34075 12.884 5.37163C12.9608 5.40252 13.043 5.41782 13.1259 5.41665C13.9391 5.41665 14.5842 6.06177 14.5842 6.87498C14.583 6.9578 14.5983 7.04003 14.6292 7.11688C14.6601 7.19374 14.7059 7.26369 14.7641 7.32267C14.8222 7.38165 14.8915 7.42849 14.968 7.46045C15.0444 7.49242 15.1264 7.50888 15.2092 7.50888C15.292 7.50888 15.374 7.49242 15.4504 7.46045C15.5268 7.42849 15.5961 7.38165 15.6543 7.32267C15.7125 7.26369 15.7583 7.19374 15.7892 7.11688C15.8201 7.04003 15.8354 6.9578 15.8342 6.87498C15.8342 5.38653 14.6143 4.16665 13.1259 4.16665Z" fill="#232325"/>
<path fill-rule="evenodd" clip-rule="evenodd" d="M6.00672 1.6699C5.81908 1.66012 5.62677 1.68563 5.44032 1.74966L3.92013 2.27212C2.22532 2.85375 1.27004 4.69798 1.82704 6.41111C2.47263 8.3945 3.75895 11.1832 6.2883 13.7125C8.81765 16.2419 11.6063 17.5282 13.5897 18.1738C15.3029 18.7308 17.1471 17.7755 17.7287 16.0807L18.2512 14.5605H18.2528C18.5086 13.8144 18.139 12.9834 17.4146 12.6725L14.5956 11.4632C13.9658 11.1933 13.2303 11.336 12.745 11.8213L11.591 12.9736C11.1947 12.7841 10.2795 12.3033 8.98849 11.0124C7.69752 9.72137 7.21654 8.80584 7.02723 8.40981L8.17957 7.25584C8.66409 6.77133 8.80739 6.03598 8.53765 5.40525L7.32834 2.58787V2.58624C7.09493 2.0425 6.56967 1.69926 6.00672 1.6699ZM5.84559 2.9313C5.98273 2.8842 6.12174 2.94514 6.17925 3.07941L7.38856 5.89679C7.45882 6.06107 7.42127 6.24657 7.29579 6.37205L5.81792 7.85154C5.73116 7.93816 5.67179 8.04837 5.64719 8.16847C5.6226 8.28857 5.63386 8.41325 5.67957 8.527C5.67957 8.527 6.33532 10.1268 8.10471 11.8961C9.87409 13.6655 11.4738 14.3213 11.4738 14.3213C11.5876 14.367 11.7123 14.3782 11.8324 14.3537C11.9525 14.3291 12.0627 14.2697 12.1493 14.1829L13.6288 12.7051C13.7552 12.5787 13.9405 12.5422 14.1041 12.6123L16.9214 13.8216C17.0553 13.8791 17.1171 14.0164 17.0695 14.1553L16.5471 15.6754C16.1804 16.744 15.0423 17.3304 13.9771 16.984C12.1305 16.383 9.52607 15.1827 7.17209 12.8288C4.81811 10.4748 3.61789 7.87036 3.01681 6.02374C2.67048 4.95854 3.25689 3.82046 4.32541 3.45376L5.84559 2.9313Z" fill="#FEBD18"/>
<path d="M13.1259 0.833314C13.043 0.832143 12.9608 0.847444 12.884 0.878327C12.8071 0.909211 12.7372 0.955062 12.6782 1.01321C12.6192 1.07137 12.5724 1.14066 12.5404 1.21707C12.5084 1.29348 12.492 1.37549 12.492 1.45831C12.492 1.54114 12.5084 1.62314 12.5404 1.69956C12.5724 1.77597 12.6192 1.84526 12.6782 1.90341C12.7372 1.96157 12.8071 2.00742 12.884 2.0383C12.9608 2.06919 13.043 2.08449 13.1259 2.08331C15.7798 2.08331 17.9175 4.22106 17.9175 6.87498C17.9164 6.9578 17.9317 7.04003 17.9625 7.11688C17.9934 7.19374 18.0393 7.26369 18.0974 7.32267C18.1556 7.38165 18.2249 7.42849 18.3013 7.46045C18.3777 7.49242 18.4597 7.50888 18.5425 7.50888C18.6254 7.50888 18.7074 7.49242 18.7838 7.46045C18.8602 7.42849 18.9295 7.38165 18.9876 7.32267C19.0458 7.26369 19.0916 7.19374 19.1225 7.11688C19.1534 7.04003 19.1687 6.9578 19.1675 6.87498C19.1675 3.54557 16.4553 0.833314 13.1259 0.833314Z" fill="#232325"/>
</svg>
