<svg width="50" height="66" viewBox="0 0 50 66" fill="none" xmlns="http://www.w3.org/2000/svg">
<path d="M50 25.0931C50 47.4866 25 66 25 66C25 66 0 47.4866 0 25.0931C0 11.2347 11.193 0 25 0C38.807 0 50 11.2347 50 25.0931Z" fill="#E82E2E"/>
<path d="M25 45C36.0457 45 45 36.0457 45 25C45 13.9543 36.0457 5 25 5C13.9543 5 5 13.9543 5 25C5 36.0457 13.9543 45 25 45Z" fill="white"/>
<path fill-rule="evenodd" clip-rule="evenodd" d="M29.7333 19.079V19.3792V19.4126C29.7333 19.641 29.8951 19.8319 30.1093 19.8777C30.1699 19.9054 30.2366 19.9207 30.3084 19.9207C30.3807 19.9207 30.4469 19.9214 30.5062 19.9176C30.6403 19.9284 30.7789 19.9207 30.942 19.9207C31.2008 19.9207 31.4102 19.7146 31.4167 19.458L31.4314 19.4325L31.453 19.4074C31.5344 19.3221 31.5833 19.2061 31.5833 19.079V18.9578V18.9452C31.5833 18.8565 31.5604 18.7751 31.518 18.7041C31.492 18.6375 31.4496 18.5782 31.3981 18.5302L31.3778 18.509L31.3613 18.493L31.3531 18.4851L31.3514 18.483L31.3327 18.4653L31.3111 18.4423L31.2946 18.4263L31.2864 18.4185L31.2847 18.4163L31.2656 18.3982C31.2176 18.3445 31.1579 18.3021 31.0896 18.2736C31.0182 18.2299 30.932 18.2034 30.8416 18.2034C30.6088 18.2034 30.4252 18.2155 30.2759 18.303C30.0959 18.3467 29.9592 18.4471 29.8497 18.6674C29.8316 18.7037 29.8207 18.7444 29.8125 18.7855C29.7632 18.8604 29.7333 18.9487 29.7333 19.0451V19.079ZM26.8412 18.5111C25.5248 18.5111 25.7347 20.7126 26.2077 21.5161C26.7132 22.3738 29.2525 22.4833 30.3084 22.8516C31.0125 23.0974 34.342 27.7399 34.342 24.2204C34.342 23.0399 34.0366 22.8183 35.3422 22.8183C37.1658 22.8183 38.4804 23.187 36.9758 21.0154C35.0409 18.2238 34.9925 17.595 31.5751 16.0735C28.3805 14.6519 26.9412 14.2979 26.8412 18.5111Z" fill="#E2CD12"/>
<path fill-rule="evenodd" clip-rule="evenodd" d="M14.3879 21.8385C16.7335 26.2732 23.5007 20.8894 23.8162 18.7287C23.9733 17.6525 22.633 21.7342 25.1716 21.7342C28.2022 21.7342 24.1269 22.5815 23.2035 24.061C20.4365 28.4937 23.438 33.8494 23.2441 33.6208C22.685 32.9609 19.1784 27.2794 18.1706 28.0994C17.901 28.3193 17.3813 29.3661 17.0558 29.3661C16.9727 29.3661 14.9994 26.5169 13.9357 26.1287C13.3152 25.9029 13.2645 28.0475 13.0248 25.7085C12.8405 23.9057 13.7206 22.5031 14.4658 21.5018C17.4444 21.5018 19.0382 21.0396 21.488 19.3917C23.0848 18.318 24.4856 17.5988 25.8016 16.2772C27.0627 15.0101 25.2529 15.2728 24.3636 15.2728C21.7429 15.2728 20.0319 15.7086 17.8374 16.9619C16.5219 17.7135 15.8013 18.4656 14.8094 19.8292C14.5567 20.1763 14.3057 22.1124 14.3879 21.8385Z" fill="#E2CD12"/>
<path d="M14.3879 21.8385C16.7335 26.2732 23.5007 20.8894 23.8162 18.7287C23.9733 17.6525 22.633 21.7342 25.1716 21.7342C28.2022 21.7342 24.1269 22.5815 23.2035 24.061C20.4365 28.4937 23.438 33.8494 23.2441 33.6208C22.685 32.9609 19.1784 27.2794 18.1706 28.0994C17.901 28.3193 17.3813 29.3661 17.0558 29.3661C16.9727 29.3661 14.9994 26.5169 13.9357 26.1287C13.3152 25.9029 13.2645 28.0475 13.0248 25.7085C12.8405 23.9057 13.7206 22.5031 14.4658 21.5018C17.4444 21.5018 19.0382 21.0396 21.488 19.3917C23.0848 18.318 24.4856 17.5988 25.8016 16.2772C27.0627 15.0101 25.2529 15.2728 24.3636 15.2728C21.7429 15.2728 20.0319 15.7086 17.8374 16.9619C16.5219 17.7135 15.8013 18.4656 14.8094 19.8292C14.5567 20.1763 14.3057 22.1124 14.3879 21.8385Z" stroke="#E2CD12" stroke-width="0.0339044" stroke-miterlimit="22.9256"/>
<path fill-rule="evenodd" clip-rule="evenodd" d="M13.134 27.5926C14.4504 29.9152 16.4207 33.8026 19.8679 34.871C21.3008 35.315 22.4827 35.0212 23.0019 33.6692C23.2784 32.9496 24.4788 35.2782 25.6023 35.4054C28.1875 35.6989 31.6132 33.7952 30.9696 33.1681C29.3849 31.6249 28.8803 27.2469 29.6026 26.9915C30.9822 26.5047 32.2696 30.7612 32.2696 31.7323C32.2696 33.355 33.5047 31.171 35.1366 30.1303C36.2344 29.4292 37.5444 28.9861 37.9014 29.247C38.4493 29.6478 36.6152 33.4667 33.6366 33.7364C33.5047 33.748 33.2645 33.6784 33.2407 33.8134C32.6565 37.1139 26.9014 40.0311 19.4015 37.4419C15.849 36.216 13.0669 31.8989 13.134 27.5926Z" fill="#E2CD12"/>
<path d="M13.134 27.5926C14.4504 29.9152 16.4207 33.8026 19.8679 34.871C21.3008 35.315 22.4827 35.0212 23.0019 33.6692C23.2784 32.9496 24.4788 35.2782 25.6023 35.4054C28.1875 35.6989 31.6132 33.7952 30.9696 33.1681C29.3849 31.6249 28.8803 27.2469 29.6026 26.9915C30.9822 26.5047 32.2696 30.7612 32.2696 31.7323C32.2696 33.355 33.5047 31.171 35.1366 30.1303C36.2344 29.4292 37.5444 28.9861 37.9014 29.247C38.4493 29.6478 36.6152 33.4667 33.6366 33.7364C33.5047 33.748 33.2645 33.6784 33.2407 33.8134C32.6565 37.1139 26.9014 40.0311 19.4015 37.4419C15.849 36.216 13.0669 31.8989 13.134 27.5926Z" stroke="#E2CD12" stroke-width="0.0339044" stroke-miterlimit="22.9256"/>
<path fill-rule="evenodd" clip-rule="evenodd" d="M20.7383 13.7698L24.2388 13.6366C24.2275 11.7001 24.2168 9.76346 24.2055 7.82694C24.1946 6.61348 22.9164 9.94178 22.2719 10.9986L19.5716 8.86167C18.9605 8.35012 20.4492 12.1782 20.7383 13.7698Z" fill="#E2CD12"/>
<path d="M20.7383 13.7698L24.2388 13.6366C24.2275 11.7001 24.2168 9.76347 24.2055 7.82694C24.1946 6.61348 22.9164 9.94178 22.2719 10.9986L19.5716 8.86167C18.9605 8.35012 20.4492 12.1782 20.7383 13.7698Z" stroke="#E2CD12" stroke-width="0.0339044" stroke-miterlimit="22.9256"/>
<path fill-rule="evenodd" clip-rule="evenodd" d="M27.4966 13.7698L23.9961 13.6366C24.0073 11.7001 24.0186 9.76346 24.0294 7.82694C24.0407 6.61348 25.3186 9.94178 25.9634 10.9986L28.6637 8.86167C29.2743 8.35012 27.7857 12.1782 27.4966 13.7698Z" fill="#E2CD12"/>
<path d="M27.4966 13.7698L23.9961 13.6366C24.0073 11.7001 24.0186 9.76347 24.0294 7.82694C24.0407 6.61348 25.3186 9.94178 25.9634 10.9986L28.6637 8.86167C29.2743 8.35012 27.7857 12.1782 27.4966 13.7698Z" stroke="#E2CD12" stroke-width="0.0339044" stroke-miterlimit="22.9256"/>
</svg>
