<svg width="28" height="28" viewBox="0 0 28 28" fill="none" xmlns="http://www.w3.org/2000/svg">
<path d="M2.04176 3.50009C1.92581 3.49845 1.81069 3.51987 1.7031 3.56311C1.5955 3.60634 1.49757 3.67053 1.41499 3.75195C1.33242 3.83336 1.26685 3.93037 1.2221 4.03735C1.17734 4.14432 1.1543 4.25913 1.1543 4.37509C1.1543 4.49105 1.17734 4.60585 1.2221 4.71282C1.26685 4.8198 1.33242 4.91681 1.41499 4.99823C1.49757 5.07964 1.5955 5.14383 1.7031 5.18707C1.81069 5.23031 1.92581 5.25173 2.04176 5.25009H3.64934C4.07397 5.25009 4.42793 5.54346 4.50839 5.96102L4.68271 6.87248L6.56373 16.7516C6.90388 18.5339 8.47425 19.8334 10.2893 19.8334H21.2109C23.0259 19.8334 24.597 18.5344 24.9365 16.7516L26.8175 6.87248C26.8416 6.746 26.8375 6.61574 26.8055 6.49101C26.7735 6.36629 26.7144 6.25016 26.6323 6.15091C26.5503 6.05167 26.4473 5.97176 26.3308 5.91688C26.2144 5.862 26.0872 5.8335 25.9584 5.83342H6.26523L6.22763 5.63404C5.99248 4.40165 4.90416 3.50009 3.64934 3.50009H2.04176ZM6.59905 7.58342H24.9011L23.2172 16.4246C23.0329 17.3927 22.197 18.0834 21.2109 18.0834H10.2893C9.30356 18.0834 8.46821 17.3926 8.28297 16.4246V16.4234L6.59905 7.58342ZM11.6668 21.0001C11.2026 21.0001 10.7575 21.1845 10.4293 21.5127C10.1011 21.8408 9.91676 22.286 9.91676 22.7501C9.91676 23.2142 10.1011 23.6593 10.4293 23.9875C10.7575 24.3157 11.2026 24.5001 11.6668 24.5001C12.1309 24.5001 12.576 24.3157 12.9042 23.9875C13.2324 23.6593 13.4168 23.2142 13.4168 22.7501C13.4168 22.286 13.2324 21.8408 12.9042 21.5127C12.576 21.1845 12.1309 21.0001 11.6668 21.0001ZM19.8334 21.0001C19.3693 21.0001 18.9242 21.1845 18.596 21.5127C18.2678 21.8408 18.0834 22.286 18.0834 22.7501C18.0834 23.2142 18.2678 23.6593 18.596 23.9875C18.9242 24.3157 19.3693 24.5001 19.8334 24.5001C20.2976 24.5001 20.7427 24.3157 21.0709 23.9875C21.399 23.6593 21.5834 23.2142 21.5834 22.7501C21.5834 22.286 21.399 21.8408 21.0709 21.5127C20.7427 21.1845 20.2976 21.0001 19.8334 21.0001Z" fill="#2E2F31"/>
</svg>
