<svg width="28" height="28" viewBox="0 0 28 28" fill="none" xmlns="http://www.w3.org/2000/svg">
<path d="M14.0055 3.51723C13.8509 3.51626 13.699 3.55866 13.5672 3.63961C13.4354 3.72055 13.3289 3.83681 13.2598 3.9752L10.4172 9.66055L3.66717 10.6993C3.51608 10.7227 3.37441 10.7874 3.25786 10.8864C3.14132 10.9853 3.05447 11.1146 3.00692 11.2599C2.95938 11.4052 2.95302 11.5609 2.98853 11.7096C3.02404 11.8583 3.10005 11.9942 3.20811 12.1024L7.8773 16.7715L6.83742 23.5291C6.81416 23.6803 6.83325 23.8349 6.89257 23.9759C6.95189 24.1169 7.04913 24.2387 7.17348 24.3278C7.29783 24.4169 7.44444 24.4698 7.59702 24.4806C7.7496 24.4914 7.90219 24.4597 8.03786 24.389L14.0001 21.278L19.9624 24.389C20.0981 24.4597 20.2507 24.4914 20.4033 24.4806C20.5558 24.4698 20.7024 24.4169 20.8268 24.3278C20.9512 24.2387 21.0484 24.1169 21.1077 23.9759C21.167 23.8349 21.1861 23.6803 21.1629 23.5291L20.123 16.7715L24.7922 12.1024C24.9002 11.9942 24.9762 11.8583 25.0118 11.7096C25.0473 11.5609 25.0409 11.4052 24.9934 11.2599C24.9458 11.1146 24.859 10.9853 24.7424 10.8864C24.6259 10.7874 24.4842 10.7227 24.3331 10.6993L17.5831 9.66055L14.7404 3.9752C14.6722 3.83845 14.5674 3.72327 14.4377 3.64244C14.3079 3.5616 14.1584 3.51826 14.0055 3.51723ZM14.0001 6.19503L16.2943 10.7834C16.3534 10.9018 16.44 11.0042 16.5469 11.0822C16.6538 11.1602 16.7778 11.2115 16.9085 11.2317L22.4667 12.0873L18.6564 15.8976C18.5645 15.9896 18.4955 16.1018 18.455 16.2254C18.4146 16.349 18.4038 16.4803 18.4236 16.6088L19.2782 22.1649L14.3827 19.611C14.2646 19.5494 14.1333 19.5173 14.0001 19.5173C13.8669 19.5173 13.7357 19.5494 13.6176 19.611L8.72212 22.1649L9.57665 16.6088C9.59644 16.4803 9.58568 16.349 9.54524 16.2254C9.5048 16.1018 9.43582 15.9896 9.34389 15.8976L5.53354 12.0873L11.0917 11.2317C11.2225 11.2115 11.3465 11.1602 11.4534 11.0822C11.5602 11.0042 11.6469 10.9018 11.706 10.7834L14.0001 6.19503Z" fill="#232325"/>
</svg>
