<svg width="27" height="27" viewBox="0 0 27 27" fill="none" xmlns="http://www.w3.org/2000/svg">
<path d="M13.2467 2.75856C13.092 2.7576 12.9402 2.79999 12.8083 2.88094C12.6765 2.96189 12.5701 3.07815 12.501 3.21654L9.65831 8.90188L2.90831 9.94067C2.75722 9.96402 2.61555 10.0288 2.49901 10.1277C2.38247 10.2267 2.29561 10.356 2.24807 10.5013C2.20053 10.6466 2.19416 10.8022 2.22967 10.9509C2.26518 11.0996 2.34119 11.2356 2.44926 11.3437L7.11844 16.0129L6.07857 22.7704C6.0553 22.9216 6.07439 23.0763 6.13371 23.2173C6.19303 23.3583 6.29027 23.4801 6.41462 23.5691C6.53897 23.6582 6.68558 23.7111 6.83816 23.7219C6.99074 23.7327 7.14334 23.701 7.279 23.6303L13.2413 20.5193L19.2036 23.6303C19.3392 23.701 19.4918 23.7327 19.6444 23.7219C19.797 23.7111 19.9436 23.6582 20.0679 23.5691C20.1923 23.4801 20.2895 23.3583 20.3489 23.2173C20.4082 23.0763 20.4273 22.9216 20.404 22.7704L19.3641 16.0129L24.0333 11.3437C24.1414 11.2356 24.2174 11.0996 24.2529 10.9509C24.2884 10.8022 24.282 10.6466 24.2345 10.5013C24.187 10.356 24.1001 10.2267 23.9836 10.1277C23.867 10.0288 23.7253 9.96402 23.5743 9.94067L16.8243 8.90188L13.9816 3.21654C13.9133 3.07978 13.8085 2.96461 13.6788 2.88377C13.5491 2.80294 13.3995 2.7596 13.2467 2.75856ZM13.2413 5.43636L15.5355 10.0247C15.5946 10.1431 15.6812 10.2456 15.788 10.3236C15.8949 10.4016 16.0189 10.4528 16.1497 10.473L21.7079 11.3286L17.8975 15.139C17.8056 15.2309 17.7366 15.3432 17.6962 15.4667C17.6557 15.5903 17.645 15.7217 17.6648 15.8502L18.5193 21.4062L13.6238 18.8523C13.5057 18.7907 13.3745 18.7586 13.2413 18.7586C13.1081 18.7586 12.9769 18.7907 12.8587 18.8523L7.96326 21.4062L8.81779 15.8502C8.83758 15.7217 8.82682 15.5903 8.78638 15.4667C8.74594 15.3432 8.67696 15.2309 8.58503 15.139L4.77469 11.3286L10.3329 10.473C10.4636 10.4528 10.5876 10.4016 10.6945 10.3236C10.8014 10.2456 10.888 10.1431 10.9471 10.0247L13.2413 5.43636Z" fill="#FEBD18"/>
<path d="M13.2413 5.43636L15.5355 10.0247C15.5946 10.1431 15.6812 10.2456 15.788 10.3236C15.8949 10.4016 16.0189 10.4528 16.1497 10.473L21.7079 11.3286L17.8975 15.139C17.8056 15.2309 17.7366 15.3432 17.6962 15.4667C17.6557 15.5903 17.645 15.7217 17.6648 15.8502L18.5193 21.4062L13.6238 18.8523C13.5057 18.7907 13.3745 18.7586 13.2413 18.7586C13.1081 18.7586 12.9769 18.7907 12.8587 18.8523L7.96326 21.4062L8.81779 15.8502C8.83758 15.7217 8.82682 15.5903 8.78638 15.4667C8.74594 15.3432 8.67696 15.2309 8.58503 15.139L4.77469 11.3286L10.3329 10.473C10.4636 10.4528 10.5876 10.4016 10.6945 10.3236C10.8014 10.2456 10.888 10.1431 10.9471 10.0247L13.2413 5.43636Z" fill="#FEBD18"/>
</svg>
