<svg width="22" height="22" viewBox="0 0 22 22" fill="none" xmlns="http://www.w3.org/2000/svg">
<path d="M1.60403 2.75001C1.51293 2.74872 1.42248 2.76555 1.33794 2.79952C1.2534 2.83349 1.17645 2.88393 1.11157 2.9479C1.04669 3.01187 0.995175 3.08809 0.960011 3.17214C0.924847 3.25619 0.906738 3.3464 0.906738 3.43751C0.906738 3.52862 0.924847 3.61882 0.960011 3.70287C0.995175 3.78692 1.04669 3.86315 1.11157 3.92712C1.17645 3.99109 1.2534 4.04152 1.33794 4.07549C1.42248 4.10947 1.51293 4.1263 1.60403 4.12501H2.86713C3.20077 4.12501 3.47888 4.35551 3.5421 4.6836L3.67906 5.39975L5.15701 13.1619C5.42427 14.5623 6.65813 15.5833 8.08425 15.5833H16.6655C18.0916 15.5833 19.326 14.5627 19.5927 13.1619L21.0707 5.39975C21.0896 5.30036 21.0864 5.19802 21.0613 5.10002C21.0361 5.00202 20.9897 4.91078 20.9252 4.8328C20.8607 4.75482 20.7798 4.69203 20.6883 4.64891C20.5968 4.60579 20.4969 4.5834 20.3957 4.58334H4.92247L4.89293 4.42668C4.70816 3.45838 3.85306 2.75001 2.86713 2.75001H1.60403ZM5.18476 5.95834H19.565L18.2419 12.905C18.097 13.6656 17.4403 14.2083 16.6655 14.2083H8.08425C7.30973 14.2083 6.65339 13.6656 6.50784 12.905V12.9041L5.18476 5.95834ZM9.16653 16.5C8.80186 16.5 8.45212 16.6449 8.19426 16.9027C7.9364 17.1606 7.79153 17.5103 7.79153 17.875C7.79153 18.2397 7.9364 18.5894 8.19426 18.8473C8.45212 19.1051 8.80186 19.25 9.16653 19.25C9.5312 19.25 9.88094 19.1051 10.1388 18.8473C10.3967 18.5894 10.5415 18.2397 10.5415 17.875C10.5415 17.5103 10.3967 17.1606 10.1388 16.9027C9.88094 16.6449 9.5312 16.5 9.16653 16.5ZM15.5832 16.5C15.2185 16.5 14.8688 16.6449 14.6109 16.9027C14.3531 17.1606 14.2082 17.5103 14.2082 17.875C14.2082 18.2397 14.3531 18.5894 14.6109 18.8473C14.8688 19.1051 15.2185 19.25 15.5832 19.25C15.9479 19.25 16.2976 19.1051 16.5555 18.8473C16.8133 18.5894 16.9582 18.2397 16.9582 17.875C16.9582 17.5103 16.8133 17.1606 16.5555 16.9027C16.2976 16.6449 15.9479 16.5 15.5832 16.5Z" fill="#F1DE3A"/>
</svg>
